<svg version="1.1" xmlns="http://www.w3.org/2000/svg" xmlns:xlink="http://www.w3.org/1999/xlink" width="63.62773" height="57.29635" viewBox="0,0,63.62773,57.29635"><g transform="translate(-288.18614,-138.02408)"><g stroke="none" stroke-width="0" stroke-miterlimit="10"><path d="M351.81388,172.52841c0,9.44076 -14.87433,22.79202 -32.05128,22.79202c-17.17695,0 -31.57645,-13.82609 -31.57645,-23.26686c0,-9.44076 13.92467,-7.12251 31.10161,-7.12251c17.17695,0 32.52612,-1.84342 32.52612,7.59734z" fill="#a2a2a2"/><g><path d="M307.58142,160.20406c0.16644,1.3435 -2.64615,1.67112 -6.3231,2.12663c-3.67695,0.45551 -6.72995,0.9412 -6.89639,-0.4023c-0.16644,-1.3435 2.61672,-4.00744 6.29367,-4.46295c3.67695,-0.45551 6.75939,1.39512 6.92582,2.73862z" fill="#783800"/><path d="M306.75131,158.40026c0.14892,1.20208 -3.60007,-0.72399 -6.07495,-0.4174c-2.47487,0.30659 -5.56498,2.29993 -5.7139,1.09785c-0.14892,-1.20208 2.69975,-5.14438 5.17462,-5.45097c2.47487,-0.30659 6.46531,3.56844 6.61422,4.77052z" fill="#853e00"/><path d="M304.60539,155.0695c0.10512,0.84853 -3.23331,-1.07276 -4.78894,-0.88004c-1.55563,0.19272 -3.90811,2.73234 -4.01323,1.88382c-0.10512,-0.84853 2.07693,-4.76389 3.63256,-4.95661c1.55563,-0.19272 5.06449,3.1043 5.16961,3.95283z" fill="#783800"/></g><g><path d="M316.83921,154.40206c-0.37777,1.29999 -3.09106,0.49002 -6.64894,-0.54387c-3.55788,-1.0339 -6.55447,-1.79362 -6.1767,-3.09361c0.37777,-1.29999 3.98685,-2.64799 7.54473,-1.61409c3.55788,1.0339 5.65868,3.95158 5.28091,5.25157z" fill="#783800"/><path d="M316.78909,152.41705c-0.33801,1.16315 -3.02135,-2.08712 -5.41608,-2.78302c-2.39473,-0.69589 -6.02092,-0.08522 -5.68292,-1.24837c0.33801,-1.16315 4.51221,-3.65967 6.90694,-2.96378c2.39473,0.69589 4.53007,5.83201 4.19206,6.99517z" fill="#853e00"/><path d="M316.13329,148.50951c-0.23859,0.82105 -2.54666,-2.26266 -4.05192,-2.70008c-1.50526,-0.43742 -4.66958,0.96649 -4.43098,0.14544c0.23859,-0.82105 3.78974,-3.55614 5.295,-3.11873c1.50526,0.43742 3.42649,4.85231 3.1879,5.67336z" fill="#783800"/></g><g><path d="M330.94232,157.72144c0.07876,1.35148 -2.74918,1.49559 -6.44796,1.71114c-3.69878,0.21554 -6.7769,0.50177 -6.85566,-0.84971c-0.07876,-1.35148 2.87167,-3.82888 6.57045,-4.04442c3.69878,-0.21554 6.65441,1.83152 6.73317,3.183z" fill="#783800"/><path d="M330.23121,155.8675c0.07047,1.20922 -3.54539,-0.95647 -6.03497,-0.81138c-2.48957,0.14508 -5.70271,1.93334 -5.77318,0.72412c-0.07047,-1.20922 3.02843,-4.95801 5.51799,-5.10309c2.48957,-0.14508 6.21968,3.98113 6.29015,5.19035z" fill="#853e00"/><path d="M328.30632,152.40429c0.04974,0.85357 -3.15675,-1.28065 -4.72162,-1.18946c-1.56487,0.09119 -4.07744,2.47254 -4.12719,1.61897c-0.04974,-0.85357 2.38219,-4.61882 3.94706,-4.71001c1.56487,-0.09119 4.85201,3.42693 4.90175,4.2805z" fill="#783800"/></g><g><path d="M334.01842,148.77785c-0.15387,1.345 -2.96471,1.00265 -6.64576,0.58152c-3.68105,-0.42112 -6.7627,-0.66631 -6.60884,-2.01131c0.15387,-1.345 3.485,-3.28048 7.16605,-2.85936c3.68105,0.42112 6.24241,2.94415 6.08854,4.28915z" fill="#783800"/><path d="M333.63533,146.82951c-0.13767,1.20342 -3.32919,-1.54954 -5.80683,-1.83299c-2.47763,-0.28345 -5.94957,0.92809 -5.8119,-0.27534c0.13767,-1.20342 3.83283,-4.36609 6.31046,-4.08264c2.47763,0.28345 5.44594,4.98754 5.30827,6.19097z" fill="#853e00"/><path d="M332.33202,143.0878c-0.09718,0.84947 -2.89077,-1.80237 -4.44813,-1.98054c-1.55737,-0.17817 -4.44066,1.73767 -4.34348,0.88819c0.09718,-0.84947 3.13804,-4.14258 4.69541,-3.96441c1.55737,0.17817 4.19339,4.20729 4.09621,5.05676z" fill="#783800"/></g></g></g></svg>