<svg version="1.1" xmlns="http://www.w3.org/2000/svg" xmlns:xlink="http://www.w3.org/1999/xlink" width="63.62773" height="41.99635" viewBox="0,0,63.62773,41.99635"><g transform="translate(-288.18615,-153.32407)"><g stroke="none" stroke-width="0" stroke-miterlimit="10"><g><path d="M306.6747,167.58748c0.16644,1.3435 -2.64615,1.67112 -6.3231,2.12663c-3.67695,0.45551 -6.72995,0.9412 -6.89639,-0.4023c-0.16644,-1.3435 2.61672,-4.00744 6.29367,-4.46295c3.67695,-0.45551 6.75939,1.39512 6.92582,2.73862z" fill="#783800"/><path d="M305.84459,165.78368c0.14892,1.20208 -3.60007,-0.72399 -6.07495,-0.4174c-2.47487,0.30659 -5.56498,2.29993 -5.7139,1.09785c-0.14892,-1.20208 2.69975,-5.14438 5.17462,-5.45097c2.47487,-0.30659 6.46531,3.56844 6.61422,4.77052z" fill="#853e00"/><path d="M303.69866,162.45292c0.10512,0.84853 -3.23331,-1.07276 -4.78894,-0.88004c-1.55563,0.19272 -3.90811,2.73234 -4.01323,1.88382c-0.10512,-0.84853 2.07693,-4.76389 3.63256,-4.95661c1.55563,-0.19272 5.06449,3.1043 5.16961,3.95283z" fill="#783800"/></g><g><path d="M319.04128,168.65077c-0.37777,1.29999 -3.09106,0.49002 -6.64894,-0.54387c-3.55788,-1.0339 -6.55447,-1.79362 -6.1767,-3.09361c0.37777,-1.29999 3.98685,-2.64799 7.54473,-1.61409c3.55788,1.0339 5.65868,3.95158 5.28091,5.25157z" fill="#783800"/><path d="M318.99116,166.66576c-0.33801,1.16315 -3.02135,-2.08712 -5.41608,-2.78302c-2.39473,-0.69589 -6.02092,-0.08522 -5.68292,-1.24837c0.33801,-1.16315 4.51221,-3.65967 6.90694,-2.96378c2.39473,0.69589 4.53007,5.83201 4.19206,6.99517z" fill="#853e00"/><path d="M318.33536,162.75822c-0.23859,0.82105 -2.54666,-2.26266 -4.05192,-2.70008c-1.50526,-0.43742 -4.66958,0.96649 -4.43098,0.14544c0.23859,-0.82105 3.78974,-3.55614 5.295,-3.11873c1.50526,0.43742 3.42649,4.85231 3.1879,5.67336z" fill="#783800"/></g><g><path d="M333.27393,167.566c0.07876,1.35148 -2.74918,1.49559 -6.44796,1.71114c-3.69878,0.21554 -6.7769,0.50177 -6.85566,-0.84971c-0.07876,-1.35148 2.87167,-3.82888 6.57045,-4.04442c3.69878,-0.21554 6.65441,1.83152 6.73317,3.183z" fill="#783800"/><path d="M332.56282,165.71206c0.07047,1.20922 -3.54539,-0.95647 -6.03497,-0.81138c-2.48957,0.14508 -5.70271,1.93334 -5.77318,0.72412c-0.07047,-1.20922 3.02843,-4.95801 5.51799,-5.10309c2.48957,-0.14508 6.21968,3.98113 6.29015,5.19035z" fill="#853e00"/><path d="M330.63793,162.24885c0.04974,0.85357 -3.15675,-1.28065 -4.72162,-1.18946c-1.56487,0.09119 -4.07744,2.47254 -4.12719,1.61897c-0.04974,-0.85357 2.38219,-4.61882 3.94706,-4.71001c1.56487,-0.09119 4.85201,3.42693 4.90175,4.2805z" fill="#783800"/></g><g><path d="M346.32412,167.68977c-0.15387,1.345 -2.96471,1.00265 -6.64576,0.58152c-3.68105,-0.42112 -6.7627,-0.66631 -6.60884,-2.01131c0.15387,-1.345 3.485,-3.28048 7.16605,-2.85936c3.68105,0.42112 6.24241,2.94415 6.08854,4.28915z" fill="#783800"/><path d="M345.94103,165.74143c-0.13767,1.20342 -3.32919,-1.54954 -5.80683,-1.83299c-2.47763,-0.28345 -5.94957,0.92809 -5.8119,-0.27534c0.13767,-1.20342 3.83283,-4.36609 6.31046,-4.08264c2.47763,0.28345 5.44594,4.98754 5.30827,6.19097z" fill="#853e00"/><path d="M344.63772,161.99972c-0.09718,0.84947 -2.89077,-1.80237 -4.44813,-1.98054c-1.55737,-0.17817 -4.44066,1.73767 -4.34348,0.88819c0.09718,-0.84947 3.13804,-4.14258 4.69541,-3.96441c1.55737,0.17817 4.19339,4.20729 4.09621,5.05676z" fill="#783800"/></g><g><path d="M326.42803,165.24125c-0.34887,1.30805 -3.07944,0.55838 -6.65935,-0.39644c-3.57991,-0.95482 -6.59259,-1.64796 -6.24372,-2.95601c0.34887,-1.30805 3.9272,-2.73566 7.50712,-1.78084c3.57991,0.95482 5.74484,3.82525 5.39596,5.13329z" fill="#783800"/><path d="M326.33394,163.25784c-0.31215,1.17036 -3.06686,-2.01967 -5.47642,-2.66234c-2.40955,-0.64267 -6.02133,0.0482 -5.70918,-1.12216c0.31215,-1.17036 4.43002,-3.75875 6.83958,-3.11608c2.40955,0.64267 4.65817,5.73023 4.34601,6.90058z" fill="#853e00"/><path d="M325.59172,159.36578c-0.22034,0.82614 -2.59616,-2.20569 -4.11074,-2.60964c-1.51458,-0.40396 -4.64702,1.0697 -4.42668,0.24357c0.22034,-0.82614 3.71003,-3.63923 5.22461,-3.23527c1.51458,0.40396 3.53315,4.7752 3.31281,5.60134z" fill="#783800"/></g><g><path d="M340.66318,162.04962c0.40949,1.29035 -2.29565,2.12715 -5.82713,3.24788c-3.53149,1.12072 -6.44406,2.15692 -6.85355,0.86657c-0.40949,-1.29035 1.83915,-4.41864 5.37064,-5.53936c3.53149,-1.12072 6.90055,0.13455 7.31004,1.4249z" fill="#783800"/><path d="M339.51698,160.4282c0.36638,1.15453 -3.67177,-0.05293 -6.04873,0.70139c-2.37696,0.75434 -5.0501,3.27951 -5.41649,2.12499c-0.36638,-1.15453 1.71271,-5.55156 4.08968,-6.3059c2.37696,-0.75434 7.00916,2.32499 7.37555,3.47952z" fill="#853e00"/><path d="M336.79776,157.54641c0.25863,0.81496 -3.37502,-0.46293 -4.86912,0.01122c-1.4941,0.47415 -3.34208,3.40142 -3.6007,2.58644c-0.25863,-0.81496 1.17003,-5.06353 2.66413,-5.53769c1.4941,-0.47415 5.54706,2.12505 5.80569,2.94001z" fill="#783800"/></g><g><path d="M307.42704,166.17922c-0.16391,1.34381 -2.97211,0.98049 -6.64991,0.5319c-3.6778,-0.44859 -6.75754,-0.71678 -6.59364,-2.06059c0.16391,-1.34381 3.5094,-3.25437 7.18719,-2.80578c3.6778,0.44859 6.22025,2.99066 6.05635,4.33448z" fill="#783800"/><path d="M307.05851,164.22807c-0.14665,1.20236 -3.31753,-1.57436 -5.79299,-1.87629c-2.47545,-0.30194 -5.95633,0.88364 -5.80968,-0.31872c0.14665,-1.20236 3.86532,-4.33735 6.34076,-4.03541c2.47545,0.30194 5.40856,5.02805 5.26191,6.23042z" fill="#853e00"/><path d="M305.78317,160.47674c-0.10352,0.84873 -2.87724,-1.82391 -4.43323,-2.0137c-1.55599,-0.18979 -4.45351,1.70447 -4.35,0.85574c0.10352,-0.84873 3.16889,-4.11904 4.72488,-3.92925c1.55599,0.18979 4.16187,4.23848 4.05835,5.0872z" fill="#783800"/></g><g><path d="M314.86042,161.08599c0.37256,1.3015 -2.35532,2.06089 -5.91731,3.08053c-3.56199,1.01963 -6.50289,1.97244 -6.87546,0.67094c-0.37256,-1.3015 1.9643,-4.36444 5.52629,-5.38407c3.56199,-1.01963 6.89391,0.33111 7.26647,1.63261z" fill="#783800"/><path d="M313.76089,159.43258c0.33335,1.1645 -3.66876,-0.15754 -6.06627,0.52877c-2.3975,0.6863 -5.14149,3.13428 -5.47484,1.96979c-0.33335,-1.1645 1.8702,-5.50051 4.26769,-6.18681c2.3975,-0.6863 6.94006,2.52375 7.27341,3.68825z" fill="#853e00"/><path d="M311.12487,156.47446c0.2353,0.82201 -3.36047,-0.5589 -4.86747,-0.12751c-1.507,0.43139 -3.43763,3.3048 -3.67294,2.4828c-0.2353,-0.82201 1.31384,-5.02814 2.82084,-5.45952c1.507,-0.43139 5.48427,2.28223 5.71957,3.10424z" fill="#783800"/></g><path d="M351.81388,172.52841c0,9.44076 -14.87433,22.79202 -32.05128,22.79202c-17.17695,0 -31.57645,-13.82609 -31.57645,-23.26686c0,-9.44076 13.92467,-7.12251 31.10161,-7.12251c17.17695,0 32.52612,-1.84342 32.52612,7.59734z" fill="#a2a2a2"/></g></g></svg>