<svg version="1.1" xmlns="http://www.w3.org/2000/svg" xmlns:xlink="http://www.w3.org/1999/xlink" width="485.86691" height="312.76279" viewBox="0,0,485.86691,312.76279"><g transform="translate(-65.95018,-71.4665)"><g stroke="none" stroke-width="0.5" stroke-miterlimit="10"><path d="M325.48046,384.22923c-4.59847,0 -8.90697,-1.24155 -12.60856,-3.40772l-1.84456,-0.49853l-1.84425,-2.13544c-1.87802,-1.6159 -3.51328,-3.50609 -4.8436,-5.60838l-0.73403,-0.84993l-0.1708,-0.5368l-0.74797,-1.3516l-1.17237,-1.14068l-1.64896,-3.95752l-0.7533,-1.36122l-0.51541,-1.68368l-1.44965,-3.47915l0.26865,-1.32743l-0.95421,-4.77103l-0.24036,-2.45169l-0.24512,-2.45122v-12.01201l0.39063,-3.90625l0.02641,-0.08302l0.00119,-0.08711l0.86469,-3.82932l0.21858,-0.65575v-0.44756l0.03637,-0.36368l-0.17122,-1.36976l0.47257,-1.64371l0.05291,-0.5291l1.0288,-3.23337l0.93754,-3.26101l0.24947,-0.46958l0.39657,-1.24637v-4.08988l-0.24817,-0.62043l-0.18594,-0.27891l-0.45069,-0.45069l-4.78807,-3.99006h-2.36016l-2.45122,-0.24512l-2.45169,-0.24036l-5.08009,-1.01602h-10.52866l-0.61332,0.15576l-0.993,-0.15576h-0.40454l-3.90625,-0.39062l-1.77027,-0.56327l-1.83527,-0.28789l-0.68177,-0.25972h-8.32295l-2.45122,-0.24512l-2.45169,-0.24036l-7.50751,-1.5015l-3.75379,-1.14912l-0.83107,-0.45991l-0.91287,-0.26245l-3.46688,-1.84178l-3.67712,-2.45141l-0.93531,-0.38971l-1.2141,-1.24782l-1.7115,-1.40587l-1.58925,-1.98656l-1.7741,-1.82338l-0.63469,-1.00493l-3.72733,-2.98186l-1.04419,-1.02149l-0.11492,-0.07661l-0.81452,-0.83262l-0.83262,-0.81452l-0.07661,-0.11492l-1.02149,-1.04419l-6.00601,-7.50751l-0.78985,-1.21863l-0.88839,-1.14878l-7.50751,-12.01201l-0.78508,-1.58885l-0.1262,-0.17316l-0.39741,-0.88652l-0.43037,-0.87099l-0.05312,-0.20758l-0.72494,-1.61718l-1.35515,-4.06545l-3.96479,-10.57278l-1.89625,-0.18963l-0.08302,-0.02641l-0.08711,-0.00119l-3.82932,-0.86469l-0.65575,-0.21858h-7.44571l-0.61332,0.15576l-0.993,-0.15576h-0.40454l-3.90625,-0.39062l-1.77027,-0.56327l-1.83527,-0.28789l-0.68177,-0.25972h-2.31694l-3.90625,-0.39062l-0.08302,-0.02641l-0.08711,-0.00119l-3.82932,-0.86469l-1.10744,-0.36915l-0.4288,-0.04288l-0.2446,0.01545l-0.86118,-0.12603l-0.86604,-0.0866l-0.23355,-0.07431l-1.92359,-0.2815l-6.00601,-1.5015l-0.90469,-0.32476l-0.93761,-0.21172l-4.5045,-1.5015l-1.61784,-0.72524l-1.65681,-0.63116l-6.00601,-3.003l-3.31916,-2.09631l-0.06244,-0.06075l-0.07738,-0.04002l-3.03835,-2.48592l-2.06086,-2.06086l-0.29551,-0.13247l-1.65681,-0.63116l-3.003,-1.5015l-1.31434,-0.83011l-1.37283,-0.72932l-3.20947,-2.13964l-1.61088,-0.80544l-1.08381,-0.68451l-1.71128,-0.71303l-3.446,-3.54172l-3.54172,-3.446l-0.71303,-1.71128l-0.59005,-0.93425l-1.41745,-1.15973l-0.35775,-0.35775l-2.47009,-1.56005l-0.06244,-0.06075l-0.07738,-0.04002l-3.03835,-2.48592l-1.58111,-1.58111l-0.54383,-0.32354l-0.59201,-0.8123l-0.28605,-0.28605l-2.48592,-3.03835l-0.85348,-1.65006l-1.09417,-1.5013l-1.60584,-3.58227l-0.12793,-0.38378l-0.46179,-0.89279l-0.04618,-0.63111l-0.21584,-0.64752l-0.30919,-0.35801l-0.30476,-0.95783l-0.18092,-0.36183l-1.39754,-3.66855l-0.28789,-1.83527l-0.56327,-1.77027l-0.39062,-3.90625v-0.40454l-0.15576,-0.993l0.08219,-0.32362l-0.68149,-2.72596l-0.2815,-1.92359l-0.07431,-0.23355l-0.0866,-0.86604l-0.12603,-0.86118l0.01545,-0.2446l-0.19344,-1.93443v-1.42686l-0.75506,-3.02026l-0.2815,-1.92359l-0.07431,-0.23355l-0.0866,-0.86604l-0.12603,-0.86118l0.01545,-0.2446l-0.19344,-1.93443v-3.4437l-2.33023,-5.82556l-0.13717,-0.27435l-0.41361,-0.47891l-0.30476,-0.95783l-0.18092,-0.36183l-1.39754,-3.66855l-0.28789,-1.83527l-0.56327,-1.77027l-0.39062,-3.90625v-0.40454l-0.15576,-0.993l0.15576,-0.61332v-5.49664l0.39063,-3.90625l0.02641,-0.08302l0.00119,-0.08711l0.60525,-2.68038l-0.60525,-2.68038l-0.00119,-0.08711l-0.02641,-0.08302l-0.39062,-3.90625v-4.5045l0.39063,-3.90625l2.73438,-8.59375l7.42188,-8.59375l14.45313,-3.90625l14.45313,3.90625l7.42188,8.59375l2.73438,8.59375l0.39063,3.90625v0.44756l0.21858,0.65575l0.86469,3.82932l0.00119,0.08711l0.02641,0.08302l0.39063,3.90625v4.5045l-0.39062,3.90625l-0.02641,0.08302l-0.00119,0.08711l-0.73298,3.24605l1.97994,4.94984l0.13717,0.27435l0.41361,0.47891l0.30476,0.95783l0.18092,0.36183l1.39754,3.66855l0.28789,1.83527l0.56327,1.77027l0.39063,3.90625v0.40454l0.15576,0.993l-0.15576,0.61332v3.9205l0.75506,3.02026l0.2815,1.92359l0.07431,0.23355l0.0866,0.86604l0.12603,0.86118l-0.01545,0.2446l0.19344,1.93443v1.42686l0.75506,3.02026l0.2815,1.92359l0.07431,0.23355l0.0866,0.86604l0.04161,0.28435l1.94909,1.59471l0.35775,0.35775l0.23473,0.14825l1.71128,0.71303l3.446,3.54172l3.54172,3.446l0.71303,1.71128l0.18782,0.29739l1.21898,0.81266l0.02175,0.01088l0.91131,0.30377l0.63111,0.04618l0.89279,0.46179l0.38378,0.12793l3.58227,1.60584l1.5013,1.09417l1.65006,0.85348l3.03835,2.48592l0.28605,0.28605l0.8123,0.59201l0.32354,0.54383l1.71542,1.71542l0.78824,0.39412l1.90813,0.63604l2.13856,0.53464l3.78185,0.37819l0.08302,0.02641l0.08711,0.00119l3.82932,0.86469l0.65575,0.21858h1.4397l0.61332,-0.15576l0.993,0.15576h0.40454l3.90625,0.39063l1.77027,0.56327l0.85502,0.13412v-4.61654l0.20521,-2.05208l0.13494,-2.05789l1.16135,-6.9681v-0.93394l0.19344,-1.93443l-0.01545,-0.2446l0.12603,-0.86118l0.0866,-0.86604l0.07431,-0.23355l0.2815,-1.92359l1.5015,-6.00601l1.30999,-3.64926l0.00456,-0.0178l0.00671,-0.01357l0.00511,-0.01425l0.00965,-0.01563l1.71759,-3.47607l6.87798,-11.00477l0.17574,-0.35149l0.93966,-2.81898l0.72524,-1.61784l0.63116,-1.65681l1.5015,-3.003l0.83011,-1.31434l0.72932,-1.37283l3.003,-4.5045l1.56364,-1.90357l1.55994,-1.9066l3.36076,-3.36076l0.13218,-0.20928l0.59849,-2.21443l4.91067,-4.24103l2.20766,-2.26898l0.81072,-0.3378l0.6647,-0.57406l3.01673,-0.95987l5.98941,-2.49559l2.2483,0.45501l1.24556,-0.12456h2.02902l5.08009,-1.01602l2.45169,-0.24036l2.45122,-0.24512h19.51952l3.90625,0.39063l0.08302,0.02641l0.08711,0.00119l3.82932,0.86469l1.01079,0.33693l1.71602,-0.11835l4.6661,1.62671l4.7089,1.49829l1.40306,1.21173l1.09694,0.66327l1.96719,1.47539l7.11422,1.77856l1.32669,0.47625l0.12171,0.01909l1.11922,0.42637l1.12726,0.40466l0.10483,0.06471l1.31724,0.50181l1.82937,0.91468l10.78339,4.04377l0.51846,0.25586l0.55144,0.17374l9.55472,4.09488l1.50792,0.50264l15.53574,2.39011h27.43214l0.68177,-0.25972l1.83527,-0.28789l1.77027,-0.56327l3.90625,-0.39062h0.40454l0.993,-0.15576l0.61332,0.15576h6.43058l6.9681,-1.16135l2.05789,-0.13494l2.05208,-0.20521h3.93694l4.67824,-0.77971l1.54133,-1.02756l1.37283,-0.72932l1.31434,-0.83011l4.61388,-2.30694l1.14973,-0.76649l0.10882,-0.10882l1.56005,-2.47009l0.06075,-0.06244l0.04002,-0.07738l2.48592,-3.03835l4.5045,-4.5045l3.03835,-2.48592l0.07738,-0.04002l0.06244,-0.06075l2.47009,-1.56005l1.85926,-1.85926l3.03835,-2.48592l0.07738,-0.04002l0.06244,-0.06075l3.31916,-2.09631l0.6341,-0.31705l5.43937,-4.3515l0.91099,-0.59046l0.83888,-0.68908l4.5045,-3.003l2.14747,-1.14084l0.23207,-0.16914l0.55257,-0.2477l0.53477,-0.28409l0.27599,-0.07935l2.21895,-0.9947l4.5045,-1.5015l3.82932,-0.86469l0.08711,-0.00119l0.08302,-0.02641l3.90625,-0.39062h7.50751l1.27551,0.12755l1.84949,-0.12755l4.6661,1.62671l4.7089,1.49829l1.40306,1.21173l1.09694,0.66327l6.00601,4.5045l1.55423,1.42821l0.22225,0.14817l0.5427,0.55476l0.57144,0.52511l0.15504,0.21751l1.47606,1.50886l4.72848,5.91059l13.49494,12.14545l1.38198,1.51866l0.20334,0.16268l0.51295,0.62446l0.5439,0.5977l0.13163,0.22469l1.30333,1.58667l6.00601,9.00901l0.56239,1.05861l0.03484,0.04234l0.61745,1.1855l0.6271,1.18042l0.01515,0.0527l0.55373,1.06316l2.25904,5.6476l3.47387,5.78979l0.60136,1.27487l0.07256,0.09956l0.48992,1.0929l0.51096,1.08322l0.02837,0.11988l0.5766,1.28626l3.003,9.00901l0.43082,1.90793l0.51194,1.88779l1.43523,8.61137l1.42244,7.11221l0.03947,0.40255l0.10587,0.39038l1.43523,8.61137l1.42244,7.11221l0.24036,2.45169l0.24512,2.45122v4.7632l2.40768,10.83456l0.16735,1.39962l0.03735,0.1174l0.11917,1.19174l0.14219,1.18922l-0.011,0.1227l0.14026,1.40259v1.7602l2.40768,10.83456l0.16735,1.39962l0.03735,0.1174l0.11917,1.19174l0.14219,1.18922l-0.011,0.1227l0.14026,1.40259v13.08663l0.13544,0.23576l-0.13544,1.85096v2.84467l-0.39062,3.90625l-0.13421,0.4218l-0.16837,2.30108l-1.46497,2.83227l-0.96683,3.0386l-1.50805,1.74617l-0.20336,0.39315l-2.48592,3.03835l-1.25257,1.25257l-0.76649,1.14973l-2.30694,4.61388l-2.09631,3.31916l-0.06075,0.06244l-0.04002,0.07738l-2.48592,3.03835l-1.25257,1.25257l-1.07826,1.61739l-0.38971,0.93531l-1.24782,1.2141l-1.40587,1.7115l-1.98656,1.58925l-1.82338,1.7741l-1.87266,1.18273l-1.3595,1.0876l-0.97642,0.27069l-5.11659,2.5583l-1.65681,0.63116l-1.61784,0.72524l-1.15791,0.38597l-4.08513,4.08513l-3.03835,2.48592l-0.07738,0.04002l-0.06244,0.06075l-3.31916,2.09631l-1.20443,0.60221l-0.47891,0.41361l-0.95783,0.30476l-0.36183,0.18092l-3.66855,1.39754l-1.83527,0.28789l-1.77027,0.56327l-3.78185,0.37819l-2.13856,0.53464l-3.59365,1.19788l-3.82932,0.86469l-0.08711,0.00119l-0.08302,0.02641l-3.90625,0.39063h-0.99214l-0.61332,0.15576l-0.993,-0.15576h-0.40454l-3.90625,-0.39062l-1.77027,-0.56327l-1.83527,-0.28789l-3.66855,-1.39754l-0.36183,-0.18092l-0.95783,-0.30476l-0.47891,-0.41361l-3.31802,-1.65901l-0.97642,-0.27069l-1.3595,-1.0876l-1.87266,-1.18273l-1.82338,-1.7741l-1.98656,-1.58925l-1.40587,-1.7115l-1.24782,-1.2141l-0.38971,-0.93531l-1.07826,-1.61739l-1.38688,-1.38688l-0.57879,-0.2894l-0.61823,-0.13497l-0.81851,-0.5834l-0.36183,-0.18092l-3.31916,-2.09631l-1.33147,-1.29549l-1.51277,-1.07825l-2.65625,-2.89063l-0.24273,-0.32363l-0.72041,-0.70094l-0.24338,-0.58412l-2.23197,-2.97596l-0.49038,-0.49038l-2.97596,-2.23197l-0.58412,-0.24338l-0.70094,-0.72041l-0.32363,-0.24273l-2.89062,-2.65625l-1.07825,-1.51277l-1.29549,-1.33147l-2.09631,-3.31916l-0.18092,-0.36183l-0.5834,-0.81851l-0.06188,-0.28344l-0.18962,-0.21956l-0.30476,-0.95783l-0.18092,-0.36183l-1.39754,-3.66855l-0.28789,-1.83527l-0.56327,-1.77027l-0.39062,-3.90625v-0.40454l-0.15576,-0.993l0.15576,-0.61332v-13.00415l0.35285,-3.52853h-131.50901l-1.24556,-0.12456l-2.2483,0.45501l-5.98941,-2.49559l-2.63331,-0.83787h-22.5445l2.53818,4.06109l3.36281,4.20351l3.36294,2.69035l0.33354,0.13897l0.56132,0.57691l1.08063,0.86451l2.07432,2.02923h7.32446l0.61332,-0.15576l0.993,0.15576h0.40454l3.90625,0.39063l1.77027,0.56327l1.83527,0.28789l0.68177,0.25972h9.82445l2.45122,0.24512l2.45169,0.24036l5.08009,1.01602h4.52265l0.61332,-0.15576l0.993,0.15576h0.40454l3.90625,0.39063l1.77027,0.56327l1.83527,0.28789l3.66855,1.39754l0.36183,0.18092l0.95783,0.30476l0.47891,0.41361l4.20743,2.10372l1.39877,0.88343l0.17456,0.07108l0.86385,0.58476l0.88198,0.55704l0.13509,0.13144l1.37002,0.9274l9.00901,7.50751l0.79498,0.80943l0.87808,0.71843l3.003,3.003l1.55994,1.9066l1.56364,1.90357l3.003,4.5045l0.56239,1.05861l0.03484,0.04234l0.61745,1.1855l0.6271,1.18042l0.01515,0.0527l0.55373,1.06316l3.003,7.50751l1.08806,3.77194l0.05963,0.8216l0.24977,0.78498l0.39063,3.90625v16.51652l-0.03637,0.36368l0.17122,1.36976l-0.47257,1.64371l-0.05291,0.5291l-1.0288,3.23337l-0.93754,3.26101l-0.24947,0.46958l-0.51857,1.62979l-0.25684,0.2974l-0.01179,0.11786l-0.02641,0.08302l-0.00119,0.08711l-0.86469,3.82932l-0.21858,0.65575v2.53365l0.46764,0.455l0.3378,0.81072l0.57406,0.6647l0.95987,3.01673l2.49559,5.98941l-0.45501,2.2483l0.12456,1.24556v3.003c0,4.16768 -1.01982,8.09717 -2.82353,11.55253l-0.30147,0.94747l-0.73403,0.84993c-1.33033,2.1023 -2.96558,3.99248 -4.8436,5.60838l-1.84425,2.13544l-1.84456,0.49853c-3.70159,2.16617 -8.01009,3.40772 -12.60856,3.40772zM277.43242,187.08209l1.24556,0.12456l2.2483,-0.45501l5.98941,2.49559l2.63331,0.83787h128.5152l0.61332,-0.15576l0.993,0.15576h0.40454l3.90625,0.39063l1.77027,0.56327l1.83527,0.28789l3.66855,1.39754l0.36183,0.18092l0.95783,0.30476l0.47891,0.41361l0.27435,0.13717l3.78656,1.51463l0.09981,0.0073l0.27825,0.14392l2.37739,0.95096l3.48179,1.81343l0.87093,0.7167l1.00183,0.51819l3.03835,2.48592l0.13431,0.13431l2.37737,1.18868l1.05836,0.66844l2.21443,0.59849l4.24103,4.91067l2.26898,2.20766l0.3378,0.81072l0.57406,0.6647l0.95987,3.01673l2.49559,5.98941l-0.45501,2.2483l0.12456,1.24556v5.57912l0.13544,0.23576l-0.13544,1.85096v2.84467l-0.39062,3.90625l-0.13421,0.4218l-0.16837,2.30108l-1.46497,2.83227l-0.96683,3.0386l-0.48505,0.56164l2.29373,2.29373l1.1227,1.37219l1.19963,1.30548l0.96348,1.28465l0.72737,0.36368l3.31916,2.09631l0.06244,0.06075l0.07738,0.04002l3.03835,2.48592l4.0941,4.0941l2.5926,-2.5926l3.03835,-2.48592l0.07738,-0.04002l0.06244,-0.06075l3.31916,-2.09631l3.003,-1.5015l1.65681,-0.63116l1.61784,-0.72524l1.80175,-0.60058l0.37984,-0.46241l1.55994,-1.9066l0.13431,-0.13431l1.18868,-2.37737l0.83011,-1.31434l0.72932,-1.37283l1.80726,-2.7109v-6.20282l-2.40768,-10.83456l-0.16735,-1.39962l-0.03735,-0.1174l-0.11917,-1.19174l-0.14219,-1.18922l0.011,-0.1227l-0.14026,-1.40259v-1.7602l-2.40768,-10.83456l-0.16735,-1.39962l-0.03735,-0.1174l-0.11917,-1.19174l-0.14219,-1.18922l0.011,-0.1227l-0.14026,-1.40259v-5.03202l-1.01602,-5.08009l-0.03947,-0.40255l-0.10587,-0.39038l-1.43523,-8.61137l-1.42244,-7.11221l-0.03947,-0.40255l-0.10587,-0.39038l-1.17903,-7.07416l-1.51489,-4.54466l-3.09257,-5.15428l-0.85203,-1.80631l-0.92256,-1.77132l-2.03625,-5.09064l-2.81972,-4.22958l-12.68025,-11.41222l-1.37204,-1.50774l-0.50071,-0.51183l-1.82179,1.45744l-1.06215,0.68843l-0.05572,0.05421l-1.0923,0.68987l-1.08412,0.70267l-0.07257,0.02787l-0.2211,0.13964l-1.85926,1.85926l-3.03835,2.48592l-0.07738,0.04002l-0.06244,0.06075l-1.98835,1.2558l-1.2558,1.98835l-0.06075,0.06244l-0.04002,0.07738l-2.48592,3.03835l-4.5045,4.5045l-1.9066,1.55994l-1.90357,1.56364l-4.5045,3.003l-1.37283,0.72932l-1.31434,0.83011l-4.61388,2.30694l-3.20947,2.13964l-2.14747,1.14084l-0.23207,0.16914l-0.55257,0.2477l-0.53477,0.28409l-0.27599,0.07935l-2.21895,0.9947l-4.5045,1.5015l-1.90793,0.43082l-1.88779,0.51194l-9.00901,1.5015l-2.05789,0.13494l-2.05208,0.20521h-3.93694l-6.9681,1.16135l-2.05789,0.13494l-2.05208,0.20521h-5.31995l-0.68177,0.25972l-1.83527,0.28789l-1.77027,0.56327l-3.90625,0.39063h-0.40454l-0.993,0.15576l-0.61332,-0.15576h-32.52367l-1.89732,-0.18973l-1.90411,-0.10098l-19.51952,-3.003l-2.04463,-0.52713l-2.05963,-0.46508l-4.5045,-1.5015l-0.94967,-0.42571l-0.99262,-0.31274l-9.98052,-4.27736l-11.47211,-4.30204l-1.17637,-0.58055l-1.22588,-0.467l-0.54842,-0.27421l-6.37413,-1.59353l-0.03712,0.00256l-0.12005,-0.04185l-2.81834,-0.70459l-3.69488,-1.32637l-0.89225,-0.55077l-0.99011,-0.34517l-3.35937,-2.03125l-0.67736,-0.50802l-1.23734,-0.2794l-0.65575,-0.21858h-12.98709l-1.41145,0.28229l-1.15546,1.15546l-0.76649,1.14973l-0.01088,0.02175l-0.93966,2.81898l-0.72524,1.61784l-0.63116,1.65681l-1.5015,3.003l-0.63442,1.0045l-0.5263,1.06514l-5.27603,8.44164l-0.13815,1.38149l-0.13494,2.05789l-1.16135,6.9681v4.46247z" fill="#ffdca0"/><path d="M90.60458,72.08577c1.11803,0.55902 0.55902,1.67705 0.55902,1.67705l-0.26503,0.50847c-1.64837,2.40456 -1.03705,5.2839 -0.91395,8.03598c0.10091,2.25604 -0.84174,4.13431 -0.74757,6.37475c0.13707,3.26128 1.1279,7.51477 2.97091,10.20327c0,0 0.17795,0.26693 0.21833,0.62049c2.01817,-0.14227 3.92148,-0.34898 5.62559,-0.59569c4.62402,-1.02689 10.15877,-0.26705 13.74354,-3.95642l1.03829,-0.84043c0,0 0.97609,-0.78087 1.75695,0.19522c0.78087,0.97609 -0.19522,1.75695 -0.19522,1.75695l-0.83226,0.65602c-4.20493,4.11673 -9.73329,3.46298 -15.06304,4.64814c-9.27367,1.31039 -23.35437,1.47779 -31.83441,-2.73049c0,0 -1.11803,-0.55902 -0.55902,-1.67705c0.55902,-1.11803 1.67705,-0.55902 1.67705,-0.55902c5.65914,2.85398 14.32673,3.54665 21.96117,3.24941c-1.81886,-3.10674 -2.88093,-7.34704 -3.0061,-10.87559c-0.08042,-2.26697 0.87344,-4.11886 0.74888,-6.34504c-0.18986,-3.39307 -0.61434,-6.56743 1.33072,-9.54726l0.10908,-0.23975c0,0 0.55902,-1.11803 1.67705,-0.55902z" fill="#ff0000"/><path d="M280.16429,187.5888c-0.32852,0.65729 -0.99175,1.34185 -2.32536,1.2528c-2.49712,-0.16676 -2.35038,-2.71247 -2.35038,-2.71247l1.06354,-2.12949c1.21822,-0.8687 4.05343,-3.05709 5.44586,-3.21407c10.33533,-1.16508 13.14329,14.07687 12.96072,21.36478c-0.14901,13.46314 1.93051,30.1744 -6.30562,41.77341c-7.28461,10.25898 -19.56857,9.46656 -18.81784,-5.07361c0,0 0.14674,-2.5457 2.64386,-2.37894c2.49712,0.16676 2.35038,2.71247 2.35038,2.71247c-0.70247,10.81732 7.76339,7.08854 10.86359,-0.22128c5.06259,-11.93682 4.12553,-24.20845 4.26387,-36.9524c0.17273,-4.8702 -0.5341,-10.87244 -4.18173,-14.44768c-0.49465,-0.48482 -1.99637,-1.93046 -3.01124,-1.72945c-1.02633,0.20329 -1.79379,1.02728 -2.59966,1.75595z" fill="#000000"/></g></g></svg>