<svg version="1.1" xmlns="http://www.w3.org/2000/svg" xmlns:xlink="http://www.w3.org/1999/xlink" width="60.34493" height="80.02036" viewBox="0,0,60.34493,80.02036"><g transform="translate(-289.82754,-139.98982)"><g stroke="none" stroke-miterlimit="10"><path d="M289.86858,220.01018v-67.4264h60.30389v67.4264z" fill="#5c6aa3" stroke-width="0"/><path d="M289.82754,152.68597v-12.69615h60.26416v12.69615z" fill="#3f4870" stroke-width="0"/><path d="M323.22258,209.0666c0,2.87964 -6.02301,2.83571 -13.90413,2.83571c-7.88112,0 -14.45298,0.22688 -14.45298,-2.65276c0,-2.87964 6.57186,-7.77534 14.45298,-7.77534c7.88112,0 13.90413,4.71275 13.90413,7.59239z" fill="#783800" stroke-width="0"/><path d="M321.94195,205.04172c0,2.57652 -7.41036,-2.46981 -12.71497,-2.46981c-5.3046,0 -12.34907,3.39979 -12.34907,0.82327c0,-2.57652 7.04447,-10.15368 12.34907,-10.15368c5.3046,0 12.71497,9.2237 12.71497,11.80022z" fill="#853e00" stroke-width="0"/><path d="M318.28297,197.44933c0,1.81872 -6.54493,-3.11014 -9.87925,-3.11014c-3.33432,0 -8.96451,4.74591 -8.96451,2.92719c0,-1.81872 5.63019,-9.51336 8.96451,-9.51336c3.33432,0 9.87925,7.87758 9.87925,9.6963z" fill="#783800" stroke-width="0"/><text transform="translate(292.12122,162.67705) scale(0.21492,0.21492)" font-size="40" xml:space="preserve" fill="#ffffff" stroke-width="1" font-family="Playful" font-weight="normal" text-anchor="start"><tspan x="0" dy="0">patki</tspan><tspan x="0" dy="46.15px">śniadaniowe</tspan><tspan x="0" dy="46.15px">kupsko</tspan></text><text transform="translate(290.29581,218.57145) scale(0.09655,0.09655)" font-size="40" xml:space="preserve" fill="#444f7a" stroke-width="1" font-family="Playful" font-weight="normal" text-anchor="start"><tspan x="0" dy="0">termin: 9 września 2025 p.n.e.</tspan></text></g></g></svg>