<svg version="1.1" xmlns="http://www.w3.org/2000/svg" xmlns:xlink="http://www.w3.org/1999/xlink" width="623.12312" height="81.51571" viewBox="0,0,623.12312,81.51571"><g transform="translate(-8.43844,-144.3194)"><g stroke="none" stroke-miterlimit="10"><path d="M298.10595,151.57233l0.10807,-0.02212l0.09071,-0.06277l8.08166,-3.04526l0.05096,-0.03545l0.26735,-0.1015l0.23183,-0.16743l0.64767,-0.25907l0.35056,-0.0478l0.40457,-0.14449l0.14036,0.07018l0.38116,-0.05198l0.82469,0.6549l0.90725,0.45363l0.01947,0.2823l0.2216,0.17597l-0.14018,1.00461l0.07246,1.0506l-0.25877,0.28465l-0.02169,0.15542l-0.34827,0.25153l-0.238,0.2618l-0.3886,0.25907l-0.26972,0.09633l-0.23551,0.16297l-0.27431,0.10336l-2.37838,1.65452l-0.3791,0.28599l1.6043,-0.01786l0.50408,0.12007l0.18666,-0.05091l0.26361,0.15816l0.29905,0.07123l0.09786,0.16691l0.44434,0.26661l0.19082,0.19082l5.9843,-1.49607h0.42432l0.49451,-0.07464l0.0968,0.07464h0.27283l0.77231,0.80589l0.85325,0.65793l-0.0257,0.2056l0.14336,0.1496l-0.22098,0.78571l2.97962,0.31364l1.0567,0.38555l0.07913,0.0044l0.03052,0.03561l0.04406,0.01608l0.0319,0.07255l0.73204,0.85405l0.7772,1.5544l0.26285,1.18284l0.01857,0.03457l-0.00646,0.01993l0.00454,0.02045l-0.02177,0.03265l-0.37381,1.15259l-1.88136,3.01017l0.0003,0.03332l-0.05412,0.0528l-0.00782,0.01252l-0.43138,0.41597l-0.42894,0.41848l-0.01275,0.00744l-0.05443,0.05249l-0.03329,-0.00131l-6.11714,3.56833l-0.21958,0.06388l-0.18976,0.12762l-5.67751,2.05357l-0.21446,0.33751l-0.3012,0.53692l-0.04782,0.01236l-0.01183,0.01862l-4.96423,4.71602l-0.0005,0.00308l-0.01001,0.0069l-0.20661,0.19628l-0.43379,0.24538l-0.41027,0.28295l-0.26683,0.10006l-0.01059,0.00599l-0.00299,-0.0009l-5.90524,2.21446l-0.02405,0.0298l-0.64495,0.055l-0.64311,0.0735l-0.02946,-0.02446l-3.98183,-0.64223l-1.18429,-0.50755l-0.02575,-0.06858l-0.07183,-0.01437l-0.69175,-1.08703l-0.1131,-0.33929l-2.36857,-0.2733l-1.71608,0.11441l-0.24428,-0.04405l-0.1962,0.01196l-0.06369,-0.05883l-0.76385,-0.13774l-0.70571,-1.06383l-0.27053,-0.40579l-0.04693,-0.04335l0.00442,-0.02041l-0.39511,-0.59266l0.27951,-1.25779l0.12953,-0.25907l0.7102,-0.82856l0.03687,-0.08578l0.05396,-0.0202l0.03749,-0.04374l0.00203,-0.00011l0.78635,-1.35824l0.31838,-0.32848l0.27581,-0.36496l0.63105,-0.50891l-1.13156,-0.89582l-0.34929,-0.45362l-4.2742,2.04418l-0.39378,0.08028l-0.37478,0.14507l-1.03627,0.12953l-0.22291,-0.02702l-0.29484,0.05721l-0.15882,-0.1122l-0.60253,-0.07303l-0.56245,-0.74993l-0.73399,-0.5185l0.03428,-0.41444l-0.24951,-0.33269l0.34564,-0.82953l0.04712,-0.56972l-9.00975,2.93341l-2.41629,0.89021l-0.35404,0.03839l-0.41084,0.13325l-0.13736,-0.0738l-0.37872,0.04107l-0.80795,-0.67868l-0.89535,-0.48108l-0.01106,-0.2803l-0.2148,-0.18043l0.16811,-1.00241l-0.04162,-1.05435l0.26442,-0.27422l0.02579,-0.15378l0.35697,-0.24315l0.2472,-0.25635l1.01743,-0.63589l5.16272,-3.35577l0.13558,-0.04665l0.10886,-0.09331l7.77202,-3.88601l0.13032,-0.02896l0.1099,-0.07579l7.23599,-2.7135l0.60967,-0.52257l0.06509,-0.13018l0.09438,-0.00651l0.17434,-0.14943l2.84974,-1.42487l0.23955,-0.05323l0.21366,-0.12068l3.6931,-1.01879l2.65784,-0.88595l0.49763,-0.03828l0.56707,-0.09451l0.06177,0.04614l0.15821,-0.01217l0.34076,0.30489zM312.63032,165.67227l5.48846,-3.2016l0.35913,-0.5746l-2.18293,-0.22978l-4.96478,1.08605l-0.00071,0.03331l0.05764,0.51872l-0.07047,0.08434l-0.00348,0.16333l-0.78569,2.88085z" fill="#000000" stroke-width="0.5"/><path d="M15.43844,216.32955c-3.86599,0 -7,-5.36798 -7,-11.9897v-48.03075c0,-6.62172 3.13401,-11.9897 7,-11.9897h609.12312c3.86599,0 7,5.36798 7,11.9897v48.03075c0,6.62172 -3.13401,11.9897 -7,11.9897zM295.5,176.44953c5.52285,0 10,-4.9568 10,-11.07132c0,-6.11451 -4.47715,-11.07132 -10,-11.07132c-5.52285,0 -10,4.9568 -10,11.07132c0,6.11451 4.47715,11.07132 10,11.07132z" fill="#000000" stroke-width="0"/><text transform="translate(15.1544,173.21011) scale(0.5,0.5)" font-size="40" xml:space="preserve" fill="#ffffff" stroke-width="1" font-family="Playful" font-weight="normal" text-anchor="start"><tspan x="0" dy="0">no ogólnie nie ma mleka, i trzeba to czymś zastąpić. widzisz poziom</tspan><tspan x="0" dy="48px">zapasów na dole? przeciągnij ikonke do miski.</tspan><tspan x="0" dy="48px"> </tspan></text></g></g></svg>