<svg version="1.1" xmlns="http://www.w3.org/2000/svg" xmlns:xlink="http://www.w3.org/1999/xlink" width="165.74797" height="333.26714" viewBox="0,0,165.74797,333.26714"><g transform="translate(-238.75585,-9.34708)"><g stroke="none" stroke-miterlimit="10"><path d="M297.18439,51.07159c5.41377,-1.68816 10.83109,-2.87554 16.44867,-3.21309c0,0.00075 0,0.00113 0,0.00113l0.07149,1.6889c0.16442,0.56357 0.33329,1.13501 0.4977,1.69857c0.7917,10.93068 -17.96351,17.8263 -16.93681,0.47284c0,0 0.01843,-0.2955 -0.08105,-0.64835z" fill="#ffd48d" stroke-width="0.5"/><path d="M299.96723,85.33724c0.0931,-2.09004 -0.96299,-3.17772 -1.85544,-6.21233c-0.40819,-1.38798 0.46355,-2.51304 -0.22183,-3.88379c-0.82436,-1.64873 -1.1966,-4.21885 -2.94421,-5.09265c-0.23005,-0.11503 -0.45757,-0.18984 -0.68236,-0.23288c-0.08273,-0.56358 -0.14569,-1.13917 -0.26011,-1.70015c-0.93408,-1.96967 -0.92009,-6.45206 -2.45112,-7.89641c0.08815,-1.82864 -1.52408,-4.45919 -3.0261,-5.87405c0.02423,-0.11597 0.0455,-0.23566 0.0638,-0.35686c1.7394,-0.66401 3.53911,-1.2444 5.2377,-1.83218c-0.44117,13.50282 9.87951,15.75416 17.08761,11.29925c-0.18219,1.08183 0.20102,2.35838 1.44618,3.24471c0.52897,0.37653 1.35359,0.55682 2.50315,0.6344c-0.24996,0.16239 -0.10594,0.52676 -0.10594,0.52676c0.12693,0.825 0.20876,1.45295 0.51428,2.22178l0.36653,0.61027c0,0 0.25398,0.42269 0.68272,0.16544c0.42874,-0.25725 0.08288,-0.64054 0.08288,-0.64054l-0.33419,-0.55948c-0.26382,-0.65367 -0.30819,-1.27646 -0.41718,-1.98493c0,0 -0.02729,-0.18782 -0.16287,-0.31403c4.9284,0.11592 13.25754,-1.99275 14.7054,-5.16918c6.27213,1.28197 13.76978,-1.40434 17.90812,-7.63911c0.32734,-0.7476 0.65575,-1.49321 0.9831,-2.24082c0.04052,0.37479 0.21501,0.70703 0.35451,1.06081c-1.06753,1.27186 -1.71114,3.69659 -2.15661,5.03589c-0.58711,2.45942 -0.96834,4.91852 -0.96843,7.51063c0.01457,1.39745 -0.62258,3.14717 -1.23422,4.72634c-0.9898,1.21454 -1.56971,3.43662 -2.08161,4.72309c-0.47619,1.19672 -2.10933,1.97907 -2.70325,3.09268c-0.68017,1.27532 -1.72933,4.46279 -2.0912,7.34596c-4.10026,-0.52505 -10.21861,0.35136 -11.86577,0.40115c-4.35657,0.1317 -8.77812,0.07305 -13.18087,-0.36731c-3.96508,-0.39658 -7.98414,-0.34241 -11.96843,-0.40999c-0.41269,-0.007 -0.82044,-0.08576 -1.22424,-0.19248z" fill="#ffd48d" stroke-width="0.5"/><path d="M323.24682,48.13956c0.35064,0.04028 0.70362,0.08262 1.05759,0.12981c6.91072,0.82308 14.3267,1.1524 21.36435,1.21215c-0.09761,0.35489 -0.07718,0.65141 -0.07718,0.65141l0.16061,1.57671c-0.20276,0.40042 -0.40488,0.80587 -0.60764,1.20628c-5.96979,8.9068 -21.8955,9.15533 -21.81217,-4.24119c0,0 0.00077,-0.23704 -0.08557,-0.53518z" fill="#ffd48d" stroke-width="0.5"/><path d="M316.74107,76.46051c-0.73444,0.12255 -1.35383,0.29371 -1.95879,0.42108c0.08486,0.00743 0.16994,0.01266 0.25524,0.01548c1.28634,0.04258 2.52584,-0.01729 3.74335,-0.18291c-0.71006,-0.08449 -1.43105,-0.35523 -2.0398,-0.25365zM325.0046,74.93565c-0.01697,-0.00339 -0.03386,-0.00672 -0.05069,-0.01001c-0.00688,0.01244 -0.01427,0.02426 -0.02208,0.03551c0.0242,-0.00851 0.04845,-0.01701 0.07277,-0.0255zM318.58477,75.17217c-0.24312,0.01212 -0.74965,0.1026 -1.41379,0.23971c1.96175,-0.17352 3.54286,-0.05068 5.44203,-0.63503c-1.32956,0.06647 -2.63344,0.32575 -4.02824,0.39532zM329.90936,76.05347c-0.64745,3.4888 -15.37767,4.34322 -16.92592,4.17068c-1.09371,-0.12188 -4.50186,-0.93043 -5.08242,-1.9464c-0.5158,-0.30442 -0.86181,-0.86589 -0.86181,-1.50818c0,-0.23537 0.04647,-0.45989 0.13073,-0.66489c-0.05011,-0.16289 -0.07709,-0.33593 -0.07709,-0.51525c0,-0.94346 0.74659,-1.71253 1.68119,-1.74867c1.23276,-0.6181 2.82326,-0.69739 4.31794,-1.06707c4.71285,-1.16561 13.23523,-3.20051 17.76112,-0.32479c0.6356,0.40386 0.90661,1.51062 0.55848,2.11983c-0.33332,0.5833 -0.84275,0.89135 -1.44981,1.02488c-0.00444,0.14067 -0.02157,0.29369 -0.05241,0.45986z" fill="#000000" stroke-width="0.5"/><path d="M308.50477,52.52742c-0.05023,0.0231 -0.08649,0.03216 -0.08649,0.03216l-0.55945,0.01578c-1.97785,-1.28681 -0.09687,-2.11648 1.05351,-1.72611c-0.69783,-0.33801 -1.35076,-0.50025 -1.99347,-0.49319c0.06126,0.25566 -0.1458,0.46272 -0.1458,0.46272c-0.71074,0.71031 -1.36265,0.83015 -0.8284,1.7639l-0.07081,-0.19383c0,0 0.30732,0.06146 0.38668,0.33039c0.91944,0.15273 1.84356,0.16646 2.62583,-0.07145c-0.12268,-0.01983 -0.25196,-0.06263 -0.3816,-0.12037zM309.63025,52.06982c-0.02387,0.1234 -0.05966,0.22441 -0.10522,0.30577c0.34404,-0.205 0.43079,-0.48877 0.64391,-0.76646c-0.30136,-0.21485 -0.59255,-0.40155 -0.87572,-0.5605c0.27396,0.21242 0.42902,0.54573 0.33703,1.0212zM311.50712,51.43361c0.0109,0.03272 0.01881,0.06393 0.02406,0.09369c0.05838,0.12018 0.15934,0.42354 -0.1674,0.64137c-0.20227,0.13485 -0.37176,0.10579 -0.49253,0.04033c-0.3796,0.26481 -0.26547,0.65729 -0.86949,1.04576c-1.99178,1.281 -5.59731,0.21466 -7.49121,-0.72509c-0.10361,-0.007 -0.21757,-0.05349 -0.32702,-0.17663c-0.33218,-0.37371 0.04153,-0.70589 0.04153,-0.70589c3.1438,-2.7875 5.62087,-3.0524 8.93816,-0.54402c0.13015,0.02706 0.27081,0.11119 0.34391,0.33047zM303.49037,51.88331c0.39336,0.17099 0.83269,0.33695 1.29592,0.48095c-0.17217,-0.73462 0.19086,-1.18387 0.74624,-1.73168c-0.65363,0.2506 -1.32238,0.66974 -2.04216,1.25073z" fill="#000000" stroke-width="0.5"/><path d="M330.58303,50.67354c0.14238,-0.11426 0.29863,-0.21798 0.46225,-0.305c-0.13612,0.01236 -0.27202,0.02644 -0.40747,0.04218c0.0088,0.10175 -0.02101,0.19397 -0.05478,0.26282zM333.24473,51.10135c0.10854,0.34831 0.11904,0.64782 0.05521,0.90078c0.83194,-0.18438 1.66594,-0.46527 2.49856,-0.83085c0.06405,-0.05593 0.33169,-0.26041 0.61606,-0.05277c-0.00838,-0.02002 -0.01521,-0.03965 -0.02061,-0.05885c-1.03947,-0.49425 -2.3273,-0.72232 -3.67101,-0.7516c0.22107,0.15904 0.40392,0.41503 0.52179,0.7933zM326.94612,51.29172c0.76955,0.37974 1.54934,0.64136 2.33625,0.79544c-0.21166,-0.39237 -0.21089,-0.89338 0.14164,-1.48983c-0.89395,0.17136 -1.74047,0.41002 -2.47789,0.6944zM336.49115,51.89164l-0.20413,0.15699c-3.65141,1.61825 -7.30273,1.70217 -10.76452,-0.40658c0,0 -0.42583,-0.26205 -0.16378,-0.68788c0.14459,-0.23496 0.33904,-0.26049 0.48431,-0.23618c0.08103,-0.08113 0.16759,-0.11961 0.16759,-0.11961c3.11392,-1.36918 8.27182,-1.94727 11.29084,-0.18955l-0.13551,0.9552c0,0 -0.28707,0.19137 -0.54326,0.01773c0.10147,0.27686 -0.13154,0.50987 -0.13154,0.50987z" fill="#000000" stroke-width="0.5"/><path d="M309.01159,70.55968c-0.35355,-0.35356 0,-0.70711 0,-0.70711l0.19486,-0.19006c0.36284,-0.45603 0.79324,-0.85735 1.23486,-1.23759c0,0 0.37963,-0.32539 0.70503,0.05424c0.3254,0.37963 -0.05424,0.70502 -0.05424,0.70502c-0.39443,0.33641 -0.7812,0.6904 -1.10108,1.09836l-0.27232,0.27714c0,0 -0.35356,0.35356 -0.70711,0z" fill="#000000" stroke-width="0.5"/><path d="M312.28954,71.04159c-0.48507,0.12127 -0.60634,-0.36381 -0.60634,-0.36381l-0.13172,-0.58846c0,-0.58399 0,-1.16797 0,-1.75196c0,0 0,-0.5 0.5,-0.5c0.5,0 0.5,0.5 0.5,0.5c0,0.58399 0,1.16797 0,1.75196l0.10187,0.34592c0,0 0.12126,0.48507 -0.36381,0.60634z" fill="#000000" stroke-width="0.5"/><path d="M321.31128,70.20613c0,0.5 -0.5,0.5 -0.5,0.5l-0.76719,-0.1c-0.64897,-0.49455 -1.04241,-1.1017 -1.79237,-1.47115c0,0 -0.44721,-0.2236 -0.2236,-0.67082c0.22361,-0.44721 0.67082,-0.2236 0.67082,-0.2236c0.80869,0.40925 1.2466,1.05227 1.94515,1.56557l0.16719,-0.1c0,0 0.5,0 0.5,0.5z" fill="#000000" stroke-width="0.5"/><path d="M329.36598,70.93187c-0.49214,-0.08829 -0.40385,-0.58043 -0.40385,-0.58043l0.19037,0.00214c-0.45398,-0.52052 -0.92019,-0.94795 -1.42108,-1.37601c0.00325,0.02999 0.04595,0.49661 -0.4342,0.55671c-0.49613,0.0621 -0.55822,-0.43403 -0.55822,-0.43403l-0.02183,-0.34679c-0.19141,-0.45881 -0.50612,-0.90402 -0.92737,-1.16804c0,0 -0.41603,-0.27736 -0.13868,-0.69338c0.27735,-0.41602 0.69338,-0.13868 0.69338,-0.13868c0.34397,0.23946 0.64184,0.5523 0.88724,0.90138c0.27974,-0.16619 0.55707,0.06492 0.55707,0.06492c0.76923,0.64102 1.45461,1.22149 2.11626,1.97541l0.04134,0.83293c0,0 -0.08829,0.49215 -0.58044,0.40386z" fill="#000000" stroke-width="0.5"/><path d="M290.80226,233.06681c0.02133,-2.82686 0.01558,-5.00026 -0.47772,-7.43323c4.96903,0.34263 10.07046,0.48959 14.18046,0.62179c-0.15424,0.59288 -0.08084,1.10675 -0.08084,1.10675c2.75311,19.17548 0.9536,41.75486 -3.22415,60.86253c-0.03761,9.24358 -3.29982,24.59414 1.75419,32.84764c3.33603,5.44794 7.74699,2.09635 12.24889,3.54269c3.63446,1.16765 6.22767,11.03844 0.67548,11.36615c-31.3809,3.97919 -36.01315,2.92111 -31.51864,-32.52977c1.85192,-13.18101 5.22857,-26.44181 6.43986,-39.78545c0.93306,-10.27862 -2.93465,-20.09603 0.00244,-30.59911z" fill="#b5ffb6" stroke-width="0.25"/><path d="M337.54874,295.02578c0.021,-22.57751 -4.60589,-45.75055 -2.91902,-68.21199c1.9414,-0.02143 3.90391,-0.06243 5.84249,-0.12663l0.08913,1.85192c1.65411,5.45584 0.97739,10.10778 0.96882,15.69834c0.00698,7.73908 -1.18956,15.65098 0.42354,23.33222c2.89723,13.79596 11.70617,28.97299 6.47771,42.88709c-1.26182,4.40616 -3.85199,9.4771 1.13808,12.59423c5.79022,3.61697 12.88925,-0.99152 18.90918,-0.081c7.39079,1.11786 7.22048,9.41959 2.25645,12.76981c-1.1165,0.75353 -7.90441,0.09554 -9.3391,0.22597c-4.64181,0.00069 -13.41059,3.04861 -17.53199,1.24705c-10.5039,-4.59151 -7.21924,-33.27509 -6.31527,-42.18699z" fill="#b5ffb6" stroke-width="0.25"/><path d="M321.36244,69.97253c0,-0.25142 0.12642,-0.37642 0.25213,-0.43856c0.24108,-0.62154 0.45907,-1.24488 0.72267,-1.86075c0,0 0.19696,-0.45957 0.65653,-0.26261c0.45957,0.19696 0.26261,0.65653 0.26261,0.65653c-0.29674,0.69145 -0.53407,1.3933 -0.81291,2.09109l-0.58103,0.3143c0,0 -0.5,0 -0.5,-0.5z" fill="#000000" stroke-width="0.5"/><path d="M283.93782,311.93158c4.39858,-1.61943 11.55911,-0.86224 15.15666,0.03715c0.36807,0.09202 0.79793,0.15175 1.25277,0.20797c-0.78809,-7.96866 0.82489,-17.51419 0.85129,-24.00203c4.17775,-19.10767 5.97558,-41.58717 3.22247,-60.76265c0,0 -0.07341,-0.51387 0.08083,-1.10675c-4.11,-0.13221 -9.1989,-0.27995 -14.16793,-0.62258c0.4933,2.43297 0.49996,4.60619 0.47863,7.43305l-0.00002,-0.00001c-2.93709,10.50308 0.94506,20.31502 0.012,30.59364c-1.21129,13.34364 -4.58237,26.52121 -6.43429,39.70222c-0.40316,3.17993 -0.73323,6.08307 -0.97743,8.73061c0.1701,-0.07428 0.34526,-0.14443 0.52502,-0.21062zM287.80629,316.53855c-0.92066,0.06678 -3.31151,0.62652 -4.75781,0.45671c-1.20568,22.06781 6.08395,22.32746 32.81691,18.93764c5.55219,-0.32771 2.98784,-10.10279 -0.64662,-11.27044c-4.5019,-1.44634 -8.92607,1.90771 -12.2621,-3.54023c-0.75966,-1.24056 -1.33152,-2.64372 -1.75475,-4.16395c-4.35359,0.50573 -11.4794,-0.55873 -13.39563,-0.41973zM346.97014,310.43008c0.44286,-0.12293 0.9967,-0.23151 1.58279,-0.28337c4.94547,-13.81734 -3.75908,-28.93795 -6.63142,-42.61536c-1.6131,-7.68123 -0.40029,-15.60226 -0.40727,-23.34134c0.00857,-5.59056 0.68882,-10.24354 -0.96529,-15.69938l-0.0647,-1.75495c-1.93858,0.0642 -3.89644,0.1038 -5.83784,0.12523c-1.68687,22.46144 2.96303,45.55698 2.94203,68.13449l0.00001,0.00001c-0.37324,3.6796 -1.15751,10.72658 -1.21042,18.05615c3.3102,-1.34208 7.37267,-1.72777 10.59211,-2.62148zM337.57118,318.62858c-0.10922,0.03852 -0.51573,0.19916 -1.0526,0.37775c0.49144,8.35367 2.36205,15.9749 7.35474,18.15733c4.12139,1.80156 12.8743,-1.2468 17.51611,-1.24749c1.43469,-0.13043 8.21447,0.52934 9.33097,-0.22419c4.96403,-3.35022 5.1655,-11.55695 -2.22529,-12.67481c-6.01992,-0.91052 -13.14114,3.70043 -18.93136,0.08346c-3.2099,-2.00512 -3.28507,-4.81899 -2.59434,-7.74424c-3.24417,0.60877 -6.50243,2.25072 -9.39823,3.2722zM345.33809,227.0539c1.77253,5.96436 1.16597,11.06423 1.17616,17.13611c-0.0062,7.37709 -1.2383,15.02485 0.30655,22.34282c3.13269,14.83961 11.98824,30.4706 6.34893,45.53873c-0.44956,1.57752 -1.98684,4.70085 -1.78707,6.27846c0.11295,0.89198 1.67735,0.7355 2.57355,0.80765c7.51132,0.60473 24.01206,-4.46367 26.03685,7.95921c1.76157,10.80796 -11.23848,13.14518 -18.37706,13.79414c-5.72991,-0.00086 -14.30417,3.13951 -19.60227,0.89396c-15.00339,-6.35908 -10.62446,-34.79297 -9.41907,-47.05864c-0.02261,-22.49417 -4.54519,-45.46609 -2.96149,-67.86655c-7.71611,-0.02195 -14.63521,-0.2545 -18.30831,-0.25747c-0.55942,-0.05058 -1.23227,-0.09401 -2.00039,-0.13326c0.03445,0.13308 0.04627,0.21583 0.04627,0.21583c2.76313,19.44724 1.1468,42.64047 -3.20187,62.01353c0.03903,8.58504 -2.92668,21.995 1.09714,29.86816c1.7082,3.34233 10.14506,-1.30754 14.31184,6.48677c3.64121,6.81118 3.73786,14.38668 -5.09229,15.82094c-35.27775,4.35266 -41.7785,0.15523 -37.05109,-38.14637c1.91214,-13.13947 4.94276,-26.26085 6.41438,-39.53124c1.1351,-10.23582 -3.07261,-20.24841 0.012,-30.79445c-0.02678,-2.77993 0.01686,-4.64023 -0.77197,-7.1912c-2.31954,-0.24718 -4.5162,-0.55638 -6.46139,-0.94858c0.19209,0.40918 0.26017,0.81576 0.13192,1.2005c-1.15624,3.46873 -5.07334,2.73192 -8.03499,2.9435c-1.19574,0.08542 -0.63417,2.33758 -1.22181,3.38246c-1.41802,2.52136 -3.65197,4.80663 -6.75812,5.12295c-2.5928,0.26405 -3.17128,-1.2608 -4.86786,-2.47136c-0.63273,-0.45147 -1.28303,0.94627 -2.0371,1.13479c-1.82643,0.4566 -3.65246,-1.29356 -4.64834,-2.60392c-1.07645,-1.41638 -0.86602,-4.96833 -1.7729,-5.94947c-0.25958,-0.28083 -2.15977,0.51032 -2.57896,0.53398c-2.41821,0.13653 -6.66703,-0.66891 -7.716,-3.25316c-1.98413,-4.88814 4.52637,-8.89724 8.5174,-9.55795c0.35295,-0.05843 1.77666,-0.39442 3.04619,-0.50509c-0.61909,-6.42167 -1.14436,-13.60985 -0.17938,-19.91453c0.16653,-1.08799 0.7839,-2.07448 0.94881,-3.16271c0.55105,-3.63611 0.0473,-7.50768 0.2946,-11.17807c0.13274,-1.97011 0.86407,-3.85358 1.32218,-5.77428c0.66801,-2.80076 0.61228,-5.33215 1.63247,-8.09703c3.89055,-15.4887 2.68505,-37.62155 14.03865,-50.13785l0.07957,-0.67285c1.69914,-1.95256 4.02055,-3.78308 6.58817,-4.10995c0.46927,-0.05974 2.87142,0.73574 3.57107,-0.17696c0.41239,-0.53797 0.26046,-1.36187 0.6193,-1.93694c2.11739,-3.39329 6.92363,-6.08415 10.74185,-7.01848c1.67039,-0.40875 3.58099,0.32567 5.14418,-0.39107c1.02754,-0.47114 0.49518,-2.61001 0.48372,-3.07176c-0.05837,-2.35226 -0.43521,-4.58999 -0.58382,-6.83894c-0.58614,-0.25789 -1.01999,-0.57466 -1.09744,-0.96188l-0.92221,-2.46303c0.62364,-0.77108 1.03156,-1.90472 1.62882,-2.72162c0.15541,-0.52249 0.27096,-1.02612 0.26103,-1.43278c-0.02091,-0.85634 -1.66452,-2.77799 -1.95936,-3.88972c-0.32475,-1.22454 0.35172,-4.14238 -0.71843,-4.98227c-0.97415,-0.76455 -2.55241,0.87815 -3.69371,0.3976c-4.97445,-2.0945 -2.58814,-5.67097 -4.93027,-7.77947c-1.95988,-1.76437 -2.78996,-2.86841 -3.40354,-5.32271c-0.40606,-1.62424 -1.50454,-7.43772 -0.17955,-8.80896c0.71353,-0.73844 3.0409,-1.36193 3.37963,-1.8893c0.33456,-0.52087 0.49417,-6.91401 0.54231,-8.19254c0.02224,-0.5908 0.10233,-1.4438 0.2697,-2.35681c-0.03747,-0.05106 -0.07345,-0.10654 -0.10779,-0.16664c-0.73685,-0.43488 -1.23116,-1.23699 -1.23116,-2.15454c0,-0.94051 0.51935,-1.75972 1.28691,-2.18648c4.12419,-6.84687 12.68525,-19.81752 17.3558,-22.53518c3.6221,-2.1076 7.91696,-1.71453 11.88891,-2.76095c5.09147,-1.34136 11.16352,-3.35043 16.52321,-1.43625c9.91694,3.54176 20.91994,19.71245 23.15281,29.88c0.32342,1.47274 1.14636,6.17484 0.99429,9.95829c1.34758,0.10677 2.67807,0.68312 3.56425,1.717c1.54219,1.79923 1.80839,5.58017 1.74025,7.81307c-0.35523,11.64109 -10.13349,13.84178 -14.91378,21.42924c-2.08146,3.30379 -0.36152,11.45614 -4.48993,10.63743c-0.23453,0.26506 -0.49532,0.54156 -0.78372,0.82996c-0.37505,0.37505 -1.61528,0.58451 -2.95416,0.72904c0.31168,0.35173 0.4618,0.68198 0.4618,0.68198c1.24579,2.74184 2.58488,6.06029 4.96697,8.05952c2.59164,2.17511 6.35414,2.00824 9.43193,2.53163c6.32124,1.07494 12.44367,3.89878 16.41709,8.94696l1.32535,2.09583c0,0 0.43694,0.69911 0.40753,1.5453c10.75718,11.82035 20.98393,33.0548 22.44508,47.29808c0.2289,2.11464 0.97032,4.14839 1.25678,6.25601c0.36927,2.71688 -0.10686,5.5575 0.58208,8.2731c0.95609,3.76864 2.93766,7.69892 2.91902,11.66753c-0.02184,4.65189 -3.2345,8.11248 -4.52749,12.40099c-0.78726,2.61111 -0.39591,4.95905 -0.53595,7.64861c-0.1546,2.96911 -0.37557,5.79054 -0.19641,8.70442c6.61671,1.04991 13.8702,9.49958 12.865,15.61219c-0.61843,3.76067 -6.06077,2.67452 -8.48879,2.63311c-0.68653,-0.01171 -2.11449,-1.32229 -1.95303,-0.65491c2.0403,8.43326 1.29419,8.87018 -6.23505,9.61572c-1.41418,0.14003 -3.28785,0.8293 -4.59723,0.04367c-0.7021,-0.42126 -3.34388,-4.28905 -3.50774,-4.31654c-1.95982,-0.32871 -8.15378,6.07208 -11.94677,2.56581c-3.74301,-3.46007 -3.44565,-5.76209 -2.29514,-10.32989c0.23483,-0.93232 -1.88792,-0.7868 -2.39917,-1.60105c-1.14684,-1.82653 -1.69062,-3.72395 -0.95009,-5.89162c0.77954,-2.28182 8.74494,-10.34215 11.83214,-8.60477c0.07882,-0.2926 0.17221,-0.47939 0.17221,-0.47939l0.05234,0.48549c0,-6.78408 0.77547,-13.53646 1.60066,-20.23515c1.69426,-13.33543 -8.14127,-21.57005 -10.7305,-34.33959c-0.53966,-2.66148 -0.45463,-5.3819 -0.28396,-8.10942c-0.58337,1.5512 -1.17665,3.10626 -1.82618,4.66254c-1.25223,5.49319 -2.82589,35.80613 -2.04705,40.9613c0.877,5.80486 6.85069,6.34133 6.17194,14.0236c-0.05415,2.77025 0.41981,4.91781 -2.17617,7.07313c-2.98019,2.47432 -10.6617,3.64439 -19.42425,4.16093zM253.02696,218.78206c-0.07697,0.07451 -0.16278,0.14011 -0.25964,0.19459c-2.48845,1.39978 -5.78167,0.03819 -7.96838,2.45283c-0.20874,0.23049 -0.7208,0.41886 -0.60712,0.70831c1.21358,3.09007 10.0661,-4.35893 11.38539,-2.88443c2.48559,2.77801 -0.32224,3.77108 -0.94161,6.37825c-0.124,0.52194 -0.00984,4.08311 0.44177,3.78097c1.07175,-0.71705 0.03378,-7.85607 3.91337,-5.63915c1.91928,1.09673 2.13654,8.72036 4.17307,7.83888c4.19081,-1.81393 -0.04487,-4.99375 1.2987,-7.00911c1.03478,-1.55217 1.54852,-1.97896 3.3898,-1.72949c1.02127,0.13837 3.63674,1.38756 3.04339,0.54492c-1.03309,-1.46713 -4.39854,-2.865 -7.3122,-4.28214c-0.30122,0.13096 -0.66791,0.21067 -1.11432,0.21067c-2.05946,0 -2.42237,-1.69656 -2.48632,-2.29448c-0.86394,-0.69066 -1.32296,-1.3953 -1.08028,-2.12335c0.21747,-0.65243 0.58461,-1.09743 1.06599,-1.37172c-0.0238,-6.80897 -0.50929,-13.47783 0.98611,-20.22492c1.34078,-10.82106 1.35281,-22.90467 4.14985,-33.38957c1.50391,-5.63751 4.93155,-10.56671 5.63718,-16.46464c0,0 0.30838,-2.46713 2.77044,-2.1731c0.75428,-0.86153 2.07611,-2.22489 2.36779,-2.98561c1.7692,-4.61423 1.44419,-10.17096 1.23464,-14.99045c-0.12318,-2.83321 0.24911,-3.94616 -1.29612,-6.36155c0,0 -0.15414,-0.25691 -0.26677,-0.64621c-0.56349,-0.02614 -1.10451,0.06845 -1.67347,0.52148c-0.00085,0.59457 -0.25455,1.10453 -0.47339,1.43399l-0.02365,1.0577c0,0 -0.20761,2.49137 -2.69898,2.28375c-0.03221,-0.00268 -0.06398,-0.00575 -0.09529,-0.00919c-8.64238,11.95103 -7.76453,32.58942 -11.10736,46.01032c-3.02933,7.93351 -1.85918,16.09639 -3.07616,24.28888c-0.16172,1.08871 -0.77137,2.07646 -0.94881,3.16271c-0.31177,1.90854 0.12769,3.87053 0.02167,5.80145c-0.26051,4.74471 -0.17163,9.38997 0.3087,14.14436l0.01241,0.8813c0,0 0,2.48583 -2.47877,2.49994c-0.08246,0.14276 -0.17726,0.2731 -0.29158,0.38378zM269.57066,200.41841c-0.00656,-8.91034 4.31399,-17.14515 4.24128,-25.5645c-0.05072,-5.872 -1.70347,-11.4837 -2.73127,-17.19004c-0.42919,1.14177 -0.81739,2.30131 -1.12619,3.49487c-2.7015,10.4416 -2.71821,22.27138 -4.07319,33.02733c-1.47454,6.61759 -0.93921,13.16992 -0.91291,19.85894c1.48807,0.60622 3.0686,1.4775 4.53525,2.39984c-0.76423,-5.16879 0.39658,-12.07192 0.06703,-16.02644zM366.68571,228.82188c-0.60872,1.18797 6.34105,-1.39897 6.17031,1.67435c-0.14356,2.58408 -5.31726,6.86711 -3.02014,9.32502c0.9921,1.06155 1.16849,0.49554 2.27166,0.24541c1.81079,-0.41057 3.67147,-0.42707 4.49136,-2.39831c0.87807,-2.11113 1.07984,-7.17983 4.68129,-6.51533c5.1288,0.94632 1.46581,10.46168 4.03458,10.62057c11.3456,0.70174 -3.61485,-12.78657 2.67772,-14.53892c3.57182,-0.99467 6.09408,5.83027 11.45593,5.24935c0.53871,-0.05837 -2.54205,-3.87853 -2.74963,-4.05438c-2.75865,-2.33692 -4.97108,-2.69903 -7.92079,-4.43503c-0.0248,-0.00996 -0.0494,-0.02033 -0.0738,-0.03106c-0.61357,-0.06942 -2.27601,-0.44564 -2.27601,-2.48429c0,-0.42702 0.07294,-0.78109 0.19389,-1.07469c-0.27933,-3.40257 -0.05791,-6.67334 0.12548,-10.11933c0.16484,-3.09742 -0.17835,-5.76061 0.72913,-8.79748c1.05325,-3.52468 4.35681,-7.26859 4.3281,-11.00305c-0.02702,-3.51493 -1.94495,-7.11302 -2.77385,-10.47143c-0.72223,-2.92619 -0.28402,-5.8901 -0.68301,-8.80553c-0.2947,-2.15339 -1.02808,-4.23525 -1.27339,-6.39482c-1.34242,-13.82788 -12.14756,-35.59537 -22.68887,-46.06473c-1.50707,1.98408 -0.40411,3.55973 -0.0165,6.67439c0.63032,5.06488 2.61847,9.85956 4.55485,14.7005l0.85786,1.69642c0,0 0.80039,1.60077 -0.30766,2.77069c0.83022,6.08414 -0.8907,12.21047 0.40555,18.23883c2.88416,13.41312 12.54494,21.51203 10.77591,35.87255c-0.82393,6.4851 -1.56205,13.04568 -1.56205,19.61498l-0.58021,1.75058c0,0 -1.11803,2.23606 -3.3541,1.11803c-0.13877,-0.06939 -0.26463,-0.14308 -0.37864,-0.22027c-1.09877,2.63583 -6.81968,5.36816 -8.09497,7.857zM363.81585,142.34053c0,0 -0.31293,-0.83446 -0.06688,-1.69377c-1.91066,-4.79698 -3.70745,-9.55591 -4.34235,-14.61326c-0.4699,-3.74299 -1.89301,-6.22872 0.39416,-9.93281c0.48645,-0.78782 1.2764,-1.32695 2.00703,-1.91468c-3.06975,-2.65478 -7.17068,-4.1999 -11.17257,-4.85125c-0.88207,-0.14356 -1.77658,-0.26384 -2.67141,-0.3926l-0.35426,1.20234c-1.02676,5.32886 -3.50691,8.37937 -6.94529,12.2813c-1.66372,1.88801 -2.36975,4.81363 -4.01303,6.60698c-1.83697,2.00472 -3.88476,2.33616 -6.3222,3.1519c-28.53263,2.51925 -26.42546,-3.17274 -40.95117,-23.13868c0,0 -0.29578,-0.4067 -0.43962,-0.98794c-0.863,0.40953 -1.66465,0.80881 -1.91715,0.95815c-3.25578,1.9256 -3.49489,4.88423 -6.29662,6.54673c1.23333,2.56137 1.24868,4.40595 1.38575,7.5586c0.23761,5.46497 0.54037,11.87478 -1.59431,17.07106c-1.43646,3.49665 -3.90508,5.01892 -4.84332,8.86404l-0.39291,1.3792c0.13473,8.26803 3.59001,16.07255 3.53226,24.41807c-0.05941,8.5832 -4.2385,16.4109 -4.24559,25.35671c0.31214,3.74571 -1.72796,14.90746 0.61424,17.85013c2.02241,2.5409 31.60591,3.13082 36.37085,3.56672c7.99497,-0.00696 50.64501,1.2607 50.43222,-6.57422c0.63745,-6.80473 -4.89455,-6.49603 -6.08686,-12.85149c-0.89033,-4.7458 1.03044,-38.43425 2.19638,-43.43591c2.12002,-5.09643 3.68426,-10.1932 6.14323,-15.1788c-0.12149,-0.41733 -0.26097,-0.8329 -0.42056,-1.24652zM329.32371,127.28678c0.65139,-0.21579 2.95986,-0.79299 3.57914,-1.56302c1.54917,-1.92626 2.31153,-4.65121 4.00234,-6.59482c2.79248,-3.20998 5.03754,-5.40732 5.78502,-9.87886l0.367,-1.31517c-1.49146,-0.47073 -2.91537,-1.147 -4.20722,-2.19792c-3.02132,-2.45782 -4.78744,-6.42345 -6.34886,-9.85721c0,0 -0.5701,-1.25422 0.06721,-2.32373c-7.43403,1.41222 -15.14484,-0.33774 -22.59472,-0.56004c-3.56867,-0.10649 -6.40734,0.32233 -9.47915,-0.05788c0.60964,4.70873 2.04874,9.93156 -2.3391,12.98017c-1.2472,0.86654 -2.77376,0.83785 -4.26275,0.83876c12.56522,17.49609 10.00141,22.50611 35.4311,20.52973zM301.22839,85.49599c3.98429,0.06759 7.98293,-0.00007 11.94801,0.39651c4.40275,0.44036 8.78798,0.5003 13.14454,0.36861c1.64716,-0.04979 7.74753,-0.913 11.84778,-0.38796c0.36187,-2.88317 1.40301,-6.0579 2.08317,-7.33321c0.59393,-1.11361 2.22449,-1.88847 2.70068,-3.08519c0.5119,-1.28647 1.09031,-3.49888 2.0801,-4.71342c0.61163,-1.57917 1.24907,-3.32017 1.23449,-4.71761c0.00009,-2.59212 0.38424,-5.03936 0.97135,-7.49877c0.44547,-1.3393 1.09144,-3.75878 2.15897,-5.03064c-0.1395,-0.35378 -0.22598,-0.73349 -0.2665,-1.10828c-0.32734,0.7476 -0.65469,1.49521 -0.98203,2.24282c-4.13834,6.23478 -11.72312,8.96996 -17.99525,7.68799c-1.44786,3.17643 -9.6902,5.28172 -14.6186,5.16581c0.13558,0.12621 0.16409,0.31152 0.16409,0.31152c0.10899,0.70847 0.15711,1.30253 0.42093,1.9562l0.33121,0.54892c0,0 0.25725,0.42874 -0.1715,0.68599c-0.42874,0.25725 -0.68599,-0.1715 -0.68599,-0.1715l-0.36957,-0.61905c-0.30552,-0.76883 -0.38652,-1.42351 -0.51345,-2.2485c0,0 -0.05063,-0.32913 0.19933,-0.49151c-1.14956,-0.07758 -2.06667,-0.29578 -2.59564,-0.67231c-1.24516,-0.88633 -1.54074,-2.11646 -1.35855,-3.19829c-7.2081,4.45491 -17.61098,2.14664 -17.16981,-11.35618c-1.6986,0.58777 -3.41217,1.21854 -5.15156,1.88254c-0.0183,0.12121 -0.03935,0.24043 -0.06358,0.3564c1.50202,1.41485 3.11683,4.03903 3.02868,5.86767c1.53102,1.44435 1.51946,5.91334 2.45354,7.88302c0.11442,0.56098 0.17741,1.13315 0.26014,1.69673c0.22479,0.04304 0.45229,0.11733 0.68234,0.23236c1.74761,0.8738 2.118,3.43213 2.94236,5.08086c0.68538,1.37076 -0.18926,2.48808 0.21893,3.87606c0.89245,3.03461 1.94152,4.11138 1.84842,6.20141c0.4038,0.10672 0.81026,0.18401 1.22296,0.19101zM347.67109,45.56982v-0.09327c0.00389,-2.13164 -1.95419,-2.98957 -1.95862,-5.03645c0,-2.07605 -3.11268,-4.14759 -5.31083,-5.92486c1.90373,4.08165 -3.37212,6.29395 -4.54846,-2.95982c-2.57684,-4.38765 -8.86038,-0.96802 -12.86432,-0.96802c-4.30707,-0.0067 -9.90414,4.09292 -13.85693,1.24445c-1.18787,-0.4968 -5.25437,9.67364 -4.27001,-0.46361c0.06052,-0.24652 -8.88183,1.81619 -7.88027,4.08459c0,0 0.13736,0.48076 -0.3434,0.61812c-0.01574,0.00449 -0.03111,0.00833 -0.04612,0.01154c-1.05963,3.08863 -3.61287,5.12038 -3.60174,9.11425c0,1.19896 0.06782,2.38511 0.08779,3.57818c2.50592,-0.855 4.98571,-1.6182 7.46883,-2.26189c-0.10634,-0.06959 -0.20013,-0.19236 -0.20013,-0.40891c0,-0.5 0.5,-0.5 0.5,-0.5l0.04181,0.00301c0.13651,-0.01502 0.27149,-0.03139 0.40514,-0.04912l0.29964,-0.38616c0.11745,-0.05695 0.23357,-0.11579 0.3484,-0.17645c-0.00538,-0.00277 -0.01074,-0.00566 -0.01609,-0.00867c-0.30106,0.05819 -0.60231,0.11539 -0.90359,0.17243c-0.13862,0.03741 -0.25589,0.0719 -0.34464,0.10344l-0.61002,0.24416c0,0 -0.29422,0.11771 -0.50791,-0.06852c-0.75777,0.14757 -1.5142,0.30238 -2.26684,0.47735l-0.20971,0.01298c0,0 -0.34986,0 -0.46427,-0.29265c-0.81533,0.208 -1.61553,0.43634 -2.39012,0.65945l-0.23387,0.01924c0,0 -0.5,0 -0.5,-0.5c0,-0.5 0.5,-0.5 0.5,-0.5l-0.04085,0.01924c1.705,-0.4836 3.49872,-0.98022 5.30968,-1.26152c-0.02423,-0.02307 -0.0481,-0.04987 -0.07137,-0.08089c-0.3,-0.4 0.1,-0.7 0.1,-0.7l0.51047,-0.35769c2.19124,-0.82052 4.13589,-1.79424 6.41126,-2.42629c0,0 0.47141,-0.13095 0.61113,0.33254c0.13284,-0.15323 0.2644,-0.30747 0.39484,-0.46238c0,0 0.32207,-0.38245 0.70453,-0.06038c0.38245,0.32207 0.06038,0.70452 0.06038,0.70452c-0.45446,0.53967 -0.92196,1.06975 -1.40895,1.57899c0.34874,-0.06596 0.69932,-0.12534 1.05229,-0.17635c0,0 0.42414,-0.06059 0.54327,0.32302c1.05061,-0.30075 2.07833,-0.6615 3.14758,-0.98251c0,0 0.47891,-0.14368 0.62259,0.33523c0.03686,0.12287 0.03274,0.22369 0.00624,0.30566c0.44723,-0.07886 0.89302,-0.16549 1.33654,-0.26405c0,0 0.48809,-0.10847 0.59656,0.37963c0.07959,0.35815 -0.16201,0.51189 -0.2963,0.56838c-0.0847,0.26396 -0.38917,0.32104 -0.38917,0.32104c-0.04692,0.00879 -0.09383,0.0176 -0.14077,0.02641c0.01502,0.02872 0.02861,0.06065 0.04043,0.09611c0.15812,0.47434 -0.31623,0.63245 -0.31623,0.63245c-0.30528,0.1017 -0.61522,0.18709 -0.92894,0.25842c0.00649,0.02799 0.01131,0.05811 0.01417,0.09054c4.14193,-0.35914 8.40839,-0.29631 12.92415,0.30588c4.37084,0.52871 8.9199,0.8459 13.45214,1.01804c-0.63047,-0.38297 -1.36849,-0.6055 -2.08687,-0.82868l-0.03848,0.0302c-1.52564,0.42803 -3.23264,0.09461 -4.84018,-0.545c-0.81351,0.11258 -1.63035,0.19963 -2.45626,0.17855c-0.062,-0.00158 -0.12448,-0.00476 -0.18743,-0.00939c-0.42304,0.06592 -0.84492,0.13182 -1.2652,0.19683c0,0 -0.49418,0.07603 -0.57021,-0.41816c-0.0088,-0.0572 -0.00996,-0.10879 -0.00513,-0.1553c-1.04447,-0.27455 -2.10082,-0.54182 -3.00987,-0.21845c0,0 -0.47434,0.15811 -0.63245,-0.31623c-0.15812,-0.47434 0.31623,-0.63246 0.31623,-0.63246c1.6984,-0.53915 3.39243,0.40871 5.12331,0.54026c0.23829,-0.03688 0.47689,-0.07377 0.71573,-0.11053c-0.52373,-0.29075 -1.01981,-0.5958 -1.4756,-0.89466c-0.28258,-0.07276 -0.56655,-0.14516 -0.85231,-0.21628c0,0 -0.48507,-0.12127 -0.3638,-0.60634c0.12127,-0.48507 0.60634,-0.36381 0.60634,-0.36381c0.22709,0.05701 0.45306,0.11501 0.67814,0.17348c0.18718,-0.01763 0.34651,0.08859 0.34651,0.08859c0.00155,0.00104 0.00311,0.00208 0.00467,0.00312c0.15371,0.04032 0.30705,0.08074 0.46008,0.12107c0.29744,-0.26961 0.63184,-0.00209 0.63184,-0.00209c0.11356,0.09441 0.2326,0.18104 0.35652,0.26075c0.96145,0.24797 1.91606,0.47815 2.88032,0.64767c-0.14766,-0.04513 -0.29328,-0.09268 -0.43609,-0.14362c0,0 -0.47087,-0.16817 -0.30271,-0.63904c0.16817,-0.47087 0.63904,-0.30271 0.63904,-0.30271c1.30892,0.46803 2.77659,0.66996 4.01226,1.27826l0.16243,-0.05279c0,0 0.14656,0 0.28099,0.07935c0.13551,-0.01324 0.2716,-0.02863 0.40832,-0.04626c0.09744,-0.0331 0.17926,-0.0331 0.17926,-0.0331l0.00144,0.00853c0.00812,-0.00116 0.01623,-0.00233 0.02436,-0.0035l-0.00333,0.12863l0.14475,0.86132c-0.29678,0.04187 -0.5906,0.07376 -0.88182,0.09657c0.05925,0.05097 0.1099,0.12248 0.13539,0.22281c0.70307,0.23111 1.394,0.48797 2.01335,0.89192l-0.08303,-0.0831c0,0 0.5,0 0.5,0.5c0,0.16481 -0.05433,0.27529 -0.12716,0.34936c2.91967,0.0974 5.82635,0.13654 8.66778,0.13524c-0.24054,-0.13289 -0.24053,-0.43986 -0.24053,-0.43986zM305.86068,31.41806c-0.92831,9.06191 0.36239,-1.78663 3.751,-0.46361c3.67194,2.60187 9.31804,-1.36131 13.37718,-1.36705c4.62801,0 10.87778,-3.58877 13.81019,1.64348c0.94747,6.11511 4.96931,6.14788 1.95588,2.55132c-0.29243,-0.32576 0.00976,-0.346 0.63899,-0.13302c-0.15136,-0.14211 -0.29122,-0.28175 -0.41711,-0.41872c-0.40327,-0.43876 0.44036,-0.18435 0.51655,-0.1226c0.22695,0.27394 0.42091,0.54472 0.58464,0.80997c2.31937,1.01182 6.63448,3.75422 6.63448,6.52226c-0.0035,1.44728 1.18075,2.38238 1.70923,3.74302c-0.53434,-2.69824 -1.27904,-4.96846 -1.84204,-9.00558c-0.27085,-1.94216 -2.11222,-3.20997 -3.09489,-4.75417c-2.99258,-4.70263 -9.59806,-14.40959 -15.33301,-15.71571c-0.51189,-0.11658 -7.46192,0.11038 -7.541,0.11456c-2.53091,0.13398 -4.77829,1.6264 -7.26181,1.9563c-11.34637,1.50723 -10.5784,2.73795 -16.81668,11.66323c-2.34185,3.35055 -4.51048,6.99239 -6.95315,10.23081c0.57125,3.02006 -0.26668,8.56553 -0.64704,11.58538c1.05674,-0.39357 2.10618,-0.77391 3.15044,-1.13904c-0.01065,-1.30899 -0.09213,-2.60822 -0.09213,-3.92216c0.01078,-4.39328 3.45669,-6.82043 3.92404,-10.43489c0,0 0.06599,-0.39593 0.43446,-0.41917c1.74692,-2.79809 9.2724,-5.61211 9.5118,-2.92462zM348.7234,45.9359c-0.01716,-0.11846 -0.03478,-0.23551 -0.05285,-0.3513c-0.00312,0.0544 -0.02411,0.24678 -0.16537,0.37234zM300.15387,43.87007l-0.11286,0.0955c0.28172,-0.0334 0.56362,-0.06081 0.84541,-0.0814c1.64351,-0.69807 3.08387,-1.50529 4.8984,-1.90093c0.13574,-0.1411 0.26987,-0.2839 0.40254,-0.4281c-2.1222,0.62437 -3.96055,1.53638 -6.03349,2.31492zM305.49989,44.73246c0.05106,0.04005 0.09773,0.09613 0.13441,0.17379l0.17152,-0.00695c0.48437,-0.03018 0.96778,-0.09196 1.45127,-0.16939c-0.43785,-0.0153 -0.87513,-0.0368 -1.30979,-0.05931c-0.14911,0.0211 -0.29825,0.04173 -0.44741,0.06186zM323.30151,61.82193c0.23478,0.019 0.37709,0.23426 0.37709,0.23426l-0.08829,0.90362c0.42387,-0.18826 0.78221,-0.42066 1.03217,-0.71243c0.22925,-0.2676 0.7943,-0.87951 1.42115,-1.48736c-2.85787,-1.68337 -5.03803,-4.52477 -5.83586,-8.60083l-0.19264,0.01917c-0.79674,0.05645 -1.59503,0.09361 -2.39374,0.11502c-0.16566,3.79077 -1.76548,6.94746 -4.06531,9.23835c0.04304,0.0542 0.08411,0.11512 0.12293,0.18304c0.5158,0.30442 0.86181,0.86588 0.86181,1.50817c0,0.12397 -0.01289,0.24493 -0.0374,0.36162c0.02083,0.73485 0.73758,0.88772 1.59391,0.8293c-0.21666,-0.05514 -0.42758,-0.17594 -0.6174,-0.37893c-0.37917,-0.15451 -0.45948,-0.43551 -0.33155,-0.71206c-0.00113,-0.06276 0.00491,-0.12452 0.0173,-0.18514c-0.14747,-0.44897 0.46067,-0.98155 1.14254,-1.19459c0.21726,-0.11635 0.42862,-0.20416 0.59686,-0.25732c0,0 0.47725,-0.14914 0.62638,0.3281c0.00271,0.00867 0.00521,0.01723 0.00751,0.02568c0.002,0.0015 0.004,0.00301 0.00599,0.00453c0.20432,0.15597 0.33113,0.33831 0.3948,0.5316c0.14826,0.08676 0.24785,0.24768 0.24785,0.43186c0,0.22284 -0.14578,0.41163 -0.34717,0.47621c-0.1688,0.33604 -0.46546,0.63285 -0.81135,0.80603c0.5865,-0.10677 1.14833,-0.24899 1.52396,-0.31902c1.08089,-0.20149 2.94748,-0.31592 4.39572,-0.77165c-1.21772,-0.02822 -1.89721,-0.62572 -0.16875,-1.51502c0,0 0.32681,-0.09805 0.52148,0.13781zM319.76577,48.68724l0.11264,-0.01132c0.00279,-0.08423 0.02415,-0.43106 0.18816,-0.79236c-1.00353,-0.05759 -1.99487,-0.08725 -2.97584,-0.09059c0.00539,0.0633 0.00539,0.10034 0.00539,0.10034l-0.06734,0.72215c0.01781,0.06345 0.03563,0.12689 0.05344,0.19033c0.89542,-0.01677 1.79057,-0.05422 2.68354,-0.11855zM349.03623,49.91542l0.06534,1.4714c-0.00578,-0.70479 -0.024,-1.35897 -0.05309,-1.97143l-0.12081,0.01045c0.0942,0.27432 0.10856,0.48958 0.10856,0.48958zM323.37799,48.69526c-0.08333,13.39652 15.74692,13.13114 21.7167,4.22433c0.20276,-0.40042 0.40551,-0.80083 0.60826,-1.20125l-0.15897,-1.57011c0,0 -0.01961,-0.29416 0.078,-0.64905c-7.03765,-0.05975 -14.36272,-0.38322 -21.27344,-1.2063c-0.35397,-0.04719 -0.70625,-0.09089 -1.05689,-0.13117c0.08634,0.29814 0.08634,0.53355 0.08634,0.53355zM297.31188,51.73847c-1.0267,17.35345 17.63652,10.4599 16.84482,-0.47078c-0.16442,-0.56357 -0.32883,-1.12713 -0.49325,-1.6907l-0.06734,-1.68367c0,0 0,-0.00037 0,-0.00113c-5.61759,0.33755 -10.95273,1.51256 -16.3665,3.20072c0.09948,0.35285 0.08226,0.64556 0.08226,0.64556zM293.57854,68.37459c-0.97859,-2.07684 -0.90408,-6.23349 -2.44078,-7.84871c-0.06491,-1.77937 -1.30691,-4.10485 -2.71574,-5.51388c-0.03247,0.09173 -0.06811,0.1791 -0.10724,0.26116c-0.50787,1.06498 -3.05939,0.35493 -3.19322,1.5272c-0.53479,4.6843 2.0716,6.63147 3.97103,10.19289c0.38499,0.72186 0.09955,2.80404 0.56327,3.14413c1.20951,0.88706 2.61252,-0.28017 4.1536,-0.27119c-0.07182,-0.49574 -0.13415,-0.99631 -0.23092,-1.49159zM347.71858,58.66474c-0.62146,2.39549 -0.9515,4.8248 -0.95141,7.35898c-0.01038,1.25376 -0.47128,2.70605 -0.98542,4.09695c0.83855,-0.25062 2.30066,0.74794 2.93203,0.54006c4.3668,-1.43777 4.10644,-8.21052 6.01875,-11.40427c0.31041,-0.51841 -0.21032,-3.92175 -0.85445,-4.06987c-0.38265,-0.08799 -1.60913,0.31919 -1.89616,0.12784l-0.12175,-0.13043c-0.03535,0.00172 -0.07114,0.00259 -0.10738,0.00259c-1.02314,0 -1.70631,-0.51057 -2.12227,-1.21302c-0.93406,1.22475 -1.52902,3.54503 -1.91195,4.69117z" fill="#000000" stroke-width="0.5"/><path d="M346.93934,315.31644c-0.69074,2.92525 -0.62854,5.75363 2.58136,7.75875c5.79022,3.61697 13.00277,-0.98155 19.02269,-0.07103c7.39079,1.11786 7.18397,9.36322 2.21994,12.71344c-1.1165,0.75353 -7.91227,0.11025 -9.34696,0.24068c-4.64181,0.00069 -13.45843,3.04081 -17.57982,1.23925c-4.99268,-2.18243 -6.87297,-9.85608 -7.3644,-18.20975c0.53686,-0.17859 0.94412,-0.34097 1.05333,-0.3795c2.8958,-1.02148 6.16968,-2.68307 9.41385,-3.29184z" fill="#ffffff" stroke-width="0.5"/><path d="M301.20289,316.90828c0.42323,1.52024 1.00981,2.92591 1.76946,4.16647c3.33603,5.44794 7.79383,2.13317 12.29573,3.57951c3.63446,1.16765 6.19237,10.97664 0.64018,11.30435c-26.73296,3.38982 -34.10912,3.08009 -32.90344,-18.98773c1.4463,0.1698 3.84165,-0.39665 4.76231,-0.46344c1.91623,-0.139 9.08216,0.90657 13.43575,0.40084z" fill="#ffffff" stroke-width="0.5"/><path d="M374.78889,220.91556c0.11401,0.07719 0.23938,0.15081 0.37815,0.2202c2.23607,1.11803 3.35019,-1.11848 3.35019,-1.11848l0.57963,-1.75062c0,-6.5693 0.73241,-13.03005 1.55634,-19.51515c1.76902,-14.36051 -7.91712,-22.55091 -10.80128,-35.96402c-1.29625,-6.02837 0.43646,-12.16051 -0.39377,-18.24465c1.10805,-1.16992 0.33836,-2.67552 0.33836,-2.67552l-0.85749,-1.69653c-1.93637,-4.84094 -3.9545,-9.73102 -4.58482,-14.7959c-0.38761,-3.11466 -1.48906,-4.69076 0.01801,-6.67484c10.54132,10.46936 21.37669,32.23791 22.71911,46.06579c0.24531,2.15957 0.99187,4.2485 1.28656,6.40189c0.39898,2.91544 -0.01921,5.91763 0.70302,8.84382c0.82891,3.35841 2.73227,6.99355 2.7593,10.50848c0.02871,3.73447 -3.29683,7.49123 -4.35008,11.01591c-0.90748,3.03687 -0.56921,5.70116 -0.73405,8.79859c-0.18339,3.44599 -0.40707,6.7171 -0.12774,10.11966c-0.12095,0.2936 -0.206,0.54841 -0.206,0.97543c0,2.03865 1.66024,2.41518 2.2738,2.4846c0.0244,0.01073 0.04892,0.02111 0.07372,0.03107c2.94971,1.73601 5.1553,2.09975 7.91394,4.43667c0.20758,0.17585 3.31953,4.09102 2.78082,4.14938c-5.36185,0.58092 -7.89354,-6.24179 -11.46535,-5.24712c-6.29257,1.75234 8.66414,15.24103 -2.68146,14.53929c-2.56877,-0.15888 1.0909,-9.67415 -4.0379,-10.62047c-3.60144,-0.6645 -3.80725,4.40401 -4.68532,6.51514c-0.81989,1.97124 -2.68407,1.98731 -4.49486,2.39789c-1.10317,0.25013 -1.2814,0.81582 -2.2735,-0.24573c-2.29712,-2.45791 2.8777,-6.74074 3.02126,-9.32482c0.17074,-3.07332 -6.78514,-0.48784 -6.17642,-1.67581c1.27528,-2.48884 7.01907,-5.31829 8.11783,-7.95412z" fill="#ffd48d" stroke-width="0.5"/><path d="M253.32677,218.34896c2.47877,-0.01412 2.47638,-2.50028 2.47638,-2.50028l-0.02424,-0.782c-0.48032,-4.75439 -0.57281,-9.40022 -0.3123,-14.14492c0.10602,-1.93093 -0.33599,-3.89349 -0.02422,-5.80203c0.17745,-1.08625 0.78749,-2.0739 0.94922,-3.16261c1.21698,-8.1925 0.04896,-16.45304 3.07829,-24.38655c3.34283,-13.4209 2.48383,-34.05936 11.12622,-46.01038c0.03132,0.00344 0.06317,0.00652 0.09538,0.0092c2.49136,0.20762 2.70092,-2.28334 2.70092,-2.28334l0.02347,-1.05775c0.21884,-0.32945 0.47266,-0.83938 0.47351,-1.43395c0.56897,-0.45303 1.11122,-0.54733 1.67471,-0.52119c0.11263,0.3893 0.26712,0.6463 0.26712,0.6463c1.54523,2.41539 1.17553,3.52909 1.29871,6.36231c0.20954,4.81948 0.53872,10.37777 -1.23048,14.992c-0.29168,0.76072 -1.65125,2.21667 -2.40553,3.0782c-2.46206,-0.29403 -2.76782,2.17404 -2.76782,2.17404c-0.70562,5.89793 -4.10282,10.73189 -5.60673,16.36939c-2.79704,10.48489 -2.82334,22.66625 -4.16412,33.48731c-1.4954,6.74708 -1.01146,13.41593 -0.98766,20.2249c-0.48138,0.27429 -0.84978,0.71925 -1.06725,1.37168c-0.24268,0.72805 0.21944,1.33275 1.08337,2.02341c0.06395,0.59792 0.42408,2.2945 2.48354,2.2945c0.44641,0 0.81186,-0.07966 1.11308,-0.21061c2.91366,1.41714 6.27219,2.81594 7.30528,4.28307c0.59335,0.84265 -2.00483,-0.3081 -3.0261,-0.44647c-1.84128,-0.24947 -2.35855,0.17771 -3.39333,1.72988c-1.34357,2.01536 2.89055,5.19527 -1.30027,7.0092c-2.03654,0.88148 -2.25765,-6.74213 -4.17693,-7.83886c-3.87959,-2.21691 -2.84494,4.92188 -3.9167,5.63893c-0.45161,0.30214 -0.55483,-3.35843 -0.43083,-3.88037c0.61937,-2.60717 3.41569,-3.5009 0.9301,-6.27891c-1.31929,-1.4745 -10.1824,5.97211 -11.39598,2.88204c-0.11368,-0.28945 0.43054,-0.5725 0.63929,-0.803c2.18671,-2.41464 5.47272,-1.05488 7.96117,-2.45466c0.09686,-0.05448 0.18243,-0.12013 0.2594,-0.19464c0.11433,-0.11068 0.20888,-0.24106 0.29134,-0.38383z" fill="#ffd48d" stroke-width="0.5"/><path d="M293.84313,106.74989c1.48899,-0.00091 3.01617,0.02437 4.26337,-0.84217c4.38785,-3.04861 2.96165,-8.29562 2.35201,-13.00435c3.07181,0.38021 5.9244,-0.05875 9.49307,0.04774c7.44988,0.2223 15.2149,1.97888 22.64893,0.56665c-0.63731,1.06951 -0.06454,2.32615 -0.06454,2.32615c1.56142,3.43376 3.34148,7.42429 6.3628,9.88211c1.29186,1.05092 2.71675,1.73334 4.20821,2.20407l-0.36682,1.31779c-0.74748,4.47154 -2.99738,6.69265 -5.78986,9.90263c-1.69081,1.94361 -2.46411,4.6835 -4.01328,6.60976c-0.61929,0.77004 -2.935,1.35286 -3.58639,1.56865c-25.42969,1.97638 -22.94229,-3.08293 -35.50751,-20.57902z" fill="#ffd48d" stroke-width="0.5"/><path d="M275.23219,150.42022l0.39341,-1.38065c0.93824,-3.84511 3.4117,-5.3772 4.84816,-8.87385c2.13469,-5.19628 1.84087,-11.61657 1.60325,-17.08155c-0.13707,-3.15265 -0.14997,-4.99927 -1.3833,-7.56064c2.80173,-1.6625 3.04664,-4.62504 6.30241,-6.55064c0.2525,-0.14934 1.05561,-0.54942 1.91861,-0.95895c0.14384,0.58124 0.43956,0.98797 0.43956,0.98797c14.52571,19.96594 12.45819,25.65467 40.99082,23.13543c2.43745,-0.81574 4.49102,-1.14481 6.32798,-3.14953c1.64328,-1.79335 2.35,-4.71863 4.01372,-6.60663c3.43838,-3.90193 5.87296,-6.86343 6.89972,-12.19228l0.40013,-1.2912c0.89484,0.12876 1.79111,0.24999 2.67318,0.39356c4.0019,0.65135 8.11037,2.20171 11.18012,4.85649c-0.73063,0.58773 -1.52077,1.1267 -2.00722,1.91452c-2.28717,3.70409 -0.86008,6.19351 -0.39019,9.9365c0.69367,5.52546 2.78289,10.7068 4.88363,15.95863l0.12574,0.25383c-0.03235,0.12686 -0.04348,0.20537 -0.04348,0.20537l0.00341,0.88646c-2.53456,5.06912 -4.11206,10.26914 -6.26929,15.45504c-1.16594,5.00165 -3.10107,38.73354 -2.21073,43.47934c1.19231,6.35546 6.72171,6.04915 6.08426,12.85388c0.21279,7.83491 -42.47638,6.57876 -50.47135,6.58571c-4.76493,-0.4359 -34.37363,-1.03686 -36.39604,-3.57776c-2.3422,-2.94267 -0.30943,-14.11191 -0.62157,-17.85762c0.00709,-8.94581 4.17686,-16.79255 4.23627,-25.37575c0.05776,-8.34552 -3.39648,-16.17763 -3.53121,-24.44566z" fill="#f5f5f5" stroke-width="0.5"/><path d="M322.81303,61.72167c-1.72846,0.8893 -1.05497,1.49131 0.16276,1.51953c-1.44824,0.45573 -3.35256,0.57691 -4.43345,0.77841c-0.37563,0.07002 -0.94771,0.20879 -1.53421,0.31557c0.34589,-0.17317 0.68117,-0.56215 0.84997,-0.89819c0.20139,-0.06458 0.31334,-0.15928 0.31334,-0.38212c0,-0.18419 -0.10333,-0.34656 -0.25159,-0.43331c-0.06367,-0.19329 -0.19632,-0.37863 -0.40064,-0.5346c-0.00199,-0.00152 -0.00406,-0.00307 -0.00606,-0.00457c-0.0023,-0.00845 -0.005,-0.01713 -0.00771,-0.0258c-0.14914,-0.47724 -0.63281,-0.33275 -0.63281,-0.33275c-0.16824,0.05317 -0.38171,0.13907 -0.59897,0.25542c-0.68187,0.21304 -1.22088,0.67335 -1.07342,1.12232c-0.0124,0.06062 -0.01905,0.12181 -0.01792,0.18456c-0.12793,0.27656 -0.05151,0.55431 0.32766,0.70882c0.18982,0.20299 0.34481,0.40654 0.56147,0.46167c-0.85633,0.05842 -1.58258,-0.10189 -1.60341,-0.83674c0.02452,-0.11668 0.0363,-0.23879 0.0363,-0.36276c0,-0.64229 -0.35319,-1.21356 -0.86898,-1.51797c-0.03881,-0.06792 -0.08063,-0.13021 -0.12367,-0.18441c2.29983,-2.29089 3.92695,-5.5176 4.09262,-9.30837c0.79871,-0.02141 1.61582,-0.06154 2.41257,-0.11799l0.1942,-0.01909c0.79784,4.07607 3.02118,6.98573 5.87904,8.6691c-0.62685,0.60785 -1.19973,1.23309 -1.42898,1.50069c-0.24996,0.29177 -0.61544,0.53128 -1.03931,0.71954l0.02088,-0.97725c0,0 -0.07121,-0.14494 -0.306,-0.16394c-0.19467,-0.23586 -0.52369,-0.13575 -0.52369,-0.13575z" fill="#ffd48d" stroke-width="0.5"/><path d="M349.62651,53.92373c0.41596,0.70245 1.11308,1.21386 2.13622,1.21386c0.03624,0 0.07273,-0.00072 0.10808,-0.00244l0.12274,0.13066c0.28703,0.19135 1.52425,-0.21192 1.9069,-0.12393c0.64413,0.14812 1.18356,3.56766 0.87315,4.08607c-1.91231,3.19375 -1.7024,10.04413 -6.0692,11.4819c-0.63137,0.20788 -2.10921,-0.79654 -2.94776,-0.54593c0.51414,-1.3909 0.96555,-2.85033 0.97593,-4.10409c-0.00009,-2.53418 0.33573,-5.04046 0.95719,-7.43595c0.38293,-1.14614 1.00269,-3.4754 1.93674,-4.70015z" fill="#ffd48d" stroke-width="0.5"/><path d="M293.83563,69.90878c-1.54108,-0.00898 -2.96874,1.16562 -4.17825,0.27856c-0.46371,-0.34009 -0.18376,-2.42241 -0.56875,-3.14426c-1.89943,-3.56142 -4.53122,-5.5989 -3.99643,-10.2832c0.13383,-1.17227 2.70732,-0.4712 3.21519,-1.53618c0.03913,-0.08206 0.07569,-0.16955 0.10816,-0.26129c1.40883,1.40903 2.68781,3.7445 2.75273,5.52387c1.5367,1.61522 1.46132,5.85173 2.4399,7.92857c0.09677,0.49528 0.15563,0.99819 0.22745,1.49393z" fill="#ffd48d" stroke-width="0.5"/><path d="M347.96009,46.02197c-2.84143,0.0013 -5.74959,-0.03306 -8.66926,-0.13046c0.07283,-0.07406 0.03286,-0.21782 0.03286,-0.38263c0,-0.5 -0.40514,-0.46837 -0.40514,-0.46837l-0.01205,0.05211c-0.61934,-0.40395 -1.31047,-0.6602 -2.01354,-0.89131c-0.02549,-0.10034 -0.07629,-0.17137 -0.13554,-0.22234c0.29122,-0.02281 0.58476,-0.05377 0.88154,-0.09564l-0.14531,-0.85914l0.00326,-0.12828c-0.00813,0.00117 0.0813,0.0244 0.07317,0.02556l-0.00143,-0.00856c0,0 -0.08186,0.0002 -0.1793,0.0333c-0.13672,0.01763 -0.2729,0.03341 -0.40841,0.04665c-0.13443,-0.07935 -0.28098,-0.07939 -0.28098,-0.07939l-0.25964,0.02938c-1.23568,-0.60829 -2.70361,-0.80907 -4.01253,-1.27711c0,0 -0.3736,-0.14502 -0.54177,0.32585c-0.16817,0.47087 0.3021,0.64118 0.3021,0.64118c0.14281,0.05095 0.28842,0.09853 0.43608,0.14366c-0.96426,-0.16952 -1.91923,-0.39861 -2.88067,-0.64658c-0.12392,-0.07971 -0.3381,-0.19714 -0.45166,-0.29155c0,0 -0.23939,-0.23637 -0.53683,0.03325c-0.15303,-0.04033 -0.30643,-0.08055 -0.46014,-0.12087c-0.00155,-0.00104 -0.09766,-0.03466 -0.09922,-0.0357c0,0 -0.06484,-0.07347 -0.25203,-0.05585c-0.22508,-0.05847 -0.45119,-0.11608 -0.67827,-0.17309c0,0 -0.48659,-0.11751 -0.60786,0.36756c-0.12127,0.48507 0.27389,0.56267 0.27389,0.56267c0.28576,0.07112 0.65901,0.18856 0.94158,0.26132c0.45579,0.29886 0.95152,0.60461 1.47525,0.89536c-0.23884,0.03677 -0.47851,0.07565 -0.7168,0.11253c-1.73088,-0.13155 -3.43867,-1.06388 -5.13707,-0.52473c0,0 -0.47922,0.1613 -0.3211,0.63564c0.15812,0.47434 0.57996,0.23118 0.57996,0.23118c0.90904,-0.32338 1.9545,-0.04629 2.99896,0.22826c-0.00482,0.04652 0.07295,0.16236 0.08175,0.21956c0.07603,0.49418 0.49386,0.35358 0.49386,0.35358c0.42027,-0.06501 0.83921,-0.12703 1.26225,-0.19296c0.06294,0.00463 0.12515,0.00822 0.18715,0.00979c0.82592,0.02108 1.63959,-0.06055 2.4531,-0.17313c1.60755,0.63961 3.3125,0.97764 4.83814,0.54961l0.03843,-0.03009c0.71838,0.22318 1.54986,0.48129 2.18033,0.86427c-4.53224,-0.17213 -9.09798,-0.4672 -13.46882,-0.9959c-4.51576,-0.60218 -8.85443,-0.67813 -12.99635,-0.319c-0.00286,-0.03243 0.07689,-0.11592 0.0704,-0.1439c0.31372,-0.07134 0.62285,-0.15797 0.92813,-0.25967c0,0 0.39007,-0.10433 0.23196,-0.57867c-0.01182,-0.03546 -0.02572,-0.06789 -0.04074,-0.09661c0.04694,-0.00881 0.17969,-0.06891 0.22661,-0.07771c0,0 0.21854,-0.00594 0.30324,-0.2699c0.13429,-0.05649 0.37477,-0.21223 0.29519,-0.57038c-0.10847,-0.48809 -0.59826,-0.38317 -0.59826,-0.38317c-0.44352,0.09856 -0.88992,0.18373 -1.33715,0.26259c0.0265,-0.08197 0.03007,-0.18427 -0.00679,-0.30714c-0.14367,-0.47892 -0.62345,-0.33786 -0.62345,-0.33786c-1.06925,0.32101 -2.09693,0.68193 -3.14754,0.98268c-0.11913,-0.38361 -0.54374,-0.32472 -0.54374,-0.32472c-0.35297,0.05101 -0.70364,0.11007 -1.05238,0.17602c0.48699,-0.50924 0.95354,-1.0439 1.408,-1.58357c0,0 0.32171,-0.38523 -0.06074,-0.7073c-0.38245,-0.32207 -0.60503,0.05034 -0.60503,0.05034c-0.13045,0.15491 -0.36133,0.32067 -0.49417,0.47391c-0.13972,-0.46349 -0.51182,-0.34417 -0.51182,-0.34417c-2.27537,0.63205 -4.22062,1.60163 -6.41186,2.42215l-0.51058,0.35711c0,0 -0.40033,0.2985 -0.10032,0.6985c0.02326,0.03102 -0.05022,0.0807 -0.02598,0.10377c-1.81095,0.2813 -3.50738,0.75483 -5.21238,1.23843l0.04086,-0.01922c0,0 -0.50016,-0.00065 -0.50016,0.49935c0,0.5 0.49972,0.49893 0.49972,0.49893l0.23385,-0.01932c0.77459,-0.22311 1.57478,-0.45146 2.39011,-0.65946c0.11441,0.29265 0.46404,0.29185 0.46404,0.29185l0.20968,-0.01307c0.75263,-0.17496 1.50894,-0.33019 2.26671,-0.47776c0.21369,0.18623 0.50777,0.06804 0.50777,0.06804l0.51465,-0.21406c0.08875,-0.03154 0.30142,-0.09603 0.44004,-0.13344c0.30129,-0.05704 0.60245,-0.11451 0.90351,-0.17269c0.00535,0.00301 0.0107,0.00587 0.01608,0.00863c-0.11483,0.06066 -0.23099,0.11936 -0.34844,0.1763l-0.29986,0.38551c-0.13365,0.01773 -0.36337,0.06609 -0.49989,0.08111l0.05302,-0.03476c0,0 -0.50025,-0.0007 -0.50025,0.4993c0,0.21655 -0.0002,0.37344 0.10613,0.44303c-2.48312,0.64369 -4.96321,1.40607 -7.46912,2.26107c-0.01997,-1.19306 -0.08947,-2.38504 -0.08947,-3.58399c-0.01112,-3.99387 2.54129,-6.04271 3.60092,-9.13134c0.01501,-0.00321 0.03038,-0.00709 0.04612,-0.01158c0.48076,-0.13736 0.34359,-0.61949 0.34359,-0.61949c-1.00155,-2.26839 7.94536,-4.34563 7.88484,-4.09911c-0.98436,10.13725 3.08483,-0.03798 4.27269,0.45883c3.95279,2.84847 9.6064,-1.27216 13.91346,-1.26546c4.00394,0 10.31808,-3.39362 12.89492,0.99403c1.17633,9.25377 6.45598,7.05227 4.55226,2.97062c2.19815,1.77727 5.312,3.86263 5.312,5.93868c0.00443,2.04688 1.96125,2.91354 1.95735,5.04519l-0.00003,0.09342c0,0 -0.00016,0.30761 0.24037,0.44051z" fill="#ffd48d" stroke-width="0.5"/><path d="M296.39871,34.33849c-0.36847,0.02325 -0.43453,0.41834 -0.43453,0.41834c-0.46735,3.61446 -3.91788,6.0251 -3.92866,10.41838c0,1.31394 0.07872,2.60816 0.08937,3.91715c-1.04426,0.36513 -2.17899,0.79767 -3.23572,1.19124c0.38036,-3.01985 1.2123,-8.58055 0.64105,-11.60061c2.44267,-3.23842 4.611,-6.89963 6.95286,-10.25018c6.23828,-8.92528 5.50342,-10.19441 16.84979,-11.70164c2.48352,-0.3299 4.75243,-1.82467 7.28334,-1.95866c0.07908,-0.00419 7.04719,-0.22556 7.55908,-0.10898c5.73496,1.30613 12.36673,11.0531 15.35931,15.75573c0.98267,1.5442 2.82398,2.82095 3.09482,4.7631c0.563,4.03713 1.30447,6.32083 1.83881,9.01907c-0.52848,-1.36064 -1.80734,-2.32774 -1.80385,-3.77502c0,-2.76803 -4.31689,-5.50015 -6.63627,-6.51197c-0.16373,-0.26525 -0.35778,-0.53419 -0.58474,-0.80813c-0.07618,-0.06175 -0.81988,-0.31274 -0.41661,0.12602c0.1259,0.13698 0.26571,0.27758 0.41707,0.41969c-0.62923,-0.21299 -0.93145,-0.19233 -0.63902,0.13343c3.01343,3.59656 -1.10819,3.56392 -2.05566,-2.55119c-2.93241,-5.23226 -9.17388,-1.61911 -13.80189,-1.61911c-4.05914,0.00573 -9.61434,3.94937 -13.28627,1.3475c-3.38861,-1.32302 -4.77847,9.51322 -3.85016,0.45131c-0.2394,-2.68749 -7.66522,0.12642 -9.41214,2.92451z" fill="#2f1000" stroke-width="0.5"/><path d="M349.334,62.37039c0.49614,-0.06202 0.55816,0.43412 0.55816,0.43412l0.02523,0.6791c-0.85675,0.571 1.01646,-0.0685 1.32942,-0.26386c2.09188,-1.30582 0.8797,-4.3396 -1.2491,-4.33855c0,0 -0.5,0 -0.5,-0.5c0,-0.5 0.5,-0.5 0.5,-0.5c3.10541,0.00146 4.57411,4.26482 1.81405,6.16367c-1.29763,0.89273 -3.11891,0.7808 -2.82771,-0.92025l-0.08417,-0.19609c0,0 -0.06202,-0.49614 0.43412,-0.55816z" fill="#000000" stroke-width="0.5"/><path d="M290.16524,62.63283c0.22361,-0.44721 0.67082,-0.22361 0.67082,-0.22361l0.39167,0.28323c0.71242,1.20852 0.93562,2.82636 -1.21509,2.32465c-1.3406,-0.31273 -4.15127,-4.62243 -2.98838,-5.61948c0.46057,-0.39488 1.1661,-0.3396 1.7338,-0.55353c0,0 0.46816,-0.17556 0.64373,0.2926c0.17556,0.46816 -0.2926,0.64373 -0.2926,0.64373c-0.46419,0.17329 -0.94977,0.29066 -1.43729,0.37915c-0.4413,0.0801 0.43484,0.78684 0.60526,1.20171c0.41144,1.00163 3.45967,4.09168 2.09307,1.84566l0.0186,0.0967c0,0 -0.44721,-0.22361 -0.22361,-0.67082z" fill="#000000" stroke-width="0.5"/><path d="M359.86897,328.74459c0.67295,2.69181 0.63513,7.85927 -3.76814,5.65763c-1.39522,-0.69761 -0.87211,-3.55068 -1.26484,-4.72888c-0.09499,-0.2642 -0.14675,-0.54902 -0.14675,-0.84593c0,-0.49966 0.14659,-0.9651 0.3991,-1.35563c0.19485,-0.32687 0.44775,-0.57085 0.73582,-0.73913c0.39247,-0.25628 0.86138,-0.40524 1.36508,-0.40524c1.05403,0 1.95571,0.65229 2.32338,1.57522c0.15717,0.25318 0.2796,0.53498 0.35635,0.84197z" fill="#000000" stroke-width="0.5"/><path d="M372.82186,331.53984c-2.51878,5.03756 -5.06018,0.16312 -6.10196,-2.40152c-0.16271,-0.21798 -0.29071,-0.46338 -0.37581,-0.72802c-0.00207,0.19871 -0.02732,0.39187 -0.07318,0.57689c0.77319,1.92498 0.55463,3.96698 -2.42668,3.96698c-2.09731,0 -4.06806,-4.74584 -2.15454,-5.83928c0.43488,-0.73685 1.23699,-1.23116 2.15454,-1.23116c1.11352,0 2.05699,0.728 2.38046,1.73399c0.01425,-1.36847 1.12802,-2.47343 2.49986,-2.47343c1.83364,-1.14992 4.75393,5.0823 4.09731,6.39555z" fill="#000000" stroke-width="0.5"/><path d="M296.25914,334.28517c-1.94959,0 -4.8433,-6.18314 -2.59821,-7.46605c0.43488,-0.73685 1.23699,-1.23116 2.15454,-1.23116c1.38071,0 2.5,1.11929 2.5,2.5c0,0.28176 -0.04661,0.55264 -0.13255,0.80534c0.99232,2.48766 1.03025,5.39188 -1.92379,5.39188z" fill="#000000" stroke-width="0.5"/><path d="M303.85258,334.89633c-1.96704,0.65568 -2.49253,-0.41667 -3.16228,-1.58114c-0.47028,-0.81764 -0.75073,-1.74104 -1.17287,-2.58532c-0.18291,-0.34741 -0.28642,-0.74313 -0.28642,-1.16302c0,-0.03305 0.00064,-0.06594 0.00191,-0.09867c0.05637,-2.17179 1.03196,-2.72576 2.20799,-2.38468c0.09517,-0.01099 0.19198,-0.01665 0.2901,-0.01665c1.23706,0 2.26427,0.89851 2.46462,2.07852c1.64085,2.00849 2.42452,4.82843 -0.34305,5.75096z" fill="#000000" stroke-width="0.5"/><path d="M312.90547,334.31702c-0.75115,0.37558 -1.71885,0.12582 -2.51557,-0.13976c-0.90529,-0.30176 -1.16811,-1.78533 -1.55548,-2.56007c-0.18291,-0.34741 -0.28643,-0.74312 -0.28643,-1.16302c0,-0.04028 0.00095,-0.08033 0.00284,-0.12013c0.05781,-1.67329 0.86327,-2.31049 1.86916,-2.30033c0.20067,-0.05192 0.41111,-0.07954 0.62801,-0.07954c1.03039,0 1.91519,0.62337 2.29785,1.51355c1.44777,1.43162 2.06978,3.59421 -0.44038,4.84929z" fill="#000000" stroke-width="0.5"/><path d="M303.25979,101.53147c-2.5,0 -2.5,-2.5 -2.5,-2.5l0.00554,-0.63985c-0.19721,-3.05 0.14811,-5.61519 0.40482,-8.61998c0.04029,-0.47163 -0.1377,-1.00285 -0.16953,-1.48449c-0.08834,-0.31795 -0.15975,-0.64049 -0.21175,-0.9678l-0.39623,-2.57553c-0.02361,-0.138 -0.03591,-0.27987 -0.03591,-0.42461c0,-1.38071 1.11929,-2.5 2.5,-2.5c1.16178,0 2.13847,0.79247 2.41899,1.86634l0.09222,0.32275c0.38266,-0.23787 0.83429,-0.37525 1.31801,-0.37525c1.06038,0 1.96657,0.66018 2.32997,1.59194l0.10874,0.26098c1.19459,-1.89938 2.83772,-3.33492 5.08629,-3.06122c4.49034,0.54659 5.20516,1.81222 4.72473,3.25348c0.31971,-0.14847 0.67606,-0.23134 1.05176,-0.23134c0.15649,0 0.30963,0.01438 0.45815,0.04189c0.82765,-1.15852 2.11708,-1.84182 4.22371,-1.30276c0.56573,0.14476 0.91241,0.55352 1.14659,1.09312l1.75418,-1.59471c0.44478,-0.4074 1.03741,-0.65599 1.68811,-0.65599c0.222,0 0.43723,0.02894 0.64215,0.08324c0.35894,-0.655 1.22149,-1.70287 2.9146,-1.18191c2.38945,0.73521 1.65423,3.12466 1.65423,3.12466c-1.1795,3.75015 -2.1364,8.32541 -1.21898,12.19237l0.94079,2.44605c0.12066,0.29314 0.18721,0.61426 0.18721,0.95093c0,1.38071 -1.11929,2.5 -2.5,2.5c-0.41989,0 -0.81561,-0.10352 -1.16302,-0.28642l-2.37347,-1.18674l0.0196,-0.03921c-0.09056,-0.03288 -0.18055,-0.06769 -0.26994,-0.1046c-2.05373,-0.84798 -3.69966,-2.98801 -4.66673,-5.43093c-0.43678,0.37328 -1.00374,0.59868 -1.62334,0.59868c-0.48845,0 -0.94419,-0.14008 -1.32922,-0.38226v0.90533c0,1.38071 -1.11929,2.5 -2.5,2.5c-1.08491,0 -2.00841,-0.69107 -2.35431,-1.65702l-0.45047,-1.17123c-0.65046,-0.04753 -1.23181,-0.34392 -1.64927,-0.79437c-0.1623,0.08436 -0.33274,0.16396 -0.51156,0.23841c-1.00547,0.4186 -1.86406,0.56634 -2.60141,0.51029c-0.33172,0.16263 -0.70474,0.25394 -1.0991,0.25394c-1.32366,0 -2.40705,-1.0287 -2.49433,-2.33024l-0.0892,-1.15957c-0.23813,0.34137 -0.55928,0.62053 -0.93418,0.80822c-0.08527,1.16505 -0.1235,2.34415 -0.03397,3.64298l0.00554,0.97245c0,0 0,2.5 -2.5,2.5z" fill="#ffd48d" stroke-width="0.5"/></g></g></svg>