<svg version="1.1" xmlns="http://www.w3.org/2000/svg" xmlns:xlink="http://www.w3.org/1999/xlink" width="26.37955" height="25.27456" viewBox="0,0,26.37955,25.27456"><g transform="translate(-306.07737,-174.97132)"><g stroke="none" stroke-miterlimit="10"><path d="M317.97444,189.11719c0,3.07512 1.21751,7.31883 -0.13067,9.27599c-1.25116,1.81632 -3.45357,1.45929 -5.31051,1.45929c-2.5519,0 -4.93124,0.10285 -6.15016,-3.03702c-0.6238,-1.60688 -0.09984,-5.83826 -0.09984,-7.84533c0,-5.92894 4.08331,-10.80882 7.94118,-10.80882c3.85787,0 3.75,5.02694 3.75,10.95588z" fill="#1f1f1f" stroke-width="0"/><path d="M317.97444,189.11719c0,1.94852 0.48883,4.36623 0.50402,6.37413h-12.3528c-0.16836,-1.97135 0.1576,-4.93814 0.1576,-6.52119c0,-5.92894 4.08331,-10.80882 7.94118,-10.80882c3.85787,0 3.75,5.02694 3.75,10.95588z" fill="#1f1f1f" stroke-width="0"/><path d="M317.84377,198.39318c-1.25116,1.81632 -3.45357,1.45929 -5.31051,1.45929c-2.5519,0 -4.93124,0.10285 -6.15016,-3.03702c-0.13488,-0.34745 -0.2161,-0.81761 -0.26056,-1.36145h12.35558c0.01228,1.17629 -0.13515,2.21448 -0.63435,2.93918z" fill="#ffffff" stroke-width="0"/><path d="M324.30987,178.52627c3.85787,0 7.94117,4.87989 7.94117,10.80883c0,1.58305 0.32596,4.54984 0.1576,6.52119h-12.3528c0.01519,-2.00789 0.50403,-4.42561 0.50403,-6.37413c0,-5.92894 -0.10787,-10.95588 3.75,-10.95588z" fill="#1f1f1f" stroke-width="0"/><path d="M320.05618,195.81897h12.35559c-0.04446,0.54385 -0.12568,1.014 -0.26056,1.36146c-1.21891,3.13987 -3.59827,3.03702 -6.15016,3.03702c-1.85694,0 -4.05935,0.35702 -5.31051,-1.45929c-0.4992,-0.72469 -0.64664,-1.76289 -0.63436,-2.93918z" fill="#ffffff" stroke-width="0"/><path d="M324.31102,185.13423c0,2.18496 -5.08054,1.96694 -7.80037,1.62295c-0.1312,0.02126 -0.26583,0.03232 -0.40303,0.03232c-0.447,0 -0.86659,-0.11732 -1.22968,-0.32283c-0.75844,-0.42929 -1.27032,-1.24345 -1.27032,-2.17717c0,-1.38071 1.11929,-2.5 2.5,-2.5c0.35128,0 0.68563,0.07245 0.98895,0.20323c3.19781,-0.85396 7.21446,-0.02206 7.21446,3.1415z" fill="#1f1f1f" stroke-width="0.5"/><path d="M318.50534,183.06223c-0.40597,-0.81193 -0.19642,-8.09091 0.64773,-8.09091c2.07832,0 1.5373,6.25989 1.24278,7.43796c0.01956,0.07805 0.02994,0.15974 0.02994,0.24386c0,0.02101 -0.00065,0.04186 -0.00192,0.06255c-0.03468,0.70625 -0.49835,0.96973 -0.97123,0.9371c-0.00892,0.00024 -0.01787,0.00035 -0.02685,0.00035c-0.36081,0 -0.67699,-0.19109 -0.85286,-0.47758c-0.02526,-0.03613 -0.04791,-0.07394 -0.0676,-0.11333z" fill="#1f1f1f" stroke-width="0.5"/><path d="M332.32079,191.23297c0.08411,1.50902 0.20131,3.31781 0.09157,4.67213h-12.35611c0.01604,-1.45723 0.27633,-3.12561 0.41623,-4.67213z" fill="#ffffff" stroke-width="0"/><g fill="#ffffff" stroke-width="0"><path d=""/><path d="M318.47846,195.86017h-12.3528c-0.10694,-1.25226 -0.01443,-2.90619 0.0673,-4.35196h11.90373c0.14587,1.4573 0.37153,2.99782 0.38178,4.35196z"/></g></g></g></svg>