<svg version="1.1" xmlns="http://www.w3.org/2000/svg" xmlns:xlink="http://www.w3.org/1999/xlink" width="37.48581" height="39.97259" viewBox="0,0,37.48581,39.97259"><g transform="translate(-296.82374,-160.27329)"><g stroke="none" stroke-miterlimit="10"><path d="M317.97445,189.11719c0,3.07512 1.21751,7.31883 -0.13067,9.27599c-1.25116,1.81632 -3.45357,1.45929 -5.31051,1.45929c-2.5519,0 -4.93124,0.10285 -6.15016,-3.03702c-0.6238,-1.60688 -0.09984,-5.83826 -0.09984,-7.84533c0,-5.92894 4.08331,-10.80882 7.94118,-10.80882c3.85787,0 3.75,5.02694 3.75,10.95588z" fill="#1f1f1f" stroke-width="0"/><path d="M317.97445,189.11719c0,1.94852 0.48883,4.36623 0.50402,6.37413h-12.3528c-0.16836,-1.97135 0.1576,-4.93814 0.1576,-6.52119c0,-5.92894 4.08331,-10.80882 7.94118,-10.80882c3.85787,0 3.75,5.02694 3.75,10.95588z" fill="#ffffff" stroke-width="0"/><path d="M317.84378,198.39318c-1.25116,1.81632 -3.45357,1.45929 -5.31051,1.45929c-2.5519,0 -4.93124,0.10285 -6.15016,-3.03702c-0.13488,-0.34745 -0.2161,-0.81761 -0.26056,-1.36145h12.35558c0.01228,1.17629 -0.13515,2.21448 -0.63435,2.93918z" fill="#ffffff" stroke-width="0"/><path d="M324.30987,178.44431c3.85787,0 7.94117,4.87989 7.94117,10.80883c0,1.58305 0.32596,4.54984 0.1576,6.52119h-12.3528c0.01519,-2.00789 0.50403,-4.42561 0.50403,-6.37413c0,-5.92894 -0.10787,-10.95588 3.75,-10.95588z" fill="#ffffff" stroke-width="0"/><path d="M320.05619,195.81897h12.35559c-0.04446,0.54385 -0.12568,1.014 -0.26056,1.36146c-1.21891,3.13987 -3.59827,3.03702 -6.15016,3.03702c-1.85694,0 -4.05935,0.35702 -5.31051,-1.45929c-0.4992,-0.72469 -0.64664,-1.76289 -0.63436,-2.93918z" fill="#ffffff" stroke-width="0"/><path d="M324.31102,185.09221c0,2.18496 -5.08054,1.96694 -7.80037,1.62295c-0.1312,0.02126 -0.26583,0.03232 -0.40303,0.03232c-0.447,0 -0.86659,-0.11732 -1.22968,-0.32283c-0.75844,-0.42929 -1.27032,-1.24345 -1.27032,-2.17717c0,-1.38071 1.11929,-2.5 2.5,-2.5c0.35128,0 0.68563,0.07245 0.98895,0.20323c3.19781,-0.85396 7.21446,-0.02206 7.21446,3.1415z" fill="#ffffff" stroke-width="0.5"/><path d="M332.32079,191.23297c0.08411,1.50902 0.20131,3.31781 0.09157,4.67213h-12.35611c0.01604,-1.45723 0.27633,-3.12561 0.41623,-4.67213z" fill="#ffffff" stroke-width="0"/><g fill="#ffffff" stroke-width="0"><path d=""/><path d="M318.47847,195.87182h-12.3528c-0.10694,-1.25226 -0.01443,-2.90619 0.0673,-4.35196h11.90373c0.14587,1.4573 0.37153,2.99782 0.38178,4.35196z"/></g><path d="M317.98582,189.52951c0,0.74482 0.07154,1.55819 0.16079,2.39103h-11.9831c0.05411,-0.97203 0.11122,-1.87606 0.11122,-2.53808c0,-0.44456 0.02299,-0.88323 0.06716,-1.31438h11.64381c0.00086,0.47929 0.00011,0.96722 0.00011,1.46143z" fill="#ffffff" stroke-width="0"/><path d="M332.25104,189.46367c0,0.5973 0.0464,1.39159 0.09515,2.25508h-11.91724c0.0748,-0.73374 0.13092,-1.44782 0.13092,-2.10802c0,-0.59184 -0.00107,-1.17469 0.00083,-1.74444h11.59119c0.065,0.52173 0.09915,1.05517 0.09915,1.59738z" fill="#ffffff" stroke-width="0"/><path d="M330.66516,183.06127c0.82604,1.49152 1.39169,3.25602 1.54443,5.15789h-11.64994c0.00127,-1.89355 0.02027,-3.66096 0.19954,-5.15789z" fill="#ffffff" stroke-width="0"/><path d="M306.30512,188.21916c0.11009,-1.89001 0.62967,-3.65276 1.41215,-5.15789h10.08955c0.15782,1.51071 0.16806,3.27632 0.16793,5.15789z" fill="#ffffff" stroke-width="0"/><path d="M306.01117,170.55768c-0.60793,-0.16548 -2.95996,0.10121 -2.74517,-1.40232c0.21073,-1.47509 2.6571,-0.72327 3.27462,-0.52816c1.53002,0.48341 3.85184,1.60656 6.23019,2.58159c1.45709,0.05426 2.56038,0.39685 3.55687,1.0269c-0.08125,-0.23056 -0.16002,-0.41777 -0.23609,-0.5457c-0.56382,-0.94825 -3.59418,-3.35913 -2.50835,-4.48517c1.31763,-1.36643 3.26518,1.40084 4.51895,4.28027c0.01599,-0.54242 0.0263,-1.08456 0.03283,-1.62467c0.01539,-1.27295 -0.06162,-2.54764 0.0013,-3.81913c0.09152,-1.84923 -0.90492,-4.62097 0.72051,-5.50756c0.82769,-0.45147 1.22743,-0.33389 1.67889,0.4938c0.39871,0.73096 -0.22097,7.75887 -0.43146,11.00896c0.73944,-2.61446 6.46133,-10.26311 7.83684,-8.54372c0.91974,1.14967 -2.85573,4.17777 -3.3927,4.96113c-0.09374,0.13675 -0.20116,0.32913 -0.32087,0.55954c1.57821,-1.06002 3.07474,-1.95848 3.90196,-2.5555c0.5813,-0.41953 3.79063,-3.62969 4.78342,-3.57744c3.85979,0.20315 -3.30319,4.97404 -3.6099,5.19696c-0.80485,0.58497 -1.71459,1.17965 -2.49938,1.79125c-0.39162,0.30519 -0.96015,0.88692 -1.62405,1.58017c6.03885,-2.36668 12.46527,-2.88063 4.87588,0.23534c-1.92505,0.79037 -3.74569,1.82371 -5.54128,2.87553c-0.16671,0.09766 -0.34218,0.21435 -0.52483,0.34521c6.33675,-1.12747 15.88666,1.23083 6.16488,1.76586c-0.9839,0.05415 -1.97168,0.07933 -2.94905,0.20479c-0.618,0.07933 -5.13894,1.64637 -6.529,1.65814c0.05291,1.62882 -0.1412,3.31909 -0.28032,3.87554c0.01956,0.07805 0.02994,0.15974 0.02994,0.24386c0,0.02101 -0.00065,0.04186 -0.00192,0.06255c-0.03468,0.70625 -0.49835,0.96973 -0.97123,0.9371c-0.00892,0.00024 -0.01787,0.00035 -0.02685,0.00035c-0.36081,0 -0.67699,-0.19109 -0.85286,-0.47758c-0.02526,-0.03613 -0.04791,-0.07394 -0.0676,-0.11333h0.00001c-0.22098,-0.44196 -0.25959,-2.80009 -0.11274,-4.85738c-0.07106,-0.0357 -0.13728,-0.07961 -0.19741,-0.1305c-0.15382,0.09653 -0.33578,0.15233 -0.53078,0.15233c-0.12616,0 -0.24687,-0.02336 -0.35802,-0.06599c-0.40352,0.18517 -0.80727,0.30819 -1.084,0.31769c-3.43678,0.11804 -6.88967,-0.28605 -10.31643,0.00149c-4.12702,0.3463 -8.48904,2.86516 -9.035,0.95431c-0.37293,-1.30525 1.56485,-1.54445 2.24209,-1.67667c4.63954,-0.90575 9.40384,-1.19594 14.13097,-1.19485c0.44716,0.0001 0.89515,-0.00778 1.3428,-0.02616c-2.63441,-0.99436 -5.39,-2.4147 -6.14932,-3.03035c-0.42998,-0.12708 -0.72175,-0.33555 -0.78728,-0.66318c-0.1501,-0.75054 0.54425,-1.1228 1.34367,-1.31839c-0.98075,-0.3595 -1.97167,-0.69168 -2.98272,-0.96689zM313.81745,173.46632c0.78433,0.36015 1.5654,0.7464 2.28296,1.11804c-0.17835,-0.20876 -0.37108,-0.40591 -0.58953,-0.57701c-0.50873,-0.17251 -1.01423,-0.35535 -1.51789,-0.54445c-0.05568,0.00036 -0.11428,0.00153 -0.17554,0.00341z" fill="#ffffff" stroke-width="0.5"/><path d="M322.84668,194.43961l-0.04202,0.21008l-0.05718,0.12071l-0.02897,0.13039l-0.04202,0.08403l-0.04112,0.04798l-0.02125,0.05951l-0.08403,0.12605l-0.03594,0.03267l0.00284,0.02271l-0.13666,0.1682l-0.11635,0.18284l-0.03845,0.00769l-0.03353,0.04127l-0.06651,0.04988l-0.06165,0.07706l-0.05264,0.07895l-0.00085,0.01531l-0.19641,0.16836l-0.19142,0.17402l-0.01529,-0.00105l-0.0756,0.0378l-0.09593,0.07195l-0.12163,0.05121l-0.10698,0.07727l-0.01176,0.0047l-0.09905,0.10895l-0.10296,0.06864l-0.14586,0.1094l-0.02619,0.01103l-0.01911,0.02102l-0.12605,0.08403l-0.03789,0.01353l-0.01681,0.02942l-0.03343,0.00836l-0.0336,0.0392l-0.03943,0.00219l-0.01959,0.03428l-0.31808,0.07952l-0.00537,0.00358l-0.09851,0.03518l-0.0848,0.06124l-0.21008,0.08403l-0.1075,0.01466l-0.09949,0.04326l-0.2521,0.04202l-0.08331,-0.00667l-0.08108,0.02027h-0.29412l-0.04926,-0.01232l-0.05024,0.00735l-0.37054,-0.03705h-0.05294l-0.00935,0.00623l-0.02804,-0.00623l-0.02786,0l-0.22291,-0.05573l-0.2243,-0.04984l-0.02492,-0.01246l-0.01224,-0.00306l-0.04244,-0.00141l-0.29412,-0.08403l-0.11394,-0.06573l-0.12584,-0.0383l-0.21008,-0.12605l-0.01724,-0.01724l-0.02296,-0.0082l-0.10625,-0.07083l-0.18968,-0.11381l-0.35348,-0.35348l-0.00703,-0.00402l-0.001,-0.00402l-0.00293,-0.00293l0.00017,-0.00809l-0.05684,-0.22737l-0.09184,-0.10102l0.00105,-0.01529l-0.07813,-0.15626l-0.00921,-0.04142l-0.02484,-0.0344l-0.08403,-0.21008l-0.00406,-0.02979l-0.01614,-0.02537l-0.12605,-0.37815l-0.00502,-0.06528l-0.00533,-0.00304l-0.00697,-0.02786l-0.01246,-0.02492l-0.04984,-0.2243l-0.05573,-0.22291v-0.02786l-0.00623,-0.02804l0.0048,-0.0072l-0.01108,-0.0277l-0.0125,-0.09167l-0.0396,-0.08361l-0.04202,-0.21008l0.00474,-0.09949l-0.02416,-0.09663v-0.46218l0.00976,-0.03903l-0.01515,-0.0303l0.07576,-0.21213l0.05463,-0.21853l0.02942,-0.01681l0.01353,-0.03789l0.08403,-0.12605l0.14528,-0.13207l0.13207,-0.14528l0.04366,-0.02911l0.05603,-0.05603l0.17257,-0.10354l0.16315,-0.11783l0.08728,-0.03491l0.06226,-0.04669l0.05573,-0.02346l0.00332,-0.01659l0.16001,-0.10182l0.14034,-0.12758l0.05426,0.00374l0.0802,-0.05104l0.23454,-0.07818l0.3188,-0.11955l0.04082,-0.00466l0.03559,-0.02053l0.29412,-0.08403l0.06919,-0.00231l0.06411,-0.02612l0.20485,-0.02926l0.16656,-0.05552l0.16028,-0.01233l0.15595,-0.03899h0.79832l0.15595,0.03899l0.16028,0.01233l0.5042,0.16807l0.09291,0.05913l0.10536,0.03207l0.17715,0.10629l0.21775,0.10888l0.12205,0.10461l0.13784,0.08271l0.29534,0.29534l0.06676,0l0.00935,-0.00623l0.02804,0.00623h0.02786l0.15108,0.03777l0.00229,-0.00115l0.01605,0.00573l0.05349,0.01337l0.2243,0.04984l0.02492,0.01246l0.02786,0.00697l0.00557,0.00975l0.02567,0.01284l0.04798,0.04112l0.05951,0.02125l0.12605,0.08403l0.34669,0.38136l-0.00999,0.14485l0.09681,0.1082l-0.03953,0.51387l-0.05552,0.16656l-0.01921,0.1345l0,0.22305l-0.02416,0.09663zM320.72393,194.29823l0.07998,-0.09844l0.01355,-0.01016l0.0003,-0.00049l-0.05135,-0.01867c-0.01256,0.04357 -0.02819,0.0873 -0.04684,0.13109z" fill="#ff0000" stroke-width="0.5"/><path d="M317.15611,188.56446l-0.03491,-0.08728l-0.04669,-0.06226l-0.06238,-0.14815l-0.0863,-0.13562l-0.03272,-0.09815l-0.02868,-0.03825l-0.01103,-0.02619l-0.02102,-0.01911l-0.16807,-0.2521l-0.00144,-0.00403l-0.04858,-0.00972l-0.06898,-0.1084l-0.09756,-0.08362l-0.00424,-0.07635l-0.06523,-0.1025l-0.0092,-0.0092l-0.10354,-0.17257l-0.11783,-0.16315l-0.03988,-0.0997l-0.00391,-0.00652l0.00053,-0.00194l-0.0021,-0.00524l-0.11031,-0.16547l-0.02125,-0.05951l-0.04112,-0.04798l-0.06199,-0.12399l-0.16129,-0.14663l-0.02522,-0.01682l-0.03203,-0.03523l-0.03523,-0.03203l-0.00288,-0.00432l-0.04714,-0.00943l-0.10182,-0.16001l-0.12758,-0.14034l0.00374,-0.05426l-0.05104,-0.0802l-0.08403,-0.2521l-0.00697,-0.09063l-0.03429,-0.08418l-0.03472,-0.24305l-0.06248,-0.24991l-0.0296,-0.04652l-0.04202,-0.12605l-0.00301,-0.03909l-0.01845,-0.0346l-0.01539,-0.06157l-0.00576,-0.01152l-0.00975,-0.00557l-0.00697,-0.02786l-0.01246,-0.02492l-0.04984,-0.2243l-0.05573,-0.22291v-0.02786l-0.00623,-0.02804l0.00623,-0.00935v-0.04582l-0.00459,-0.02296l-0.01346,-0.03365l-0.03652,-0.06848l-0.12779,-0.21298l0.0048,-0.01761l-0.00267,-0.00501l-0.0327,-0.13081l-0.0074,-0.0222l-0.09427,-0.18854l-0.02897,-0.13039l-0.05718,-0.12071l-0.01575,-0.07877l-0.00734,-0.01467l-0.10084,-0.11765l-0.05348,-0.10696l-0.0113,-0.0113l-0.08271,-0.13784l-0.10461,-0.12205l-0.01284,-0.02567l-0.00975,-0.00557l-0.00697,-0.02786l-0.01246,-0.02492l-0.01352,-0.06083l-0.02231,-0.03718l0.00774,-0.02838l-0.02176,-0.09791l-0.05573,-0.22291v-0.02786l-0.00623,-0.02804l0.00623,-0.00935v-0.0608l0.04785,-0.19139l-0.02012,-0.07377l0.06611,-0.11018l0.03116,-0.12465l0.05776,-0.03301l-0.00012,-0.00172l0.02006,-0.02206l0.09019,-0.15031l0.08403,-0.08403l0.08541,-0.05124l0.067,-0.0737l0.04366,-0.02911l0.01402,-0.01402l0.19703,-0.11822l0.09155,-0.05826l0.11264,-0.08448l0.02619,-0.01103l0.01911,-0.02102l0.2521,-0.16807l0.09851,-0.03518l0.0848,-0.06124l0.17146,-0.06859l0.022,-0.011l0.27002,-0.1543l0.02735,-0.00769l0.02157,-0.01849l0.33613,-0.16807l0.0914,-0.02031l0.0811,-0.04679l0.24494,-0.06998l0.37268,-0.14907l0.02979,-0.00406l0.02537,-0.01614l0.12605,-0.04202l0.0915,-0.00704l0.04637,-0.02782l0.1374,-0.04182l0.12613,-0.06869l1.13445,-0.29412l0.08791,-0.00076l0.08331,-0.02805l1.05042,-0.08403l0.0402,0.0067l0.03954,-0.00989h0.21008l0.18374,0.04593l0.18765,0.02559l0.19999,0.08l1.6705,0.62644l0.08299,0.05723l0.09589,0.0311l1.0084,0.63025l0.07923,0.08217l0.09788,0.05873l0.12605,0.12605l0.1015,0.16917l0.06639,0.03794l0.03116,0.12465l0.06611,0.11018l-0.02012,0.07377l0.04785,0.19139v0.29412l-0.03295,0.13182l-0.00353,0.13583l-0.21008,0.7563l-0.01961,0.03457l-0.00412,0.03953l-0.33613,0.92437l-0.0132,0.01955l-0.00352,0.02332l-0.21008,0.5042l-0.01732,0.02327l-0.00595,0.02839l-0.67227,1.38655l-0.02067,0.02472l-0.00858,0.03106l-0.5425,0.95981l-0.75269,1.37992l-0.07146,0.07759l-0.04717,0.09435l-0.4649,0.54239l-0.30264,0.45396l-0.05205,0.04732l-0.03259,0.06234l-0.33613,0.37815l-0.02483,0.01696l-0.01547,0.02578l-0.16807,0.16807c-0.11482,0.11482 -0.25743,0.20185 -0.41688,0.25013l-0.02506,0.01504l-0.01449,-0.00395c-0.08011,0.02068 -0.16411,0.03168 -0.25068,0.03168c-0.40771,0 -0.75843,-0.24399 -0.91411,-0.59392l-0.09936,-0.06624l-0.008,0.00218l-0.44194,-0.26517l-0.11092,-0.11092l-0.16043,-0.10696l0.00391,-0.07044l-0.03554,-0.02887l-0.12605,-0.16807l-0.05121,-0.12163z" fill="#ff0000" stroke-width="0.5"/></g></g></svg>