<svg version="1.1" xmlns="http://www.w3.org/2000/svg" xmlns:xlink="http://www.w3.org/1999/xlink" width="668.16817" height="387.79112" viewBox="0,0,668.16817,387.79112"><g transform="translate(17.08708,19.35261)"><g stroke="none" stroke-miterlimit="10"><path d="M-17.08708,368.43852v-135.13514h668.16817v135.13514z" fill="#b15300" stroke-width="0"/><path d="M-15.58558,235.90266v-255.25526h662.16217v255.25526z" fill="#783800" stroke-width="0"/><path d="M121.40844,211.46702v-31.01246h212.72008v31.01246z" fill="#432c23" stroke-width="0"/><path d="M384.56249,157.09198c-12.25606,1.61178 -23.42058,-13.74055 -16.67843,-25.62679c1.72012,-3.03252 9.08953,-3.45882 11.87536,-4.56827c2.21058,-0.88036 2.7762,-1.63847 4.19368,-1.72711c-1.52112,3.14212 -2.82627,5.98106 -2.84359,10.14777l0.0021,1.07228c0,0 0.03069,2.52239 2.53069,2.52239c2.5,0 2.41779,-2.44332 2.41779,-2.44332l0.00325,-1.068c-0.01482,-2.96412 0.86446,-5.18195 1.93184,-7.34892c0.74808,1.20373 1.38069,2.51073 2.32713,3.55964c0.72434,0.80277 1.79381,1.31551 2.37054,2.23011c0.91293,1.44773 0.59315,3.38908 0.89035,5.07461c0.84554,4.79548 0.54025,8.6571 -1.32522,12.06709c-2.38033,-1.428 -4.63748,-2.02512 -6.34062,-0.99055c-1.03983,0.63165 -1.2819,3.94257 -1.35487,7.09905z" fill="#ff0000" stroke-width="0.5"/><path d="M121.21826,261.61117v-50.61082h213.55882v50.61082z" fill="#281a15" stroke-width="0"/><path d="M369.35117,148.00462c-0.00057,-0.02188 -0.00085,-0.04382 -0.00085,-0.06584c0,-0.66712 0.2613,-1.27321 0.68714,-1.7215c3.50987,-6.06414 15.93469,-3.87437 15.56795,3.9955c0.08718,-0.11113 0.18158,-0.19909 0.28384,-0.2612c1.70313,-1.03457 3.94925,-0.42721 6.32958,1.00079c1.86547,-3.41 2.16058,-7.23229 1.31504,-12.02777c-0.29719,-1.68554 0.02857,-3.61015 -0.88436,-5.05788c-0.57674,-0.9146 -1.63963,-1.4184 -2.36398,-2.22117c-0.94644,-1.04891 -1.56844,-2.34719 -2.31652,-3.55092c-1.06737,2.16697 -1.88416,4.30785 -1.86934,7.27197v1.07181c0,0 0,2.5 -2.5,2.5c-2.5,0 -2.5,-2.5 -2.5,-2.5v-1.07181c0.01733,-4.16671 1.32013,-7.00618 2.84124,-10.1483c-1.41747,0.08864 -1.97032,0.84825 -4.1809,1.72861c-2.78583,1.10945 -10.11694,1.51715 -11.83706,4.54968c-3.40096,5.9958 -2.25899,12.85334 1.2812,17.97073c-0.01498,-0.4555 0.03145,-0.94271 0.147,-1.4627zM359.15418,164.76797c-0.05637,-0.03691 -0.10689,-0.07833 -0.15232,-0.12371c-0.98061,0.19858 -1.87597,-0.33863 -1.87597,-0.33863c-0.68343,-0.41494 -1.43067,-0.92089 -2.21564,-1.35868c-0.09848,0.01906 -0.19685,0.03854 -0.29508,0.05868c0,0 -1.78666,0.35733 -2.61447,-1.06341c-4.13352,-0.26331 -4.94993,5.84694 -5.59899,8.70896c-0.16551,0.72981 -0.6362,1.42742 -0.56611,2.17248c0.11982,1.27362 2.04317,1.54932 3.14465,2.19986c2.31815,1.36911 4.86049,3.01439 7.23686,4.14871c0.47013,0.22441 1.43622,0.32116 2.45717,0.3561c0.35013,-5.31384 1.37817,-10.38009 3.06625,-14.445c-0.91298,0.02178 -1.85438,0.16388 -2.58636,-0.31537zM360.88551,157.9481c0.83444,0.47866 0.3254,2.07267 1.07181,2.67953c0.46361,0.37693 1.16297,-0.49217 1.75073,-0.38472c0.19701,0.03602 0.37458,0.13303 0.54383,0.25435c0.68736,-0.94136 1.4358,-1.75894 2.24481,-2.43116c0,0 1.31103,-1.04883 2.64383,-0.35307c0.24667,-0.21074 0.49532,-0.41927 0.74531,-0.62615c-8.33411,-6.35522 -12.66228,-18.06452 -5.9792,-28.56837c1.87686,-2.94987 6.15003,-4.02797 9.8691,-4.97675c-0.11186,-0.28606 -0.17872,-0.62804 -0.17872,-1.03689c0,-2.5 2.5,-2.5 2.5,-2.5l0.58152,0.04855c2.8781,-0.54165 6.56887,-0.80379 9.52634,0.23781c4.76132,-10.59105 14.25274,-25.5422 24.0371,-31.0483c4.66484,-2.62511 10.25137,-3.3414 15.35716,-5.04151c0.07829,-0.63604 0.4746,-2.24586 2.48073,-2.24586c1.2686,0 1.89347,0.64374 2.20125,1.2779c0.44342,0.21079 0.86731,0.60649 1.16843,1.30911c0.9848,2.29786 -1.31306,3.28266 -1.31306,3.28266c-0.08814,0.03745 -0.17652,0.07444 -0.26513,0.11098c-0.599,2.91541 -0.45814,5.60431 -0.93148,8.70973c-0.17024,1.11689 -0.86645,2.10447 -1.07181,3.21543c-0.77337,4.18384 -0.28092,8.73093 -0.54581,12.983c-0.20421,3.27801 -0.79722,6.52288 -1.03345,9.79874c-0.19438,2.69567 0.43923,5.63905 -0.02846,8.30079c-0.81606,4.64444 -1.9117,9.32919 -2.69963,14.04217c-3.6714,13.23734 1.83879,29.43112 -2.18409,43.57429c-1.72942,6.08008 -6.94726,10.08148 -2.72463,15.81829c1.4019,0.30122 2.8563,0.46398 4.1289,1.10614c2.37357,1.19772 4.43582,3.94785 6.40107,5.6995c1.33353,1.18859 2.95421,2.02628 4.28725,3.21543c1.61717,1.44261 2.71077,3.40782 4.32359,4.85529c1.39475,1.25177 3.53623,1.35918 5.06094,2.44892c3.34846,2.39323 6.33248,6.95895 7.88383,10.73799c1.54016,3.75179 0.49153,6.08367 1.23342,9.63305c0.43492,2.08075 1.2915,4.06529 1.64431,6.16153l0.00852,2.88573c0,0 0,2.5 -2.5,2.5c-2.5,0 -2.5,-2.5 -2.5,-2.5l0.00852,-2.47333c-0.31611,-1.92203 -1.20201,-3.71583 -1.57113,-5.6284c-0.34647,-1.79524 0.26644,-3.67943 -0.02094,-5.48507c-0.61196,-3.84501 -3.72722,-9.47408 -6.93898,-11.65729c-1.75378,-1.19215 -4.04891,-1.52796 -5.65718,-2.91014c-5.04969,-4.33981 -9.14085,-10.61814 -15.37606,-13.16263c1.25262,2.65519 2.89419,4.90569 4.11846,7.79057c2.71667,6.40157 0.89121,13.2838 2.01014,19.78189c0.22069,1.28162 0.86421,2.46753 1.07181,3.75134c0.54072,3.34389 0.02416,7.13861 0.02416,10.52896v0.53591c0,0 0,2.5 -2.5,2.5c-2.5,0 -2.5,-2.5 -2.5,-2.5v-0.53591c0,-3.14595 0.55593,-6.74727 0.02416,-9.83545c-0.22069,-1.28162 -0.86421,-2.46753 -1.07181,-3.75134c-0.98395,-6.08485 0.86635,-12.70043 -1.70793,-18.63624c-0.73008,-1.68343 -1.58558,-3.1765 -2.42493,-4.66534c-1.08633,3.04586 -2.09461,6.28336 -3.4623,9.02914c-1.6254,3.26317 -5.56718,6.38213 -6.82888,9.82699c-0.24802,0.67718 0.15884,1.4426 0.09875,2.16127c-0.26812,3.20658 -0.14114,4.69291 0.49588,7.878l0.92403,0.33024c0,0 1.76777,1.76777 0,3.53553c-1.76777,1.76777 -3.53553,0 -3.53553,0l-2.2914,-2.88519c-0.69937,-3.49687 -0.91852,-5.72189 -0.57594,-9.27098c0.10246,-1.0615 -0.26416,-2.195 0.09875,-3.19779c1.41438,-3.90819 5.28436,-6.85946 7.10466,-10.53742c1.2197,-2.46443 2.13831,-5.3142 3.09763,-8.06054c-1.96093,0.89248 -3.93884,1.78973 -5.82601,3.13983c-2.21433,1.58416 -3.72924,4.00151 -5.23442,6.27025c-2.34339,3.53216 -4.32612,6.9428 -6.36171,10.60489c-1.02816,1.84969 -2.04054,1.97548 -2.40199,4.06745c-0.14797,0.85639 0.16938,1.75235 0.01283,2.60722c-0.62523,3.41419 -1.83699,4.3196 -1.08808,7.68375l0.04855,1.5621c0,0 0,2.5 -2.5,2.5c-2.5,0 -2.5,-2.5 -2.5,-2.5l0.04855,-0.58152c-0.72909,-3.95425 0.37694,-5.70425 1.05554,-9.46524c0.16288,-0.90271 -0.18423,-1.85597 0.01283,-2.75184c0.45215,-2.05556 1.93344,-3.73984 2.95707,-5.57885c2.08926,-3.75349 4.1408,-7.3148 6.55909,-10.92584c1.85006,-2.76256 3.8198,-5.59645 6.49643,-7.56879c3.5598,-2.62312 7.93538,-3.44496 11.25667,-6.00714c0.08593,-0.10101 0.18517,-0.19809 0.29952,-0.28944c-4.49894,-8.68398 2.61741,-20.26323 4.58556,-29.65139c2.21557,-10.56836 -2.33158,-22.53164 0.00727,-32.72655c0.77231,-4.6488 1.79488,-9.25429 2.65943,-13.82493c0.46023,-2.43308 -0.20384,-5.29893 -0.02846,-7.77638c0.23191,-3.27589 0.82784,-6.52028 1.0334,-9.79793c0.27855,-4.44155 -0.18194,-9.12512 0.60277,-13.50822c0.1991,-1.11211 0.89835,-2.09904 1.07181,-3.21543c0.33403,-2.1499 0.4198,-4.17036 0.62652,-6.19602c-4.08932,1.10968 -8.30609,1.97501 -11.93935,3.95274c-7.62715,4.15176 -18.63358,21.1086 -22.23224,29.42584c0.7142,0.8653 1.12453,1.85629 2.18173,3.44137c1.23928,1.85808 3.29588,3.10669 4.41681,5.03848c0.57982,0.99924 0.54305,2.24612 0.78456,3.37587c1.03224,4.82864 1.9563,9.18775 0.69232,14.12078c-0.52734,2.0581 -1.22079,3.69563 -2.09865,5.11834c3.96699,3.48328 7.64934,7.90259 9.19627,9.53935c0.55296,2.37865 1.97193,4.63349 1.90353,7.07461c-0.12711,4.53667 -5.5501,10.92668 -9.48264,12.98416c-0.85568,0.44769 -1.92891,0.26484 -2.83398,0.60166c-1.24127,0.46194 -2.23434,1.88312 -3.55443,1.77577c-1.85869,-0.15114 -3.34552,-1.64858 -5.01828,-2.47287l-1.02319,-0.29584c-0.83615,8.8937 -0.23801,17.8212 -1.51998,26.79501c-0.2582,0.17509 -0.51439,0.34323 -0.76857,0.50454c1.48574,0.91593 3.1172,2.04175 3.57272,2.9338c0.57708,1.13009 0.2293,2.52913 0.26393,3.79756c0.07444,2.72674 0.45022,7.43091 -2.11004,9.53079c-1.30192,1.06781 -6.35813,0.37978 -7.84126,-0.28175c-0.5916,-0.26387 -0.70057,-1.42875 -1.34771,-1.40008c-1.20818,0.05351 -2.07973,1.8919 -3.2543,1.60391c-1.03189,-0.25301 -1.85391,-0.58536 -2.50779,-0.9845c-2.73366,3.16887 -6.54777,6.14238 -10.44809,4.58465c-3.24025,-1.2941 -3.80093,-4.50316 -4.25382,-7.29351c-0.70234,-4.32733 -1.2319,-9.56694 2.37681,-12.95287c0.89869,-0.84321 2.12526,-1.22737 3.25637,-1.74518c-0.26459,-1.32294 -0.52917,-2.64587 -0.79376,-3.96881l-0.04855,-1.0262c0,0 0,-1.41634 1.06606,-2.1169c-1.7692,-5.02743 -2.66894,-11.05892 -2.72379,-17.05779c-4.44692,-0.60609 -7.85877,-2.34337 -12.13386,-4.94095c-2.21004,-1.34284 -4.72141,-2.37741 -5.42984,-5.30282c-0.33644,-1.38928 0.28968,-2.84537 0.5057,-4.25839c0.70921,-4.639 2.23589,-9.46782 6.67414,-11.95442c2.47462,-1.38645 4.94066,-1.01727 7.25589,-0.06194c1.84797,-0.36761 3.9708,-0.64635 5.47184,0.2147zM363.66233,179.67941c0.70427,0.25798 1.53704,0.8681 1.53704,2.31099c0,1.57795 -0.99597,2.15993 -1.73064,2.37458c-0.0368,9.13118 1.92784,18.3493 6.63229,22.21233c0.34976,-0.18614 0.74898,-0.29162 1.17284,-0.29162c1.21921,0 2.23458,0.87276 2.45543,2.0276l0.0004,0.00187c1.78506,0.34505 3.82881,0.10385 6.15084,-0.86806c0.46619,-15.60456 1.69931,-29.30247 4.47373,-44.65402c0.04508,-0.24946 0.07606,-0.59204 0.0982,-1.00514c-3.47529,0.19838 -6.89485,-0.53222 -10.01085,-1.95976c-1.96707,1.57074 -5.15174,5.54946 -7.77448,6.32273c-1.54266,3.43765 -2.59326,8.30835 -3.0048,13.5285zM379.30356,213.96511c-0.10383,-0.00187 -1.09504,-0.03697 -1.7953,-0.69445c-0.74287,0.19017 -1.46338,0.31319 -2.16163,0.37304c0.43028,1.02351 0.77245,2.05397 0.63501,3.12226c-0.24993,1.94262 -1.83176,3.45294 -2.93928,5.08722c0.03194,-0.00008 0.06609,-0.00409 0.1026,-0.01231c1.15829,-0.26095 1.98991,-1.65107 3.17657,-1.61153c1.151,0.03836 1.88654,1.34901 2.93953,1.81535c0.58941,0.26103 1.28384,0.15963 1.90545,0.33034c0.34544,0.09487 0.72893,0.72343 0.97141,0.45973c0.35855,-0.38993 0.06262,-1.05808 0.06587,-1.58778c0.00795,-1.29562 -0.08732,-2.59232 -0.03228,-3.88679c0.02242,-0.5274 0.48824,-1.08364 0.26393,-1.56149c-0.51702,-1.10146 -1.9361,-1.35682 -3.13188,-1.83357zM363.8174,212.62947c-0.87828,0.40198 -1.88259,0.60008 -2.63484,1.20595c-2.23739,1.80202 -1.14468,6.33245 -0.83862,8.48335c0.05781,0.40627 0.28756,3.09555 1.10524,3.42461c0.46322,0.18641 0.97143,-0.2741 1.40266,-0.52582c1.15684,-0.67529 2.39172,-1.29037 3.33608,-2.24037c0.57649,-0.57994 1.02784,-1.26354 1.46003,-1.96342c-0.0579,-1.25903 0.04843,-2.62313 0.05411,-4.01266c0.00735,-1.80017 -0.55722,-3.69953 0.03228,-5.40046c0.02168,-0.06256 0.04435,-0.12462 0.06796,-0.1862c-0.56041,-0.43006 -1.09495,-0.91529 -1.60372,-1.45053c-0.12001,0.57018 -0.44317,1.21746 -1.24429,1.58852c-0.41885,0.71801 -1.13686,1.07702 -1.13686,1.07702zM384.54852,157.04396c0.03408,-1.47421 0.10196,-2.98066 0.27057,-4.23201c-1.70942,1.8851 -6.75642,2.62498 -10.6552,1.59439c3.0436,2.05861 6.6613,3.12727 10.38463,2.63762zM386.25164,178.42113c0.47195,0.01035 0.81815,0.12575 0.81815,0.12575l2.05749,0.73701c0.82813,0.60479 1.46283,1.72512 2.4844,1.81437c0.76659,0.06697 1.10057,-1.12911 1.80463,-1.43966c0.78334,-0.34553 1.74949,-0.10755 2.52507,-0.47015c1.94741,-0.91046 4.77865,-4.84277 5.83872,-6.45324c0.39164,-0.59499 0.79194,-1.28742 0.75581,-1.99882c-0.08276,-1.62937 -1.06797,-3.10219 -1.3119,-4.71532c-2.76323,-2.54736 -4.60563,-5.02719 -7.76528,-7.14361c-0.03471,-0.02325 -0.26741,-0.23873 -0.61208,-0.56724c-0.79901,0.73381 -1.67464,1.4719 -2.63109,2.26145c-0.0641,0.02397 -0.12823,0.04758 -0.19239,0.07083c-0.47341,5.38415 -2.47484,11.13703 -3.43422,15.93353c-0.12299,0.61489 -0.23507,1.22992 -0.33734,1.84511z" fill="#000000" stroke-width="0.5"/><path d="M382.48034,215.77667c0.2243,0.47786 -0.23707,1.04797 -0.2595,1.57537c-0.05504,1.29447 0.0316,2.62832 0.02365,3.92394c-0.00325,0.52971 0.28582,1.20563 -0.07273,1.59556c-0.24248,0.2637 -0.62877,-0.36246 -0.97422,-0.45733c-0.62161,-0.17071 -1.32945,-0.06172 -1.91886,-0.32275c-1.05299,-0.46634 -1.83414,-1.78234 -2.98514,-1.8207c-1.18666,-0.03955 -2.02911,1.34066 -3.18741,1.60161c-0.03651,0.00823 -0.07095,0.01188 -0.10289,0.01196c1.10751,-1.63428 2.6882,-3.20545 2.93814,-5.14807c0.13744,-1.06829 -0.18844,-2.11296 -0.61871,-3.13647c0.69825,-0.05985 1.44,-0.1889 2.18287,-0.37907c0.70026,0.65748 1.71163,0.69565 1.81546,0.69752c1.19578,0.47676 2.64231,0.75697 3.15933,1.85843z" fill="#ff0000" stroke-width="0.5"/><path d="M364.96321,211.50326c0.80112,-0.37106 1.12983,-1.017 1.24983,-1.58718c0.50878,0.53525 1.05514,1.0258 1.61555,1.45587c-0.02361,0.06158 -0.04604,0.12379 -0.06773,0.18635c-0.5895,1.70093 -0.00268,3.63172 -0.01003,5.43189c-0.00568,1.38953 -0.12207,2.7962 -0.06417,4.05523c-0.43219,0.69988 -0.9011,1.39715 -1.47759,1.97709c-0.94436,0.94999 -2.20684,1.56936 -3.36368,2.24465c-0.43123,0.25173 -0.94734,0.71055 -1.41056,0.52414c-0.81768,-0.32906 -1.06381,-3.02679 -1.12162,-3.43306c-0.30606,-2.1509 -1.39526,-6.76272 0.84212,-8.56474c0.75225,-0.60588 1.78391,-0.81203 2.66219,-1.21401c0,0 0.72684,-0.3582 1.14569,-1.07622z" fill="#ff0000" stroke-width="0.5"/><path d="M386.55144,176.60905c0.95938,-4.7965 2.97662,-10.62745 3.45003,-16.0116c0.06416,-0.02325 0.12921,-0.04729 0.19331,-0.07126c0.95644,-0.78954 1.84615,-1.53172 2.64516,-2.26552c0.34467,0.32851 0.57979,0.54372 0.6145,0.56697c3.15964,2.11642 5.05036,4.62232 7.81359,7.16968c0.24394,1.61313 1.23475,3.11597 1.3175,4.74534c0.03613,0.7114 -0.36752,1.41653 -0.75916,2.01152c-1.06007,1.61047 -3.92952,5.57316 -5.87693,6.48361c-0.77558,0.3626 -1.75468,0.12504 -2.53801,0.47056c-0.70406,0.31056 -1.04501,1.50545 -1.8116,1.43847c-1.02157,-0.08925 -1.6685,-1.21434 -2.49663,-1.81913l-2.0653,-0.74232c0,0 -0.34844,-0.11737 -0.82039,-0.12772c0.10227,-0.61519 0.21095,-1.23372 0.33394,-1.84861z" fill="#ff0000" stroke-width="0.5"/><path d="M361.7813,165.05439c-1.68807,4.0649 -2.73259,9.2038 -3.08273,14.51764c-1.02095,-0.03493 -1.99748,-0.12734 -2.46762,-0.35175c-2.37638,-1.13433 -4.96985,-2.79434 -7.288,-4.16344c-1.10148,-0.65054 -3.03589,-0.94683 -3.15572,-2.22045c-0.07009,-0.74505 0.39896,-1.45594 0.56447,-2.18575c0.64906,-2.86202 1.50552,-9.02073 5.63905,-8.75742c0.82781,1.42074 2.62976,1.06269 2.62976,1.06269c0.09822,-0.02014 0.19841,-0.0394 0.29689,-0.05845c0.78497,0.43778 1.54812,0.94886 2.23155,1.3638c0,0 0.90482,0.54361 1.88544,0.34503c0.04543,0.04537 0.09687,0.08761 0.15324,0.12451c0.73197,0.47925 1.68069,0.34536 2.59367,0.32358z" fill="#ff0000" stroke-width="0.5"/><path d="M366.64835,166.10457c2.62275,-0.77327 5.82719,-4.75564 7.79425,-6.32638c3.116,1.42754 6.55581,2.16287 10.0311,1.96449c-0.02214,0.4131 -0.05247,0.75599 -0.09756,1.00545c-2.77442,15.35155 -4.01711,29.14288 -4.4833,44.74744c-2.32204,0.97191 -4.37858,1.21465 -6.16363,0.86959l-0.0004,-0.00187c-0.22085,-1.15484 -1.24177,-2.02796 -2.46098,-2.02796c-0.42385,0 -0.82553,0.10512 -1.17529,0.29126c-4.70446,-3.86303 -6.71061,-13.12939 -6.6738,-22.26056c0.73467,-0.21465 1.73208,-0.80961 1.73208,-2.38756c0,-1.44289 -0.83009,-2.06096 -1.53436,-2.31894c0.41154,-5.22016 1.48923,-10.11729 3.03189,-13.55494z" fill="#ff0000" stroke-width="0.5"/><path d="M368.52456,138.71775c0,-1.38071 1.11929,-2.5 2.5,-2.5c1.38071,0 2.5,1.11929 2.5,2.5c0,1.38071 -1.11929,2.5 -2.5,2.5c-1.38071,0 -2.5,-1.11929 -2.5,-2.5z" fill="#000000" stroke-width="0.5"/><path d="M381.32389,141.74556c0,-1.38071 1.11929,-2.5 2.5,-2.5c1.38071,0 2.5,1.11929 2.5,2.5c0,1.38071 -1.11929,2.5 -2.5,2.5c-1.38071,0 -2.5,-1.11929 -2.5,-2.5z" fill="#000000" stroke-width="0.5"/><path d="M464.27739,237.50128v-201.50054h113.0761v201.50054z" fill="#301600" stroke-width="0"/><path d="M470.01955,150.51518c0,-5.85429 4.74584,-10.60013 10.60013,-10.60013c5.85429,0 10.60013,4.74584 10.60013,10.60013c0,5.85429 -4.74584,10.60013 -10.60013,10.60013c-5.85429,0 -10.60013,-4.74584 -10.60013,-10.60013z" fill="#ffb500" stroke-width="0"/><text transform="translate(467.9805,61.8409) scale(0.5,0.5)" font-size="40" xml:space="preserve" fill="#231300" stroke-width="1" font-family="Handwriting" font-weight="normal" text-anchor="start"><tspan x="0" dy="0">huj ci w dupe</tspan></text><text transform="translate(493.63779,83.42785) scale(0.5,0.5)" font-size="40" xml:space="preserve" fill="#ffffff" stroke-width="1" font-family="Handwriting" font-weight="normal" text-anchor="start"><tspan x="0" dy="0">wypad</tspan></text></g></g></svg>