<svg version="1.1" xmlns="http://www.w3.org/2000/svg" xmlns:xlink="http://www.w3.org/1999/xlink" width="674.2508" height="108.28896" viewBox="0,0,674.2508,108.28896"><g transform="translate(2.81073,-130.54992)"><g stroke="none" stroke-width="0.5" stroke-miterlimit="10"><path d="M25.33513,146.89313c21.84862,-2.30617 23.8144,-1.47806 51.11844,-1.65289c2.62386,-0.0168 5.79667,-1.44106 8.56145,-1.5015c30.1541,-0.65924 59.45288,-6.25329 90.18796,-2.80995c8.82523,0.98872 19.31339,1.30711 28.00253,3.22818c9.25983,2.04724 18.52268,4.80494 28.02272,5.58777c3.58357,0.2953 7.27357,-0.30309 10.8462,0.39063c5.91734,1.149 9.68419,3.21944 16.49846,4.63002c6.31983,1.30823 12.7837,1.78573 19.16686,2.73812c4.36041,0.65059 9.00738,2.3689 13.07532,3.13204c4.92207,0.92338 8.5323,0.82013 12.926,1.82123c2.79102,0.63593 5.5978,2.46927 8.2902,2.89536c10.89671,1.7245 21.90395,2.66133 32.84138,4.10517c4.23604,0.5592 8.0733,2.63094 12.19379,3.55285c3.63218,0.81266 23.71996,5.29459 31.75026,6.76461c6.6078,1.20961 13.78373,0.71279 20.49028,1.90475c7.06344,1.25539 13.97928,3.49826 21.12803,4.10125c3.26484,0.27539 6.58645,-0.19639 9.83762,0.39063c3.42391,0.61821 6.63013,2.45032 10.10563,2.61238c12.19636,0.56871 24.43445,0.60957 36.62884,0c5.93836,-0.29685 11.74486,-1.86474 17.62992,-2.7123c31.75215,-4.57291 61.71862,-16.17277 91.80781,-26.97448c3.9417,-1.41503 5.92873,-4.36538 8.98885,-6.87699c8.20242,-6.73217 20.05635,-16.73773 29.91095,-19.93381c18.0845,-5.86524 34.46324,3.37373 35.27805,24.01558c0.55747,14.12245 -14.38161,21.33782 -23.99795,27.43609c-7.45147,4.72541 -12.64748,12.22 -20.39935,16.37055c-12.31357,6.593 -18.91871,7.47092 -33.66125,12.98677c-7.20375,2.69525 -12.98889,6.13079 -20.20061,8.21017c-20.4262,5.88955 -41.01182,11.65866 -62.01325,14.47541c-4.51373,0.60539 -14.69828,2.97393 -21.43135,3.003c-14.01388,0.06051 -28.02829,0.08535 -42.04204,0c-4.89288,-0.0298 -9.22961,-2.23146 -14.01188,-3.003c-3.01044,-0.48568 -6.32075,0.06203 -9.41389,-0.39063c-7.47845,-1.09441 -14.93215,-3.20154 -22.40569,-4.393c-7.457,-1.18883 -15.28492,-0.26633 -22.59813,-2.18428c-10.64616,-2.79204 -21.47006,-4.87207 -32.27372,-6.9738c-3.3556,-0.65279 -6.70087,-2.55528 -9.95904,-3.07491c-8.28783,-1.32177 -24.45953,-2.07686 -35.99163,-4.70443c-2.84394,-0.64799 -5.50585,-2.28789 -8.2902,-2.89536c-13.81605,-3.01429 -28.37586,-5.0582 -42.28506,-7.16639c-5.11909,-0.77589 -10.31466,-3.26287 -15.1487,-4.25324c-2.84304,-0.58247 -6.44156,0.10467 -9.44976,-0.34015c-9.948,-1.471 -20.11115,-4.83796 -29.977,-5.66585c-8.17672,-0.68615 -16.30373,-2.80529 -24.52653,-3.003c-14.64585,-0.35215 -29.30313,-0.2948 -43.95024,0c-6.60832,0.13301 -13.0823,1.92515 -19.65614,2.61238c-5.92491,0.61939 -11.91079,0.30155 -17.86733,0.39063c-2.7951,0.0418 -5.6407,1.47312 -8.56145,1.5015c-12.09631,0.11755 -24.19827,-0.3303 -36.29065,0c-0.98252,0.02684 -21.90755,2.19663 -24.38232,2.55762c-2.63291,0.38405 -5.12264,1.60988 -7.82147,1.86053c-4.60643,0.42782 -9.22061,0.83358 -13.82749,1.29905c1.24677,-2.42026 2.68791,-4.77896 3.39757,-7.39865c0.5933,-2.19016 0.21384,-4.53357 0.26751,-6.80203c0.05761,-2.4348 -0.09523,-13.33082 -0.12913,-13.61383c-0.18823,-1.57149 -1.26053,-2.94024 -1.5015,-4.5045c-0.22361,-1.45157 0.08608,-2.93612 0.12913,-4.40418v-3.003c0,0 0,-4.50141 -3.02011,-7.46401c-0.03538,-1.14994 -0.11079,-2.30025 -0.14279,-3.44951c9.36661,-1.27585 18.74682,-2.43249 28.14586,-3.42458z" fill="#ffc297"/><path d="M40.38888,155.23941c0.05345,2.49943 -2.44598,2.55288 -2.44598,2.55288l-0.20138,-0.13064c-6.6695,2.44484 -14.05642,5.77217 -21.21959,5.82922c0,0 -2.5,0 -2.5,-2.5c0,-2.5 2.5,-2.5 2.5,-2.5c6.43232,0.06587 13.527,-3.33395 19.49846,-5.52366l1.81561,-0.17378c0,0 2.49943,-0.05345 2.55288,2.44598z" fill="#000000"/><path d="M55.64231,170.22418c0.65542,-0.39214 1.83184,-0.7815 3.00826,0.39493c1.76777,1.76777 0,3.53553 0,3.53553l-2.66221,1.1716c-3.49709,-0.61974 -7.01766,-0.80554 -9.68067,-3.85176c-0.55023,-0.62941 -1.27419,-7.24989 -1.40226,-8.2742c0,0 -0.31009,-2.48069 2.17061,-2.79078c2.48069,-0.31009 2.79078,2.17061 2.79078,2.17061c0.15734,1.25897 0.36676,2.51253 0.47202,3.77692c0.06068,0.72882 -0.47109,1.65659 0.02506,2.19389c0.90412,0.97912 3.50373,1.41571 5.27841,1.67325z" fill="#000000"/><path d="M98.24454,169.8812c0.60634,2.42536 -1.81902,3.0317 -1.81902,3.0317l-0.84729,0.21182c-4.43128,1.10782 -8.85775,2.24162 -13.29535,3.32384c-1.79694,0.43823 -3.54865,1.23664 -5.39758,1.28661c-1.79641,0.04856 -3.53207,-0.66501 -5.2981,-0.99751c0,0 -2.45145,-0.49029 -1.96116,-2.94174c0.49029,-2.45145 2.94174,-1.96116 2.94174,-1.96116c1.39952,0.30061 2.76768,0.9417 4.19857,0.90183c1.48341,-0.04133 2.86652,-0.76955 4.30385,-1.13874c4.42392,-1.13632 8.86419,-2.21605 13.29535,-3.32384l0.84729,-0.21182c0,0 2.42536,-0.60634 3.0317,1.81902z" fill="#000000"/><path d="M131.92368,149.45171c2.04247,1.44163 0.60084,3.48411 0.60084,3.48411l-2.8326,4.01317c-2.86834,4.06373 -5.57346,7.96543 -7.92988,12.34964c0,0 -1.18525,2.20118 -3.38643,1.01593c-2.20118,-1.18525 -1.01593,-3.38643 -1.01593,-3.38643c2.45828,-4.5575 5.26375,-8.6353 8.24728,-12.8624l2.8326,-4.01317c0,0 1.44163,-2.04247 3.48411,-0.60084z" fill="#000000"/><path d="M158.49478,150.86026c-0.46757,1.40271 -1.48822,1.69927 -2.24417,1.70745c0.11616,0.05219 0.18247,0.09087 0.18247,0.09087c1.36583,0.80154 2.73167,1.60307 4.0975,2.40461l3.52156,1.18719c0,0 2.36632,0.80657 1.55975,3.17288c-0.80657,2.36632 -3.17288,1.55975 -3.17288,1.55975l-3.985,-1.37144c-1.51343,-0.87803 -3.02686,-1.75607 -4.54029,-2.6341c0,0 -2.15945,-1.25968 -0.89977,-3.41912c0.54295,-0.93077 1.25306,-1.22633 1.88535,-1.26135l-1.9459,-0.64863c-2.97617,-0.99608 -4.30503,-1.28219 -6.28844,-2.25986c0.44269,0.47131 0.76228,1.19359 0.47978,2.26709c-0.63623,2.41769 -3.05392,1.78145 -3.05392,1.78145c-1.61179,-0.42416 -7.41005,-1.95001 -9.02184,-2.37417c0,0 -2.41769,-0.63623 -1.78145,-3.05392c0.04829,-0.18349 0.10683,-0.34939 0.17381,-0.49931c-4.31398,1.08466 -8.04242,2.51449 -12.23192,4.01943c-10.98706,3.94676 -22.10239,7.56961 -33.14727,11.3521c0,0 -2.36515,0.80998 -3.17513,-1.55517c-0.80998,-2.36515 1.55517,-3.17513 1.55517,-3.17513c12.58336,-4.30937 25.2704,-8.3978 37.72176,-13.07489c4.23107,-1.58931 8.5862,-2.57684 12.97608,-3.64455c1.3617,-0.3312 2.69949,-1.11732 4.09239,-0.96318c1.28517,0.14222 5.00305,2.96379 6.15396,3.64047c2.6284,1.54538 3.94761,1.74063 7.12817,2.79621l2.37909,0.79303c0,0 2.37171,0.79057 1.58114,3.16228zM144.89675,148.43329c-1.51167,-0.87569 -2.54895,-2.89568 -4.29238,-3.0072c-0.7658,-0.04898 -1.40924,0.6185 -2.14578,0.83378c-0.32254,0.09428 -0.64646,0.18349 -0.97134,0.26914c1.22986,0.32365 2.45973,0.6473 3.68959,0.97094l3.86537,1.0172c-0.04801,-0.02756 -0.09649,-0.05551 -0.14545,-0.08388z" fill="#000000"/><path d="M156.94117,186.02549c-1.31352,1.31352 -2.62704,0.67505 -3.21536,0.26019c-19.54951,0.11182 -38.64974,3.56093 -58.05106,6.14812c0,0 -2.47807,0.33041 -2.80848,-2.14766c-0.33041,-2.47807 2.14766,-2.80848 2.14766,-2.80848c17.26678,-2.30193 34.29366,-5.26115 51.60722,-6.01425c-0.44639,-0.20182 -0.89478,-0.39314 -1.3474,-0.56287c0,0 -2.34082,-0.87781 -1.46301,-3.21863c0.87781,-2.34082 3.21863,-1.46301 3.21863,-1.46301c2.33928,0.87723 4.49355,2.60959 6.99009,2.70451c5.77124,0.21942 11.1847,-3.45843 16.79439,-3.33835c1.21072,0.02592 9.07317,1.33557 10.38785,1.54778l3.95862,0.88685c0,0 2.43937,0.54722 1.89215,2.9866c-0.54722,2.43937 -2.9866,1.89215 -2.9866,1.89215l-3.8097,-0.85581c-0.41373,-0.0666 -8.79026,-1.43381 -9.3842,-1.4579c-1.69554,-0.06876 -5.71562,1.62868 -6.65266,1.84373c-0.31846,0.07309 -3.78374,0.56284 -6.69508,0.95642c0.29017,0.67889 0.3978,1.65975 -0.58307,2.64062z" fill="#000000"/><path d="M67.60042,190.72124c-1.24035,2.17061 -3.41096,0.93026 -3.41096,0.93026l-3.25144,-1.85954c-4.3497,-2.18925 -8.01491,-1.97034 -12.87862,-2.08514c-1.78195,-0.04206 -3.5774,0.17991 -5.34723,-0.03171c-0.9384,-0.11221 -1.73619,-0.86363 -2.67907,-0.92804c-5.14025,-0.35113 -11.3775,1.62648 -16.50994,2.35969c0,0 -2.47487,0.35355 -2.82843,-2.12132c-0.35355,-2.47487 2.12132,-2.82843 2.12132,-2.82843c5.57281,-0.7961 12.06506,-2.70904 17.6781,-2.38864c1.05539,0.06024 1.96966,0.84279 3.01893,0.9713c4.90168,0.60033 10.35354,-0.71084 15.2037,0.46978c1.63359,0.39765 3.0381,1.44113 4.55715,2.1617l3.39623,1.93913c0,0 2.17061,1.24035 0.93026,3.41096z" fill="#000000"/><path d="M285.28985,164.11087c-0.74584,2.38615 -3.13199,1.64032 -3.13199,1.64032l-3.39499,-1.07376c-29.068,-3.04012 -55.70312,-5.90673 -84.92856,-3.56869c0,0 -2.49204,0.19936 -2.6914,-2.29268c-0.19936,-2.49204 2.29268,-2.6914 2.29268,-2.6914c29.66612,-2.37329 56.84661,0.42843 86.34435,3.6573l3.86961,1.19692c0,0 2.38615,0.74584 1.64032,3.13199z" fill="#000000"/><path d="M266.62778,200.74534c-1.76777,1.76777 -3.53553,0 -3.53553,0l0.22788,0.01918c-5.48163,-2.58139 -11.4941,-5.04183 -16.19323,-8.97822c-1.79122,-1.50048 -2.54914,-3.8097 -4.84477,-4.55209c-4.55733,-1.47381 -9.32321,-1.23978 -14.04739,-1.45951c-9.9892,-0.46461 -19.9784,-0.92923 -29.9676,-1.39384c0,0 -2.4973,-0.11615 -2.38115,-2.61345c0.11615,-2.4973 2.61345,-2.38115 2.61345,-2.38115c9.9892,0.46461 19.9784,0.92923 29.9676,1.39384c5.27932,0.24555 10.58819,0.00144 15.65456,1.80477c3.82265,1.36065 2.84521,2.51765 6.22481,5.37589c4.33217,3.66387 10.03212,5.89209 15.10383,8.2802l1.17754,0.96885c0,0 1.76777,1.76777 0,3.53553z" fill="#000000"/><path d="M290.4769,188.90924c-0.85285,2.35003 -3.20288,1.49719 -3.20288,1.49719l-0.57062,-0.20708c-7.77295,-2.82381 -15.8164,-4.84368 -23.77248,-7.09445c-4.64687,-1.3146 -9.46196,-3.15135 -14.20839,-4.03065c-3.27278,-0.6063 -6.65813,-0.37509 -9.94451,-0.90273c-5.94799,-0.95497 -11.96369,-3.22371 -17.78016,-4.79573c0,0 -2.41341,-0.65227 -1.76114,-3.06568c0.65227,-2.41341 3.06568,-1.76114 3.06568,-1.76114c5.6699,1.53241 11.55954,3.7821 17.35754,4.70094c1.96805,0.31189 8.13468,0.56736 9.97336,0.90799c4.89772,0.90732 9.86301,2.77912 14.6587,4.13582c8.07373,2.28405 16.22724,4.34514 24.1171,7.20556l0.57062,0.20708c0,0 2.35003,0.85285 1.49719,3.20288z" fill="#000000"/><path d="M377.92165,200.27057c0.60634,2.42536 -1.81902,3.0317 -1.81902,3.0317l-3.29624,0.42119c-13.371,-4.45838 -27.00883,-8.21325 -40.50672,-12.272c-6.38429,-1.91972 -12.76857,-3.83944 -19.15286,-5.75917c-3.09319,-0.93011 -6.08935,-2.26942 -9.274,-2.80879c-3.18465,-0.53937 -6.45473,-0.26133 -9.68169,-0.40163c0,0 -2.49764,-0.10859 -2.38905,-2.60623c0.10859,-2.49764 2.60623,-2.38905 2.60623,-2.38905c0.39135,0.01702 10.09786,0.43298 10.29943,0.46711c0.20157,0.03414 9.50373,2.83757 9.87886,2.95037c6.38429,1.91972 12.76857,3.83944 19.15286,5.75917c13.54551,4.07307 27.22907,7.84515 40.64807,12.3168l0.50243,-0.52848c0,0 2.42536,-0.60634 3.0317,1.81902z" fill="#000000"/><path d="M372.23858,208.40598c0.5431,2.4403 -1.89719,2.9834 -1.89719,2.9834l-3.15774,0.70277c-8.35455,1.85858 -16.39197,3.07909 -24.91224,3.98438c-5.0321,0.53467 -10.57891,1.74201 -15.64493,1.03211c-2.86775,-0.40185 -5.45115,-1.95636 -8.17016,-2.95261c-1.0733,-0.39326 -9.78366,-3.52084 -10.27117,-3.99427c-1.4401,-1.39852 -1.62431,-3.67158 -2.43646,-5.50738c0,0 -0.92848,-2.32119 1.39272,-3.24967c2.32119,-0.92848 3.24967,1.39272 3.24967,1.39272c0.42582,1.25913 0.32391,2.85138 1.27745,3.77739c0.95354,0.92601 2.55447,0.73922 3.81319,1.16625c1.57831,0.53546 3.12986,1.14678 4.69478,1.72017c2.44561,0.89607 4.74311,2.37005 7.3235,2.72429c4.54996,0.62462 9.72969,-0.60146 14.24313,-1.08102c8.33908,-0.88604 16.17966,-2.0729 24.35432,-3.89296l3.15774,-0.70277c0,0 2.4403,-0.5431 2.9834,1.89719z" fill="#000000"/><path d="M426.40272,192.21893c-0.36387,2.47338 -2.83725,2.10951 -2.83725,2.10951l-0.09058,-0.01333c-16.25057,-2.39071 -32.60263,-4.13986 -48.88283,-6.4115c-6.52911,-0.91103 -13.73844,-1.13313 -20.10428,-2.82367c-6.36584,-1.69054 -12.73548,-5.07453 -18.85634,-7.52287c0,0 -2.32119,-0.92848 -1.39272,-3.24967c0.92848,-2.32119 3.24967,-1.39272 3.24967,-1.39272c5.93103,2.37241 12.11594,5.69508 18.28273,7.33276c6.16679,1.63768 13.18529,1.82136 19.51192,2.70414c16.29248,2.27336 32.65667,4.02425 48.91959,6.41677l0.09058,0.01333c0,0 2.47338,0.36387 2.10951,2.83725z" fill="#000000"/><path d="M451.92515,216.91123c-0.83964,2.35478 -3.19442,1.51514 -3.19442,1.51514l-1.6661,-0.85015c-6.84452,-6.84674 -14.20794,-13.16932 -21.46551,-19.57306c0,0 -1.87459,-1.65405 -0.22054,-3.52865c1.65405,-1.87459 3.52865,-0.22054 3.52865,-0.22054c7.33605,6.47298 14.77222,12.86818 21.69293,19.78671l-0.19016,-0.32388c0,0 2.35478,0.83964 1.51514,3.19442z" fill="#000000"/><path d="M500.97596,222.82625c-0.10699,2.49771 -2.6047,2.39072 -2.6047,2.39072l-2.39685,-0.11024c-3.30911,-0.4011 -6.62125,-0.77804 -9.92734,-1.20331c-1.85756,-0.23895 -3.91312,0.12405 -5.5679,-0.75307c-1.15147,-0.61034 -2.46584,-1.34867 -3.45232,-2.28818c-4.30535,1.41169 -8.72399,2.36514 -13.21946,3.49006c-4.79307,1.19939 -9.95391,3.09367 -14.85248,3.69726c-8.14642,1.00378 -16.77589,-0.71065 -24.84947,-1.6415c-4.9668,-0.57265 -9.93754,-1.11961 -14.90129,-1.71805c-1.8268,-0.22024 -3.73309,-0.10028 -5.47724,-0.68651c-0.3243,-0.109 -8.53891,-4.98225 -9.0846,-5.3047c0,0 -2.15232,-1.27182 -0.88049,-3.42414c1.27182,-2.15232 3.42414,-0.88049 3.42414,-0.88049c2.72062,1.60764 5.1385,3.86308 8.13393,4.86988c1.41568,0.47582 2.97231,0.29636 4.45695,0.45886c4.96994,0.544 9.93456,1.14541 14.90129,1.71805c7.65753,0.88288 15.93618,2.59849 23.66532,1.64613c4.6963,-0.57867 9.6565,-2.43573 14.25019,-3.58523c6.36629,-1.59307 12.65598,-2.75871 18.56207,-5.6504l1.03487,-0.50306c0,0 2.24842,-1.09298 3.3414,1.15544c1.09298,2.24842 -1.15544,3.3414 -1.15544,3.3414l-1.03487,0.50306c-0.13258,0.06403 -0.2653,0.12729 -0.39815,0.1898c1.23776,0.10272 2.47086,0.26245 3.7052,0.40172c3.31232,0.37372 6.61823,0.80221 9.92734,1.20331l2.00917,0.07849c0,0 2.49771,0.10699 2.39072,2.6047z" fill="#000000"/><path d="M542.10048,189.95352c0.95187,2.3117 -1.35982,3.26357 -1.35982,3.26357c-5.26665,2.16862 -13.85321,5.70426 -20.08696,8.2711c1.54677,-0.07191 3.08984,-0.14552 4.62341,-0.18642c6.54786,-0.17461 13.30255,0.1036 19.82046,-0.52257c4.86618,-0.46749 9.80181,-1.63709 14.62526,-2.43971c6.45514,-1.07414 12.73703,-1.55718 18.66032,-4.39197l0.23417,-0.1106c-1.7946,-1.29609 -0.6114,-3.26809 -0.6114,-3.26809c2.54433,-4.09094 6.37132,-6.16263 10.25247,-8.93465c6.52125,-4.65764 13.28955,-9.79187 20.39326,-13.95978c0.33274,-0.73785 0.97544,-1.16632 0.97544,-1.16632c10.17886,-6.77771 21.52288,-11.65197 31.70061,-18.44302l0.11325,-0.0755c0,0 2.08013,-1.38675 3.46688,0.69338c1.38675,2.08013 -0.69338,3.46688 -0.69338,3.46688l-0.11325,0.0755c-1.41241,0.94082 -2.84722,1.84487 -4.29819,2.72235c3.85014,0.6534 6.9167,1.16922 10.97723,0.7659l2.04016,-0.84257c0,0 2.32119,-0.92848 3.24967,1.39272c0.32991,0.82478 0.24953,1.47372 0.00878,1.96764c0.66959,-0.2891 2.05791,-0.6262 3.07399,0.89792c1.38675,2.08013 -0.69338,3.46688 -0.69338,3.46688l-2.73702,1.82016c-4.71148,3.96082 -9.17392,7.88311 -14.45751,11.06396c0,0 -2.14373,1.28624 -3.42997,-0.85749c-1.28624,-2.14373 0.85749,-3.42997 0.85749,-3.42997c5.13604,-3.0704 9.45015,-6.94577 14.03252,-10.77839l0.50071,-0.33457l-1.25651,0.49031c-5.34857,0.53756 -9.03469,-0.03429 -14.30081,-0.91198c0,0 -2.02703,-0.33784 -2.09922,-2.2387c-3.54095,2.00467 -7.14013,3.91315 -10.71129,5.86639c0.54894,2.02362 -1.49613,2.8657 -1.49613,2.8657l-3.44878,1.42009c-10.23025,4.18299 -19.76262,11.71226 -28.74837,18.13119c-3.15533,2.254 -6.92999,4.02628 -8.8712,7.43846c0,0 -0.09642,0.1607 -0.28047,0.36771c0.24497,0.16684 0.47799,0.4019 0.68175,0.72721c0.66849,-0.21215 2.16484,-0.45095 3.01489,1.24915c1.11803,2.23607 -1.11803,3.3541 -1.11803,3.3541l-2.45174,1.22587c-10.34556,5.17278 -21.22092,8.32231 -32.15113,12.10065c-6.30083,2.17806 -12.60114,4.35763 -18.90249,6.5342c-2.2824,0.78837 -6.49218,2.40427 -9.03561,2.70167c-0.21578,0.02523 -9.71201,0.01873 -9.80213,0.01873c0,0 -2.5,0 -2.5,-2.5c0,-2.5 2.5,-2.5 2.5,-2.5c3.06375,0 6.14637,0.35845 9.19122,0.01873c1.93492,-0.21588 6.53148,-1.95223 8.01298,-2.46476c6.3003,-2.1796 12.60166,-4.35613 18.90249,-6.5342c4.2149,-1.457 8.42411,-2.81562 12.59698,-4.23618c-0.13604,0.02231 -0.27221,0.0448 -0.40853,0.06748c-4.93724,0.82156 -9.98715,2.00612 -14.96783,2.48462c-6.63337,0.63726 -13.50178,0.36602 -20.16532,0.54371c-5.59785,0.14928 -11.25427,0.65 -16.82833,0.12385c-0.35972,0.13972 -0.59657,0.22701 -0.66146,0.24127c-1.17811,0.25887 -2.41137,-0.07427 -3.61634,-0.12912c-4.99426,-0.22735 -9.98674,-0.52562 -14.97927,-0.78838c0,0 -2.49654,-0.1314 -2.36515,-2.62794c0.1314,-2.49654 2.62794,-2.36515 2.62794,-2.36515c3.32873,0.1752 6.65745,0.35039 9.98618,0.52559c1.86995,0.09842 3.7734,0.62554 5.63383,0.64599c0.84964,-0.86384 2.171,-0.67507 2.171,-0.67507c0.3219,0.04691 0.64438,0.08932 0.96739,0.12754c2.5672,-0.83875 4.94263,-2.26508 7.4488,-3.29703c6.16452,-2.53833 12.32904,-5.07666 18.49356,-7.615l4.54836,-1.87285c0,0 2.3117,-0.95187 3.26357,1.35982z" fill="#000000"/><path d="M630.66284,166.72662c1.38675,2.08013 -0.69338,3.46688 -0.69338,3.46688l-0.22651,0.151c-6.67668,4.45112 -12.98559,9.17514 -19.32453,14.09397c-5.50385,4.27082 -10.53853,8.63756 -16.87544,11.58583c0,0 -2.2699,1.04765 -3.31754,-1.22225c-1.04765,-2.2699 1.22225,-3.31754 1.22225,-3.31754c5.97733,-2.73397 10.7252,-6.97651 15.90548,-10.99625c6.43285,-4.99169 12.84031,-9.78668 19.61628,-14.304l0.22651,-0.151c0,0 2.08013,-1.38675 3.46688,0.69338z" fill="#000000"/><path d="M666.5744,140.74863c0.22605,-0.72574 0.8504,-1.83957 2.5455,-1.71972c2.49377,0.17632 2.31745,2.6701 2.31745,2.6701l-0.8833,2.21127c-1.25429,1.09751 -2.50859,2.19502 -3.76288,3.29252c0,0 -1.88144,1.64626 -3.5277,-0.23518c-1.64626,-1.88144 0.23518,-3.5277 0.23518,-3.5277c1.02525,-0.89709 2.0505,-1.79419 3.07575,-2.69128z" fill="#000000"/><path d="M565.98936,220.36837c0.45155,2.45888 -2.00733,2.91043 -2.00733,2.91043l-3.36124,0.61726c-11.48112,2.10711 -23.15131,3.038 -34.63727,5.08288c-13.03472,2.32061 -26.74107,5.77169 -40.04269,4.77995c0,0 -2.49264,-0.19174 -2.30089,-2.68438c0.19174,-2.49264 2.68438,-2.30089 2.68438,-2.30089c12.83293,1.02069 26.20241,-2.47724 38.77972,-4.71672c11.47824,-2.04379 23.14103,-2.97045 34.61366,-5.07861l3.36124,-0.61726c0,0 2.45888,-0.45155 2.91043,2.00733z" fill="#000000"/></g></g></svg>